<svg width="400" xmlns="http://www.w3.org/2000/svg" height="300" viewBox="-556.667 -1585 400 300" style="-webkit-print-color-adjust::exact" xmlns:xlink="http://www.w3.org/1999/xlink" fill="none" version="1.1">
  <g style="fill:#000000" xml:space="preserve" rx="0" ry="0">
    <g style="display:none">
      <g>
        <rect rx="0" ry="0" x="-556.6666666666666" y="-1585" transform="matrix(1.000000, 0.000000, 0.000000, 1.000000, 0.000000, 0.000000)" width="400" height="300" style="fill-rule:evenodd;clip-rule:evenodd;stroke-linejoin:round;stroke-miterlimit:1.5;fill:none" fill="none">
        </rect>
      </g>
    </g>
    <g>
      <g>
        <path d="M-556.6666666666666,-1585 h400 a0,0 0 0 1 0,0 v300 a0,0 0 0 1 0,0 h-400 a0,0 0 0 1 0,0 v-300 a0,0 0 0 1 0,0 z" x="-556.6666666666666" y="-1585" transform="matrix(1.000000, 0.000000, 0.000000, 1.000000, 0.000000, 0.000000)" width="400" height="300" style="fill-rule:evenodd;clip-rule:evenodd;stroke-linejoin:round;stroke-miterlimit:1.5;fill:#f2f2f2">
        </path>
      </g>
    </g>
    <g rx="0" ry="0">
      <g style="fill:#000000" rx="0" ry="0">
        <g>
          <g>
            <path d="M-506.667,-1567.018L-206.667,-1567.018" style="fill-rule:evenodd;clip-rule:evenodd;stroke-linejoin:round;stroke-miterlimit:1.5;fill:none">
            </path>
          </g>
          <g style="fill-rule:evenodd;clip-rule:evenodd;stroke-linejoin:round;stroke-miterlimit:1.5;fill:none">
            <g>
              <path d="M-506.667,-1567.018L-206.667,-1567.018" style="fill:none;fill-opacity:none;stroke-width:2.5;stroke:#bfbfbf;stroke-opacity:1">
              </path>
            </g>
          </g>
        </g>
        <g>
          <g>
            <path d="M-506.667,-1546.640L-308.306,-1546.640" style="fill-rule:evenodd;clip-rule:evenodd;stroke-linejoin:round;stroke-miterlimit:1.5;fill:none">
            </path>
          </g>
          <g style="fill-rule:evenodd;clip-rule:evenodd;stroke-linejoin:round;stroke-miterlimit:1.5;fill:none">
            <g>
              <path d="M-506.667,-1546.640L-308.306,-1546.640" style="fill:none;fill-opacity:none;stroke-width:2.5;stroke:#bfbfbf;stroke-opacity:1">
              </path>
            </g>
          </g>
        </g>
      </g>
      <g style="fill:#000000" rx="0" ry="0">
        <g>
          <g>
            <path d="M-506.667,-1323.370L-206.667,-1323.370" style="fill-rule:evenodd;clip-rule:evenodd;stroke-linejoin:round;stroke-miterlimit:1.5;fill:none">
            </path>
          </g>
          <g style="fill-rule:evenodd;clip-rule:evenodd;stroke-linejoin:round;stroke-miterlimit:1.5;fill:none">
            <g>
              <path d="M-506.667,-1323.370L-206.667,-1323.370" style="fill:none;fill-opacity:none;stroke-width:2.5;stroke:#bfbfbf;stroke-opacity:1">
              </path>
            </g>
          </g>
        </g>
        <g>
          <g>
            <path d="M-506.667,-1302.992L-308.306,-1302.992" style="fill-rule:evenodd;clip-rule:evenodd;stroke-linejoin:round;stroke-miterlimit:1.5;fill:none">
            </path>
          </g>
          <g style="fill-rule:evenodd;clip-rule:evenodd;stroke-linejoin:round;stroke-miterlimit:1.5;fill:none">
            <g>
              <path d="M-506.667,-1302.992L-308.306,-1302.992" style="fill:none;fill-opacity:none;stroke-width:2.5;stroke:#bfbfbf;stroke-opacity:1">
              </path>
            </g>
          </g>
        </g>
      </g>
      <g rx="0" ry="0">
        <g rx="0" ry="0">
          <g>
            <g>
              <rect rx="3" ry="3" x="-506.6666666666666" y="-1516.4999999999998" transform="matrix(1.000000, 0.000000, 0.000000, 1.000000, 0.000000, 0.000000)" width="300.00000000000006" height="20" style="fill:#666666;fill-opacity:1">
              </rect>
            </g>
          </g>
          <g>
            <g>
              <path d="M-498.090,-1506.142L-299.729,-1506.142" style="fill-rule:evenodd;clip-rule:evenodd;stroke-linejoin:round;stroke-miterlimit:1.5;fill:none">
              </path>
            </g>
            <g style="fill-rule:evenodd;clip-rule:evenodd;stroke-linejoin:round;stroke-miterlimit:1.5;fill:none">
              <g>
                <path d="M-498.090,-1506.142L-299.729,-1506.142" style="fill:none;fill-opacity:none;stroke-width:2.5;stroke:#eaeaea;stroke-opacity:1">
                </path>
              </g>
            </g>
          </g>
          <g>
            <g>
              <path d="M-216.667,-1510.500L-216.667,-1506.650L-216.667,-1502.817L-221.667,-1506.750L-216.667,-1510.500ZM-221.667,-1506.750" style="fill:#eaeaea;fill-opacity:1">
              </path>
            </g>
          </g>
        </g>
        <g rx="0" ry="0">
          <g>
            <g>
              <path d="M-503.6666666666666,-1480.9999999999998 h294.00000000000006 a3,3 0 0 1 3,3 v17 a0,0 0 0 1 0,0 h-300.00000000000006 a0,0 0 0 1 0,0 v-17 a3,3 0 0 1 3,-3 z" x="-506.6666666666666" y="-1480.9999999999998" transform="matrix(1.000000, 0.000000, 0.000000, 1.000000, 0.000000, 0.000000)" width="300.00000000000006" height="20" style="fill:#666666;fill-opacity:1">
              </path>
            </g>
          </g>
          <g>
            <g>
              <path d="M-506.6666666666666,-1462.9999999999998 h300 a0,0 0 0 1 0,0 v71 a3,3 0 0 1 -3,3 h-294 a3,3 0 0 1 -3,-3 v-71 a0,0 0 0 1 0,0 z" x="-506.6666666666666" y="-1462.9999999999998" transform="matrix(1.000000, 0.000000, 0.000000, 1.000000, 0.000000, 0.000000)" width="300" height="74" style="fill:#f2f2f2;fill-opacity:1">
              </path>
            </g>
            <g>
              <g transform="matrix(1.000000, 0.000000, 0.000000, 1.000000, 0.000000, 0.000000)">
                <defs>
                  <clipPath>
                    <use href="#stroke-shape-render-570-a5db714f-d35d-805d-8005-0de9f06071e7-0">
                    </use>
                  </clipPath>
                  <path d="M-506.6666666666666,-1462.9999999999998 h300 a0,0 0 0 1 0,0 v71 a3,3 0 0 1 -3,3 h-294 a3,3 0 0 1 -3,-3 v-71 a0,0 0 0 1 0,0 z" x="-506.6666666666666" y="-1462.9999999999998" width="300" height="74" style="fill:none;fill-opacity:none;stroke-width:4;stroke:#666666;stroke-opacity:1">
                  </path>
                </defs>
                <use href="#stroke-shape-render-570-a5db714f-d35d-805d-8005-0de9f06071e7-0" clip-path="url(&#x27;#inner-stroke-render-570-a5db714f-d35d-805d-8005-0de9f06071e7-0&#x27;)">
                </use>
              </g>
            </g>
          </g>
          <g>
            <g>
              <path d="M-498.090,-1470.000L-379.730,-1470.000" style="fill-rule:evenodd;clip-rule:evenodd;stroke-linejoin:round;stroke-miterlimit:1.5;fill:none">
              </path>
            </g>
            <g style="fill-rule:evenodd;clip-rule:evenodd;stroke-linejoin:round;stroke-miterlimit:1.5;fill:none">
              <g>
                <path d="M-498.090,-1470.000L-379.730,-1470.000" style="fill:none;fill-opacity:none;stroke-width:2.5;stroke:#eaeaea;stroke-opacity:1">
                </path>
              </g>
            </g>
          </g>
          <g>
            <g>
              <path d="M-223.381,-1473.404L-219.531,-1473.404L-215.698,-1473.404L-219.631,-1468.404L-223.381,-1473.404ZM-219.631,-1468.404" style="fill:#eaeaea;fill-opacity:1">
              </path>
            </g>
          </g>
          <g rx="0" ry="0">
            <g>
              <g>
                <path d="M-487.667,-1437.000L-229.667,-1437.000" style="fill-rule:evenodd;clip-rule:evenodd;stroke-linejoin:round;stroke-miterlimit:1.5;fill:none">
                </path>
              </g>
              <g style="fill-rule:evenodd;clip-rule:evenodd;stroke-linejoin:round;stroke-miterlimit:1.5;fill:none">
                <g>
                  <path d="M-487.667,-1437.000L-229.667,-1437.000" style="fill:none;fill-opacity:none;stroke-width:2.5;stroke:#bfbfbf;stroke-opacity:1">
                  </path>
                </g>
              </g>
            </g>
            <g>
              <g>
                <path d="M-487.667,-1417.000L-316.667,-1417.000" style="fill-rule:evenodd;clip-rule:evenodd;stroke-linejoin:round;stroke-miterlimit:1.5;fill:none">
                </path>
              </g>
              <g style="fill-rule:evenodd;clip-rule:evenodd;stroke-linejoin:round;stroke-miterlimit:1.5;fill:none">
                <g>
                  <path d="M-487.667,-1417.000L-316.667,-1417.000" style="fill:none;fill-opacity:none;stroke-width:2.5;stroke:#bfbfbf;stroke-opacity:1">
                  </path>
                </g>
              </g>
            </g>
          </g>
        </g>
        <g rx="0" ry="0">
          <g>
            <g>
              <rect rx="3" ry="3" x="-506.6666666666666" y="-1373.5000000000002" transform="matrix(1.000000, 0.000000, 0.000000, 1.000000, 0.000000, 0.000000)" width="300.00000000000006" height="20" style="fill:#666666;fill-opacity:1">
              </rect>
            </g>
          </g>
          <g>
            <g>
              <path d="M-498.090,-1362.667L-329.730,-1362.667" style="fill-rule:evenodd;clip-rule:evenodd;stroke-linejoin:round;stroke-miterlimit:1.5;fill:none">
              </path>
            </g>
            <g style="fill-rule:evenodd;clip-rule:evenodd;stroke-linejoin:round;stroke-miterlimit:1.5;fill:none">
              <g>
                <path d="M-498.090,-1362.667L-329.730,-1362.667" style="fill:none;fill-opacity:none;stroke-width:2.5;stroke:#eaeaea;stroke-opacity:1">
                </path>
              </g>
            </g>
          </g>
          <g>
            <g>
              <path d="M-215.771,-1366.833L-215.771,-1362.984L-215.771,-1359.150L-221.771,-1363.083L-215.771,-1366.833ZM-221.771,-1363.083" style="fill:#eaeaea;fill-opacity:1">
              </path>
            </g>
          </g>
        </g>
      </g>
    </g>
  </g>
</svg>