<?xml version="1.0" encoding="utf-8"?>
<svg width="400" xmlns="http://www.w3.org/2000/svg" height="300" viewBox="401 -130 400 300" style="-webkit-print-color-adjust::exact" fill="none" version="1.1" xmlns:bx="https://boxy-svg.com"><defs/><style>
  </style><rect rx="0" ry="0" x="401" y="-130" width="400" height="300" style="fill-rule:evenodd;clip-rule:evenodd;stroke-linejoin:round;stroke-miterlimit:1.5;fill:#f2f2f2"/><g style="fill:#000000" rx="0" ry="0"><g rx="0" ry="0"><g><g><path d="M451.000,99.622L751.000,99.622" style="fill-rule:evenodd;clip-rule:evenodd;stroke-linejoin:round;stroke-miterlimit:1.5;fill:none"/></g><g style="fill-rule:evenodd;clip-rule:evenodd;stroke-linejoin:round;stroke-miterlimit:1.5;fill:none"><g><path d="M451.000,99.622L751.000,99.622" style="fill:none;fill-opacity:none;stroke-width:2.5;stroke:#bfbfbf;stroke-opacity:1"/></g></g></g><g><g><path d="M451.000,120.000L597.820,120.000" style="fill-rule:evenodd;clip-rule:evenodd;stroke-linejoin:round;stroke-miterlimit:1.5;fill:none"/></g><g style="fill-rule:evenodd;clip-rule:evenodd;stroke-linejoin:round;stroke-miterlimit:1.5;fill:none"><g><path d="M451.000,120.000L597.820,120.000" style="fill:none;fill-opacity:none;stroke-width:2.5;stroke:#bfbfbf;stroke-opacity:1"/></g></g></g></g><g rx="0" ry="0"><g rx="0" ry="0"><g><g><path d="M557.000,0.500L738.000,0.500" fill="none" style="fill:none"/></g><g fill="none"><g><path d="M557.000,0.500L738.000,0.500" style="fill:none;fill-opacity:none;stroke-width:9;stroke:#666666;stroke-opacity:1"/></g></g></g><g><g><path d="M568.500,19.500L726.500,19.500" fill="none" style="fill:none"/></g><g fill="none"><g><path d="M568.500,19.500L726.500,19.500" style="fill:none;fill-opacity:none;stroke-width:9;stroke:#666666;stroke-opacity:1"/></g></g></g><g><g><path d="M561.500,38.500L733.500,38.500" fill="none" style="fill:none"/></g><g fill="none"><g><path d="M561.500,38.500L733.500,38.500" style="fill:none;fill-opacity:none;stroke-width:9;stroke:#666666;stroke-opacity:1"/></g></g></g></g><g rx="0" ry="0"><g><g><ellipse cx="499.5" cy="19.5" rx="35.5" ry="35.5" transform="matrix(1.000000, 0.000000, 0.000000, 1.000000, 0.000000, 0.000000)" style="fill:#f2f2f2;fill-opacity:1"/></g><g><g><ellipse cx="499.5" cy="19.5" rx="35.5" ry="35.5" style="fill:none;fill-opacity:none;stroke-width:7;stroke:#666666;stroke-opacity:1" transform="matrix(1.000000, 0.000000, 0.000000, 1.000000, 0.000000, 0.000000)"/></g></g></g><g><g transform="matrix(1.000000, 0.000000, 0.000000, 1.000000, 0.000000, 0.000000)" x="483.5" y="-7.8286713286713265" width="35" height="56" rx="0" ry="0"><g><path d="M 499.875 39.267 C 498.593 39.267 497.517 38.827 496.648 37.948 C 495.779 37.069 495.345 35.998 495.345 34.736 C 495.345 33.495 495.779 32.45 496.648 31.602 C 497.517 30.754 498.593 30.33 499.875 30.33 C 501.137 30.33 502.208 30.754 503.087 31.602 C 503.966 32.45 504.406 33.495 504.406 34.736 C 504.406 35.998 503.966 37.069 503.087 37.948 C 502.208 38.827 501.137 39.267 499.875 39.267 Z M 499.844 25.985 C 498.893 25.985 498.184 25.618 497.719 24.884 C 497.253 24.149 496.959 23.069 496.834 21.641 C 496.648 18.331 496.488 15.037 496.353 11.758 C 496.219 8.479 496.152 5.153 496.152 1.781 C 496.152 0.313 496.452 -0.81 497.052 -1.585 C 497.652 -2.361 498.583 -2.749 499.844 -2.749 C 501.106 -2.749 502.032 -2.361 502.622 -1.585 C 503.211 -0.81 503.506 0.313 503.506 1.781 C 503.506 5.091 503.444 8.401 503.32 11.711 C 503.196 15.021 503.041 18.331 502.854 21.641 C 502.73 23.069 502.435 24.149 501.97 24.884 C 501.505 25.618 500.796 25.985 499.844 25.985 Z" style="fill: rgb(102, 102, 102);"/></g></g></g></g></g><g rx="0" ry="0"><g><g><path d="M451.000,-80.000L751.000,-80.000" style="fill-rule:evenodd;clip-rule:evenodd;stroke-linejoin:round;stroke-miterlimit:1.5;fill:none"/></g><g style="fill-rule:evenodd;clip-rule:evenodd;stroke-linejoin:round;stroke-miterlimit:1.5;fill:none"><g><path d="M451.000,-80.000L751.000,-80.000" style="fill:none;fill-opacity:none;stroke-width:2.5;stroke:#bfbfbf;stroke-opacity:1"/></g></g></g><g><g><path d="M451.000,-59.622L649.361,-59.622" style="fill-rule:evenodd;clip-rule:evenodd;stroke-linejoin:round;stroke-miterlimit:1.5;fill:none"/></g><g style="fill-rule:evenodd;clip-rule:evenodd;stroke-linejoin:round;stroke-miterlimit:1.5;fill:none"><g><path d="M451.000,-59.622L649.361,-59.622" style="fill:none;fill-opacity:none;stroke-width:2.5;stroke:#bfbfbf;stroke-opacity:1"/></g></g></g></g></g></svg>