<svg width="400" xmlns="http://www.w3.org/2000/svg" height="300" viewBox="-1035 -1223 400 300" style="-webkit-print-color-adjust::exact" xmlns:xlink="http://www.w3.org/1999/xlink" fill="none" version="1.1">
  <g style="fill:#000000" xml:space="preserve" rx="0" ry="0">
    <g>
      <g>
        <rect rx="0" ry="0" x="-1035" y="-1223" transform="matrix(1.000000, 0.000000, 0.000000, 1.000000, 0.000000, 0.000000)" width="400" height="300" style="fill-rule:evenodd;clip-rule:evenodd;stroke-linejoin:round;stroke-miterlimit:1.5;fill:#f2f2f2">
        </rect>
      </g>
    </g>
    <g rx="0" ry="0">
      <g>
        <g>
          <path d="M-978.000,-993.378L-678.000,-993.378" style="fill-rule:evenodd;clip-rule:evenodd;stroke-linejoin:round;stroke-miterlimit:1.5;fill:none">
          </path>
        </g>
        <g style="fill-rule:evenodd;clip-rule:evenodd;stroke-linejoin:round;stroke-miterlimit:1.5;fill:none">
          <g>
            <path d="M-978.000,-993.378L-678.000,-993.378" style="fill:none;fill-opacity:none;stroke-width:2.5;stroke:#bfbfbf;stroke-opacity:1">
            </path>
          </g>
        </g>
      </g>
      <g>
        <g>
          <path d="M-978.000,-973.000L-831.180,-973.000" style="fill-rule:evenodd;clip-rule:evenodd;stroke-linejoin:round;stroke-miterlimit:1.5;fill:none">
          </path>
        </g>
        <g style="fill-rule:evenodd;clip-rule:evenodd;stroke-linejoin:round;stroke-miterlimit:1.5;fill:none">
          <g>
            <path d="M-978.000,-973.000L-831.180,-973.000" style="fill:none;fill-opacity:none;stroke-width:2.5;stroke:#bfbfbf;stroke-opacity:1">
            </path>
          </g>
        </g>
      </g>
    </g>
    <g rx="0" ry="0">
      <g rx="0" ry="0">
        <g rx="0" ry="0">
          <g>
            <g>
              <path d="M-864.473,-1056.078L-791.527,-1056.078" fill="none" style="fill:none">
              </path>
            </g>
            <g fill="none">
              <g>
                <path d="M-864.473,-1056.078L-791.527,-1056.078" style="fill:none;fill-opacity:none;stroke-width:3;stroke:#666666;stroke-opacity:1">
                </path>
              </g>
            </g>
          </g>
          <g>
            <g>
              <path d="M-864.473,-1046.208L-791.527,-1046.208" fill="none" style="fill:none">
              </path>
            </g>
            <g fill="none">
              <g>
                <path d="M-864.473,-1046.208L-791.527,-1046.208" style="fill:none;fill-opacity:none;stroke-width:3;stroke:#666666;stroke-opacity:1">
                </path>
              </g>
            </g>
          </g>
          <g>
            <g>
              <path d="M-864.473,-1026.468L-798.702,-1026.468" fill="none" style="fill:none">
              </path>
            </g>
            <g fill="none">
              <g>
                <path d="M-864.473,-1026.468L-798.702,-1026.468" style="fill:none;fill-opacity:none;stroke-width:3;stroke:#666666;stroke-opacity:1">
                </path>
              </g>
            </g>
          </g>
          <g>
            <g>
              <path d="M-864.473,-1036.338L-805.877,-1036.338" fill="none" style="fill:none">
              </path>
            </g>
            <g fill="none">
              <g>
                <path d="M-864.473,-1036.338L-805.877,-1036.338" style="fill:none;fill-opacity:none;stroke-width:3;stroke:#666666;stroke-opacity:1">
                </path>
              </g>
            </g>
          </g>
        </g>
        <g rx="0" ry="0">
          <g>
            <g>
              <rect rx="0" ry="0" x="-862.08125" y="-1116.5324675324675" transform="matrix(1.000000, 0.000000, 0.000000, 1.000000, 0.000000, 0.000000)" width="70.55416666666679" height="49.35064935064929" style="fill:#f2f2f2;fill-opacity:1">
              </rect>
            </g>
          </g>
          <g>
            <g>
              <path d="M-840.955,-1103.170C-840.955,-1101.285,-841.711,-1099.683,-843.222,-1098.364C-844.733,-1097.044,-846.569,-1096.385,-848.728,-1096.385C-850.887,-1096.385,-852.723,-1097.044,-854.234,-1098.364C-855.746,-1099.683,-856.501,-1101.285,-856.501,-1103.170C-856.501,-1105.054,-855.746,-1106.656,-854.234,-1107.975C-852.723,-1109.295,-850.887,-1109.954,-848.728,-1109.954C-846.569,-1109.954,-844.733,-1109.295,-843.222,-1107.975C-841.711,-1106.656,-840.955,-1105.054,-840.955,-1103.170ZZM-799.499,-1089.600L-799.499,-1073.770L-856.501,-1073.770L-856.501,-1080.554L-843.546,-1091.862L-837.069,-1086.208L-816.340,-1104.300L-799.499,-1089.600ZZM-795.613,-1114.477L-860.387,-1114.477C-860.738,-1114.477,-861.042,-1114.365,-861.299,-1114.141C-861.554,-1113.918,-861.683,-1113.652,-861.683,-1113.346L-861.683,-1070.377C-861.683,-1070.071,-861.554,-1069.806,-861.299,-1069.582C-861.042,-1069.358,-860.738,-1069.247,-860.387,-1069.247L-795.613,-1069.247C-795.262,-1069.247,-794.958,-1069.358,-794.701,-1069.582C-794.446,-1069.806,-794.317,-1070.071,-794.317,-1070.377L-794.317,-1113.346C-794.317,-1113.652,-794.446,-1113.918,-794.701,-1114.141C-794.958,-1114.365,-795.262,-1114.477,-795.613,-1114.477ZZM-789.135,-1113.346L-789.135,-1070.377C-789.135,-1068.823,-789.770,-1067.492,-791.038,-1066.384C-792.306,-1065.277,-793.831,-1064.723,-795.613,-1064.723L-860.387,-1064.723C-862.169,-1064.723,-863.694,-1065.277,-864.962,-1066.384C-866.230,-1067.492,-866.865,-1068.823,-866.865,-1070.377L-866.865,-1113.346C-866.865,-1114.901,-866.230,-1116.232,-864.962,-1117.339C-863.694,-1118.446,-862.169,-1119.000,-860.387,-1119.000L-795.613,-1119.000C-793.831,-1119.000,-792.306,-1118.446,-791.038,-1117.339C-789.770,-1116.232,-789.135,-1114.901,-789.135,-1113.346ZZ" style="fill-rule:nonzero;clip-rule:evenodd;stroke-linejoin:round;stroke-miterlimit:1.5;fill:#666666">
              </path>
            </g>
          </g>
        </g>
      </g>
      <g rx="0" ry="0">
        <g rx="0" ry="0">
          <g>
            <g>
              <path d="M-759.837,-1056.078L-686.892,-1056.078" fill="none" style="fill:none">
              </path>
            </g>
            <g fill="none">
              <g>
                <path d="M-759.837,-1056.078L-686.892,-1056.078" style="fill:none;fill-opacity:none;stroke-width:3;stroke:#666666;stroke-opacity:1">
                </path>
              </g>
            </g>
          </g>
          <g>
            <g>
              <path d="M-759.837,-1046.208L-686.892,-1046.208" fill="none" style="fill:none">
              </path>
            </g>
            <g fill="none">
              <g>
                <path d="M-759.837,-1046.208L-686.892,-1046.208" style="fill:none;fill-opacity:none;stroke-width:3;stroke:#666666;stroke-opacity:1">
                </path>
              </g>
            </g>
          </g>
          <g>
            <g>
              <path d="M-759.837,-1026.468L-694.067,-1026.468" fill="none" style="fill:none">
              </path>
            </g>
            <g fill="none">
              <g>
                <path d="M-759.837,-1026.468L-694.067,-1026.468" style="fill:none;fill-opacity:none;stroke-width:3;stroke:#666666;stroke-opacity:1">
                </path>
              </g>
            </g>
          </g>
          <g>
            <g>
              <path d="M-759.837,-1036.338L-701.242,-1036.338" fill="none" style="fill:none">
              </path>
            </g>
            <g fill="none">
              <g>
                <path d="M-759.837,-1036.338L-701.242,-1036.338" style="fill:none;fill-opacity:none;stroke-width:3;stroke:#666666;stroke-opacity:1">
                </path>
              </g>
            </g>
          </g>
        </g>
        <g rx="0" ry="0">
          <g>
            <g>
              <rect rx="0" ry="0" x="-757.4458333333332" y="-1116.5324675324675" transform="matrix(1.000000, 0.000000, 0.000000, 1.000000, 0.000000, 0.000000)" width="70.55416666666656" height="49.35064935064929" style="fill:#f2f2f2;fill-opacity:1">
              </rect>
            </g>
          </g>
          <g>
            <g>
              <path d="M-736.319,-1103.170C-736.319,-1101.285,-737.075,-1099.683,-738.586,-1098.364C-740.098,-1097.044,-741.934,-1096.385,-744.092,-1096.385C-746.252,-1096.385,-748.087,-1097.044,-749.599,-1098.364C-751.110,-1099.683,-751.866,-1101.285,-751.866,-1103.170C-751.866,-1105.054,-751.110,-1106.656,-749.599,-1107.975C-748.087,-1109.295,-746.252,-1109.954,-744.092,-1109.954C-741.934,-1109.954,-740.098,-1109.295,-738.586,-1107.975C-737.075,-1106.656,-736.319,-1105.054,-736.319,-1103.170ZZM-694.863,-1089.600L-694.863,-1073.770L-751.866,-1073.770L-751.866,-1080.554L-738.911,-1091.862L-732.433,-1086.208L-711.705,-1104.300L-694.863,-1089.600ZZM-690.977,-1114.477L-755.752,-1114.477C-756.103,-1114.477,-756.406,-1114.365,-756.663,-1114.141C-756.919,-1113.918,-757.048,-1113.652,-757.048,-1113.346L-757.048,-1070.377C-757.048,-1070.071,-756.919,-1069.806,-756.663,-1069.582C-756.406,-1069.358,-756.103,-1069.247,-755.752,-1069.247L-690.977,-1069.247C-690.626,-1069.247,-690.323,-1069.358,-690.066,-1069.582C-689.810,-1069.806,-689.681,-1070.071,-689.681,-1070.377L-689.681,-1113.346C-689.681,-1113.652,-689.810,-1113.918,-690.066,-1114.141C-690.323,-1114.365,-690.626,-1114.477,-690.977,-1114.477ZZM-684.500,-1113.346L-684.500,-1070.377C-684.500,-1068.823,-685.134,-1067.492,-686.403,-1066.384C-687.671,-1065.277,-689.195,-1064.723,-690.977,-1064.723L-755.752,-1064.723C-757.534,-1064.723,-759.058,-1065.277,-760.327,-1066.384C-761.595,-1067.492,-762.229,-1068.823,-762.229,-1070.377L-762.229,-1113.346C-762.229,-1114.901,-761.595,-1116.232,-760.327,-1117.339C-759.058,-1118.446,-757.534,-1119.000,-755.752,-1119.000L-690.977,-1119.000C-689.195,-1119.000,-687.671,-1118.446,-686.403,-1117.339C-685.134,-1116.232,-684.500,-1114.901,-684.500,-1113.346ZZ" style="fill-rule:nonzero;clip-rule:evenodd;stroke-linejoin:round;stroke-miterlimit:1.5;fill:#666666">
              </path>
            </g>
          </g>
        </g>
      </g>
      <g rx="0" ry="0">
        <g rx="0" ry="0">
          <g>
            <g>
              <path d="M-969.108,-1056.078L-896.162,-1056.078" fill="none" style="fill:none">
              </path>
            </g>
            <g fill="none">
              <g>
                <path d="M-969.108,-1056.078L-896.162,-1056.078" style="fill:none;fill-opacity:none;stroke-width:3;stroke:#666666;stroke-opacity:1">
                </path>
              </g>
            </g>
          </g>
          <g>
            <g>
              <path d="M-969.108,-1046.208L-896.162,-1046.208" fill="none" style="fill:none">
              </path>
            </g>
            <g fill="none">
              <g>
                <path d="M-969.108,-1046.208L-896.162,-1046.208" style="fill:none;fill-opacity:none;stroke-width:3;stroke:#666666;stroke-opacity:1">
                </path>
              </g>
            </g>
          </g>
          <g>
            <g>
              <path d="M-969.108,-1026.468L-903.337,-1026.468" fill="none" style="fill:none">
              </path>
            </g>
            <g fill="none">
              <g>
                <path d="M-969.108,-1026.468L-903.337,-1026.468" style="fill:none;fill-opacity:none;stroke-width:3;stroke:#666666;stroke-opacity:1">
                </path>
              </g>
            </g>
          </g>
          <g>
            <g>
              <path d="M-969.108,-1036.338L-910.513,-1036.338" fill="none" style="fill:none">
              </path>
            </g>
            <g fill="none">
              <g>
                <path d="M-969.108,-1036.338L-910.513,-1036.338" style="fill:none;fill-opacity:none;stroke-width:3;stroke:#666666;stroke-opacity:1">
                </path>
              </g>
            </g>
          </g>
        </g>
        <g rx="0" ry="0">
          <g>
            <g>
              <rect rx="0" ry="0" x="-966.7166666666667" y="-1116.5324675324675" transform="matrix(1.000000, 0.000000, 0.000000, 1.000000, 0.000000, 0.000000)" width="70.55416666666679" height="49.35064935064929" style="fill:#f2f2f2;fill-opacity:1">
              </rect>
            </g>
          </g>
          <g>
            <g>
              <path d="M-945.590,-1103.170C-945.590,-1101.285,-946.346,-1099.683,-947.857,-1098.364C-949.369,-1097.044,-951.204,-1096.385,-953.363,-1096.385C-955.522,-1096.385,-957.358,-1097.044,-958.870,-1098.364C-960.381,-1099.683,-961.137,-1101.285,-961.137,-1103.170C-961.137,-1105.054,-960.381,-1106.656,-958.870,-1107.975C-957.358,-1109.295,-955.522,-1109.954,-953.363,-1109.954C-951.204,-1109.954,-949.369,-1109.295,-947.857,-1107.975C-946.346,-1106.656,-945.590,-1105.054,-945.590,-1103.170ZZM-904.134,-1089.600L-904.134,-1073.770L-961.137,-1073.770L-961.137,-1080.554L-948.182,-1091.862L-941.704,-1086.208L-920.976,-1104.300L-904.134,-1089.600ZZM-900.248,-1114.477L-965.023,-1114.477C-965.374,-1114.477,-965.677,-1114.365,-965.934,-1114.141C-966.190,-1113.918,-966.319,-1113.652,-966.319,-1113.346L-966.319,-1070.377C-966.319,-1070.071,-966.190,-1069.806,-965.934,-1069.582C-965.677,-1069.358,-965.374,-1069.247,-965.023,-1069.247L-900.248,-1069.247C-899.897,-1069.247,-899.594,-1069.358,-899.337,-1069.582C-899.081,-1069.806,-898.952,-1070.071,-898.952,-1070.377L-898.952,-1113.346C-898.952,-1113.652,-899.081,-1113.918,-899.337,-1114.141C-899.594,-1114.365,-899.897,-1114.477,-900.248,-1114.477ZZM-893.771,-1113.346L-893.771,-1070.377C-893.771,-1068.823,-894.405,-1067.492,-895.673,-1066.384C-896.942,-1065.277,-898.466,-1064.723,-900.248,-1064.723L-965.023,-1064.723C-966.805,-1064.723,-968.329,-1065.277,-969.597,-1066.384C-970.866,-1067.492,-971.500,-1068.823,-971.500,-1070.377L-971.500,-1113.346C-971.500,-1114.901,-970.866,-1116.232,-969.597,-1117.339C-968.329,-1118.446,-966.805,-1119.000,-965.023,-1119.000L-900.248,-1119.000C-898.466,-1119.000,-896.942,-1118.446,-895.673,-1117.339C-894.405,-1116.232,-893.771,-1114.901,-893.771,-1113.346ZZ" style="fill-rule:nonzero;clip-rule:evenodd;stroke-linejoin:round;stroke-miterlimit:1.5;fill:#666666">
              </path>
            </g>
          </g>
        </g>
      </g>
    </g>
    <g rx="0" ry="0">
      <g>
        <g>
          <path d="M-978.000,-1173.000L-678.000,-1173.000" style="fill-rule:evenodd;clip-rule:evenodd;stroke-linejoin:round;stroke-miterlimit:1.5;fill:none">
          </path>
        </g>
        <g style="fill-rule:evenodd;clip-rule:evenodd;stroke-linejoin:round;stroke-miterlimit:1.5;fill:none">
          <g>
            <path d="M-978.000,-1173.000L-678.000,-1173.000" style="fill:none;fill-opacity:none;stroke-width:2.5;stroke:#bfbfbf;stroke-opacity:1">
            </path>
          </g>
        </g>
      </g>
      <g>
        <g>
          <path d="M-978.000,-1152.622L-779.639,-1152.622" style="fill-rule:evenodd;clip-rule:evenodd;stroke-linejoin:round;stroke-miterlimit:1.5;fill:none">
          </path>
        </g>
        <g style="fill-rule:evenodd;clip-rule:evenodd;stroke-linejoin:round;stroke-miterlimit:1.5;fill:none">
          <g>
            <path d="M-978.000,-1152.622L-779.639,-1152.622" style="fill:none;fill-opacity:none;stroke-width:2.5;stroke:#bfbfbf;stroke-opacity:1">
            </path>
          </g>
        </g>
      </g>
    </g>
  </g>
</svg>