<svg width="400" xmlns="http://www.w3.org/2000/svg" height="300" viewBox="401 -860 400 300" style="-webkit-print-color-adjust::exact" xmlns:xlink="http://www.w3.org/1999/xlink" fill="none" version="1.1">
  <g style="fill:#000000" xml:space="preserve" rx="0" ry="0">
    <g style="display:none">
      <g>
        <rect rx="0" ry="0" x="401" y="-860" transform="matrix(1.000000, 0.000000, 0.000000, 1.000000, 0.000000, 0.000000)" width="400" height="300.0000000000001" style="fill-rule:evenodd;clip-rule:evenodd;stroke-linejoin:round;stroke-miterlimit:1.5;fill:none" fill="none">
        </rect>
      </g>
    </g>
    <g>
      <g>
        <rect rx="0" ry="0" x="401" y="-860" transform="matrix(1.000000, 0.000000, 0.000000, 1.000000, 0.000000, 0.000000)" width="400" height="300.0000000000001" style="fill-rule:evenodd;clip-rule:evenodd;stroke-linejoin:round;stroke-miterlimit:1.5;fill:#f2f2f2">
        </rect>
      </g>
    </g>
    <g rx="0" ry="0">
      <g>
        <g>
          <path d="M451.000,-630.378L751.000,-630.378" style="fill-rule:evenodd;clip-rule:evenodd;stroke-linejoin:round;stroke-miterlimit:1.5;fill:none">
          </path>
        </g>
        <g style="fill-rule:evenodd;clip-rule:evenodd;stroke-linejoin:round;stroke-miterlimit:1.5;fill:none">
          <g>
            <path d="M451.000,-630.378L751.000,-630.378" style="fill:none;fill-opacity:none;stroke-width:2.5;stroke:#bfbfbf;stroke-opacity:1">
            </path>
          </g>
        </g>
      </g>
      <g>
        <g>
          <path d="M451.000,-610.000L597.820,-610.000" style="fill-rule:evenodd;clip-rule:evenodd;stroke-linejoin:round;stroke-miterlimit:1.5;fill:none">
          </path>
        </g>
        <g style="fill-rule:evenodd;clip-rule:evenodd;stroke-linejoin:round;stroke-miterlimit:1.5;fill:none">
          <g>
            <path d="M451.000,-610.000L597.820,-610.000" style="fill:none;fill-opacity:none;stroke-width:2.5;stroke:#bfbfbf;stroke-opacity:1">
            </path>
          </g>
        </g>
      </g>
    </g>
    <g rx="0" ry="0">
      <g>
        <g>
          <path d="M451.000,-810.000L751.000,-810.000" style="fill-rule:evenodd;clip-rule:evenodd;stroke-linejoin:round;stroke-miterlimit:1.5;fill:none">
          </path>
        </g>
        <g style="fill-rule:evenodd;clip-rule:evenodd;stroke-linejoin:round;stroke-miterlimit:1.5;fill:none">
          <g>
            <path d="M451.000,-810.000L751.000,-810.000" style="fill:none;fill-opacity:none;stroke-width:2.5;stroke:#bfbfbf;stroke-opacity:1">
            </path>
          </g>
        </g>
      </g>
      <g>
        <g>
          <path d="M451.000,-789.622L649.361,-789.622" style="fill-rule:evenodd;clip-rule:evenodd;stroke-linejoin:round;stroke-miterlimit:1.5;fill:none">
          </path>
        </g>
        <g style="fill-rule:evenodd;clip-rule:evenodd;stroke-linejoin:round;stroke-miterlimit:1.5;fill:none">
          <g>
            <path d="M451.000,-789.622L649.361,-789.622" style="fill:none;fill-opacity:none;stroke-width:2.5;stroke:#bfbfbf;stroke-opacity:1">
            </path>
          </g>
        </g>
      </g>
    </g>
    <g style="fill:#000000" rx="0" ry="0">
      <g rx="0" ry="0">
        <g>
          <g>
            <path d="M484.228,-718.063L484.376,-701.938" fill="none" stroke-linejoin="round" style="fill:none">
            </path>
          </g>
          <g fill="none" stroke-linejoin="round">
            <g>
              <path d="M484.228,-718.063L484.376,-701.938" style="fill:none;fill-opacity:none;stroke-width:5;stroke:#676767;stroke-opacity:1">
              </path>
            </g>
          </g>
        </g>
        <g>
          <g>
            <path d="M494.953,-724.109L495.249,-695.891" fill="none" stroke-linejoin="round" style="fill:none">
            </path>
          </g>
          <g fill="none" stroke-linejoin="round">
            <g>
              <path d="M494.953,-724.109L495.249,-695.891" style="fill:none;fill-opacity:none;stroke-width:5;stroke:#676767;stroke-opacity:1">
              </path>
            </g>
          </g>
        </g>
        <g>
          <g>
            <path d="M505.826,-734.188L505.826,-685.813" fill="none" stroke-linejoin="round" style="fill:none">
            </path>
          </g>
          <g fill="none" stroke-linejoin="round">
            <g>
              <path d="M505.826,-734.188L505.826,-685.813" style="fill:none;fill-opacity:none;stroke-width:5;stroke:#676767;stroke-opacity:1">
              </path>
            </g>
          </g>
        </g>
        <g>
          <g>
            <path d="M516.423,-714.031L516.423,-705.969" fill="none" stroke-linejoin="round" style="fill:none">
            </path>
          </g>
          <g fill="none" stroke-linejoin="round">
            <g>
              <path d="M516.423,-714.031L516.423,-705.969" style="fill:none;fill-opacity:none;stroke-width:5;stroke:#676767;stroke-opacity:1">
              </path>
            </g>
          </g>
        </g>
        <g>
          <g>
            <path d="M527.019,-728.141L527.019,-691.859" fill="none" stroke-linejoin="round" style="fill:none">
            </path>
          </g>
          <g fill="none" stroke-linejoin="round">
            <g>
              <path d="M527.019,-728.141L527.019,-691.859" style="fill:none;fill-opacity:none;stroke-width:5;stroke:#676767;stroke-opacity:1">
              </path>
            </g>
          </g>
        </g>
        <g>
          <g>
            <path d="M537.616,-718.063L537.616,-701.938" fill="none" stroke-linejoin="round" style="fill:none">
            </path>
          </g>
          <g fill="none" stroke-linejoin="round">
            <g>
              <path d="M537.616,-718.063L537.616,-701.938" style="fill:none;fill-opacity:none;stroke-width:5;stroke:#676767;stroke-opacity:1">
              </path>
            </g>
          </g>
        </g>
        <g>
          <g>
            <path d="M548.212,-714.031L548.212,-705.969" fill="none" stroke-linejoin="round" style="fill:none">
            </path>
          </g>
          <g fill="none" stroke-linejoin="round">
            <g>
              <path d="M548.212,-714.031L548.212,-705.969" style="fill:none;fill-opacity:none;stroke-width:5;stroke:#676767;stroke-opacity:1">
              </path>
            </g>
          </g>
        </g>
        <g>
          <g>
            <path d="M558.808,-726.125L558.808,-693.875" fill="none" stroke-linejoin="round" style="fill:none">
            </path>
          </g>
          <g fill="none" stroke-linejoin="round">
            <g>
              <path d="M558.808,-726.125L558.808,-693.875" style="fill:none;fill-opacity:none;stroke-width:5;stroke:#676767;stroke-opacity:1">
              </path>
            </g>
          </g>
        </g>
        <g>
          <g>
            <path d="M569.405,-716.047L569.405,-703.953" fill="none" stroke-linejoin="round" style="fill:none">
            </path>
          </g>
          <g fill="none" stroke-linejoin="round">
            <g>
              <path d="M569.405,-716.047L569.405,-703.953" style="fill:none;fill-opacity:none;stroke-width:5;stroke:#676767;stroke-opacity:1">
              </path>
            </g>
          </g>
        </g>
        <g>
          <g>
            <path d="M580.001,-728.141L580.001,-691.859" fill="none" stroke-linejoin="round" style="fill:none">
            </path>
          </g>
          <g fill="none" stroke-linejoin="round">
            <g>
              <path d="M580.001,-728.141L580.001,-691.859" style="fill:none;fill-opacity:none;stroke-width:5;stroke:#676767;stroke-opacity:1">
              </path>
            </g>
          </g>
        </g>
        <g>
          <g>
            <path d="M590.597,-716.047L590.597,-703.953" fill="none" stroke-linejoin="round" style="fill:none">
            </path>
          </g>
          <g fill="none" stroke-linejoin="round">
            <g>
              <path d="M590.597,-716.047L590.597,-703.953" style="fill:none;fill-opacity:none;stroke-width:5;stroke:#676767;stroke-opacity:1">
              </path>
            </g>
          </g>
        </g>
        <g>
          <g>
            <path d="M601.194,-734.188L601.194,-685.813" fill="none" stroke-linejoin="round" style="fill:none">
            </path>
          </g>
          <g fill="none" stroke-linejoin="round">
            <g>
              <path d="M601.194,-734.188L601.194,-685.813" style="fill:none;fill-opacity:none;stroke-width:5;stroke:#676767;stroke-opacity:1">
              </path>
            </g>
          </g>
        </g>
        <g>
          <g>
            <path d="M611.790,-724.109L611.790,-695.891" fill="none" stroke-linejoin="round" style="fill:none">
            </path>
          </g>
          <g fill="none" stroke-linejoin="round">
            <g>
              <path d="M611.790,-724.109L611.790,-695.891" style="fill:none;fill-opacity:none;stroke-width:5;stroke:#676767;stroke-opacity:1">
              </path>
            </g>
          </g>
        </g>
        <g>
          <g>
            <path d="M622.386,-714.031L622.386,-705.969" fill="none" stroke-linejoin="round" style="fill:none">
            </path>
          </g>
          <g fill="none" stroke-linejoin="round">
            <g>
              <path d="M622.386,-714.031L622.386,-705.969" style="fill:none;fill-opacity:none;stroke-width:5;stroke:#676767;stroke-opacity:1">
              </path>
            </g>
          </g>
        </g>
        <g>
          <g>
            <path d="M632.983,-734.188L632.983,-685.813" fill="none" stroke-linejoin="round" style="fill:none">
            </path>
          </g>
          <g fill="none" stroke-linejoin="round">
            <g>
              <path d="M632.983,-734.188L632.983,-685.813" style="fill:none;fill-opacity:none;stroke-width:5;stroke:#676767;stroke-opacity:1">
              </path>
            </g>
          </g>
        </g>
        <g>
          <g>
            <path d="M643.579,-722.094L643.579,-697.906" fill="none" stroke-linejoin="round" style="fill:none">
            </path>
          </g>
          <g fill="none" stroke-linejoin="round">
            <g>
              <path d="M643.579,-722.094L643.579,-697.906" style="fill:none;fill-opacity:none;stroke-width:5;stroke:#676767;stroke-opacity:1">
              </path>
            </g>
          </g>
        </g>
        <g>
          <g>
            <path d="M654.175,-716.047L654.175,-703.953" fill="none" stroke-linejoin="round" style="fill:none">
            </path>
          </g>
          <g fill="none" stroke-linejoin="round">
            <g>
              <path d="M654.175,-716.047L654.175,-703.953" style="fill:none;fill-opacity:none;stroke-width:5;stroke:#676767;stroke-opacity:1">
              </path>
            </g>
          </g>
        </g>
        <g>
          <g>
            <path d="M664.772,-720.078L664.772,-699.922" fill="none" stroke-linejoin="round" style="fill:none">
            </path>
          </g>
          <g fill="none" stroke-linejoin="round">
            <g>
              <path d="M664.772,-720.078L664.772,-699.922" style="fill:none;fill-opacity:none;stroke-width:5;stroke:#000000;stroke-opacity:0.3">
              </path>
            </g>
          </g>
        </g>
        <g>
          <g>
            <path d="M675.368,-730.156L675.368,-689.844" fill="none" stroke-linejoin="round" style="fill:none">
            </path>
          </g>
          <g fill="none" stroke-linejoin="round">
            <g>
              <path d="M675.368,-730.156L675.368,-689.844" style="fill:none;fill-opacity:none;stroke-width:5;stroke:#000000;stroke-opacity:0.3">
              </path>
            </g>
          </g>
        </g>
        <g>
          <g>
            <path d="M685.965,-734.188L685.965,-685.813" fill="none" stroke-linejoin="round" style="fill:none">
            </path>
          </g>
          <g fill="none" stroke-linejoin="round">
            <g>
              <path d="M685.965,-734.188L685.965,-685.813" style="fill:none;fill-opacity:none;stroke-width:5;stroke:#000000;stroke-opacity:0.3">
              </path>
            </g>
          </g>
        </g>
        <g>
          <g>
            <path d="M696.561,-726.125L696.561,-693.875" fill="none" stroke-linejoin="round" style="fill:none">
            </path>
          </g>
          <g fill="none" stroke-linejoin="round">
            <g>
              <path d="M696.561,-726.125L696.561,-693.875" style="fill:none;fill-opacity:none;stroke-width:5;stroke:#000000;stroke-opacity:0.3">
              </path>
            </g>
          </g>
        </g>
        <g>
          <g>
            <path d="M707.157,-722.094L707.157,-697.906" fill="none" stroke-linejoin="round" style="fill:none">
            </path>
          </g>
          <g fill="none" stroke-linejoin="round">
            <g>
              <path d="M707.157,-722.094L707.157,-697.906" style="fill:none;fill-opacity:none;stroke-width:5;stroke:#000000;stroke-opacity:0.3">
              </path>
            </g>
          </g>
        </g>
        <g>
          <g>
            <path d="M717.754,-716.047L717.754,-703.953" fill="none" stroke-linejoin="round" style="fill:none">
            </path>
          </g>
          <g fill="none" stroke-linejoin="round">
            <g>
              <path d="M717.754,-716.047L717.754,-703.953" style="fill:none;fill-opacity:none;stroke-width:5;stroke:#000000;stroke-opacity:0.3">
              </path>
            </g>
          </g>
        </g>
      </g>
    </g>
    <g style="fill:#000000" width="128" height="26" rx="0" ry="0">
      <g>
        <g>
          <path d="M744.791,-755.500L457.209,-755.500C454.516,-755.500,453.169,-755.500,452.141,-754.637C451.236,-753.878,450.500,-752.667,450.039,-751.177C449.515,-749.484,449.515,-747.267,449.515,-742.833L449.515,-673.167C449.515,-668.733,449.515,-666.516,450.039,-664.823C450.500,-663.333,451.236,-662.122,452.141,-661.363C453.169,-660.500,454.516,-660.500,457.209,-660.500L564.932,-660.500L637.068,-660.500L744.791,-660.500C747.484,-660.500,748.830,-660.500,749.859,-661.363C750.763,-662.122,751.499,-663.333,751.961,-664.823C752.485,-666.516,752.485,-668.733,752.485,-673.167L752.485,-742.833C752.485,-747.267,752.485,-749.484,751.961,-751.177C751.499,-752.667,750.763,-753.878,749.859,-754.637C748.830,-755.500,747.484,-755.500,744.791,-755.500ZZ" style="fill:#9a9a9a;fill-opacity:0.25">
          </path>
        </g>
        <g>
          <g>
            <path d="M744.791,-755.500L457.209,-755.500C454.516,-755.500,453.169,-755.500,452.141,-754.637C451.236,-753.878,450.500,-752.667,450.039,-751.177C449.515,-749.484,449.515,-747.267,449.515,-742.833L449.515,-673.167C449.515,-668.733,449.515,-666.516,450.039,-664.823C450.500,-663.333,451.236,-662.122,452.141,-661.363C453.169,-660.500,454.516,-660.500,457.209,-660.500L564.932,-660.500L637.068,-660.500L744.791,-660.500C747.484,-660.500,748.830,-660.500,749.859,-661.363C750.763,-662.122,751.499,-663.333,751.961,-664.823C752.485,-666.516,752.485,-668.733,752.485,-673.167L752.485,-742.833C752.485,-747.267,752.485,-749.484,751.961,-751.177C751.499,-752.667,750.763,-753.878,749.859,-754.637C748.830,-755.500,747.484,-755.500,744.791,-755.500ZZ" style="fill:none;fill-opacity:none;stroke-width:8;stroke:#656565;stroke-opacity:1;stroke-linecap:round">
            </path>
          </g>
        </g>
      </g>
    </g>
  </g>
</svg>