<svg width="400" xmlns="http://www.w3.org/2000/svg" height="300" viewBox="-1035 -1585 400 300" style="-webkit-print-color-adjust::exact" xmlns:xlink="http://www.w3.org/1999/xlink" fill="none" version="1.1">
  <g style="fill:#000000" xml:space="preserve" rx="0" ry="0">
    <g style="display:none">
      <g>
        <rect rx="0" ry="0" x="-1035" y="-1585" transform="matrix(1.000000, 0.000000, 0.000000, 1.000000, 0.000000, 0.000000)" width="400" height="300" style="fill-rule:evenodd;clip-rule:evenodd;stroke-linejoin:round;stroke-miterlimit:1.5;fill:none" fill="none">
        </rect>
      </g>
    </g>
    <g>
      <g>
        <rect rx="0" ry="0" x="-1035" y="-1585" transform="matrix(1.000000, 0.000000, 0.000000, 1.000000, 0.000000, 0.000000)" width="400" height="300" style="fill-rule:evenodd;clip-rule:evenodd;stroke-linejoin:round;stroke-miterlimit:1.5;fill:#f2f2f2">
        </rect>
      </g>
    </g>
    <g rx="0" ry="0">
      <g>
        <g>
          <path d="M-985.000,-1355.378L-685.000,-1355.378" style="fill-rule:evenodd;clip-rule:evenodd;stroke-linejoin:round;stroke-miterlimit:1.5;fill:none">
          </path>
        </g>
        <g style="fill-rule:evenodd;clip-rule:evenodd;stroke-linejoin:round;stroke-miterlimit:1.5;fill:none">
          <g>
            <path d="M-985.000,-1355.378L-685.000,-1355.378" style="fill:none;fill-opacity:none;stroke-width:2.5;stroke:#bfbfbf;stroke-opacity:1">
            </path>
          </g>
        </g>
      </g>
      <g>
        <g>
          <path d="M-985.000,-1335.000L-838.180,-1335.000" style="fill-rule:evenodd;clip-rule:evenodd;stroke-linejoin:round;stroke-miterlimit:1.5;fill:none">
          </path>
        </g>
        <g style="fill-rule:evenodd;clip-rule:evenodd;stroke-linejoin:round;stroke-miterlimit:1.5;fill:none">
          <g>
            <path d="M-985.000,-1335.000L-838.180,-1335.000" style="fill:none;fill-opacity:none;stroke-width:2.5;stroke:#bfbfbf;stroke-opacity:1">
            </path>
          </g>
        </g>
      </g>
    </g>
    <g rx="0" ry="0">
      <g>
        <g>
          <path d="M-985.000,-1535.000L-685.000,-1535.000" style="fill-rule:evenodd;clip-rule:evenodd;stroke-linejoin:round;stroke-miterlimit:1.5;fill:none">
          </path>
        </g>
        <g style="fill-rule:evenodd;clip-rule:evenodd;stroke-linejoin:round;stroke-miterlimit:1.5;fill:none">
          <g>
            <path d="M-985.000,-1535.000L-685.000,-1535.000" style="fill:none;fill-opacity:none;stroke-width:2.5;stroke:#bfbfbf;stroke-opacity:1">
            </path>
          </g>
        </g>
      </g>
      <g>
        <g>
          <path d="M-985.000,-1514.622L-786.639,-1514.622" style="fill-rule:evenodd;clip-rule:evenodd;stroke-linejoin:round;stroke-miterlimit:1.5;fill:none">
          </path>
        </g>
        <g style="fill-rule:evenodd;clip-rule:evenodd;stroke-linejoin:round;stroke-miterlimit:1.5;fill:none">
          <g>
            <path d="M-985.000,-1514.622L-786.639,-1514.622" style="fill:none;fill-opacity:none;stroke-width:2.5;stroke:#bfbfbf;stroke-opacity:1">
            </path>
          </g>
        </g>
      </g>
    </g>
    <g rx="0" ry="0">
      <g rx="0" ry="0">
        <g>
          <g>
            <path d="M-982.000,-1406.500L-895.000,-1406.500" fill="none" style="fill:none">
            </path>
          </g>
          <g fill="none">
            <g>
              <path d="M-982.000,-1406.500L-895.000,-1406.500" style="fill:none;fill-opacity:none;stroke-width:4;stroke:#666666;stroke-opacity:1">
              </path>
            </g>
          </g>
        </g>
        <g>
          <g>
            <path d="M-982.000,-1391.500L-902.000,-1391.500" fill="none" style="fill:none">
            </path>
          </g>
          <g fill="none">
            <g>
              <path d="M-982.000,-1391.500L-902.000,-1391.500" style="fill:none;fill-opacity:none;stroke-width:4;stroke:#666666;stroke-opacity:1">
              </path>
            </g>
          </g>
        </g>
        <g>
          <g>
            <rect rx="2" ry="2" x="-982.0000000000001" y="-1479.5" transform="matrix(1.000000, 0.000000, 0.000000, 1.000000, 0.000000, 0.000000)" width="87" height="53" style="fill:#d6d6d6;fill-opacity:1">
            </rect>
          </g>
          <g>
            <g>
              <rect rx="2" ry="2" x="-982.0000000000001" y="-1479.5" transform="matrix(1.000000, 0.000000, 0.000000, 1.000000, 0.000000, 0.000000)" width="87" height="53" style="fill:none;fill-opacity:none;stroke-width:4;stroke:#666666;stroke-opacity:1">
              </rect>
            </g>
          </g>
        </g>
        <g rx="0" ry="0">
          <g>
            <g>
              <ellipse cx="-938.5000000000001" cy="-1458.9735088303896" rx="8.666666666666629" ry="8.79706764411867" transform="matrix(1.000000, 0.000000, 0.000000, 1.000000, 0.000000, 0.000000)" fill="none" style="fill:none">
              </ellipse>
            </g>
            <g fill="none">
              <g>
                <ellipse cx="-938.5000000000001" cy="-1458.9735088303896" rx="8.666666666666629" ry="8.79706764411867" transform="matrix(1.000000, 0.000000, 0.000000, 1.000000, 0.000000, 0.000000)" style="fill:none;fill-opacity:none;stroke-width:4;stroke:#666666;stroke-opacity:1">
                </ellipse>
              </g>
            </g>
          </g>
          <g>
            <g>
              <path d="M-958.722,-1429.063C-958.722,-1432.348,-958.722,-1433.990,-958.092,-1435.245C-957.539,-1436.348,-956.655,-1437.246,-955.568,-1437.808C-954.332,-1438.447,-952.714,-1438.447,-949.478,-1438.447L-927.522,-1438.447C-924.286,-1438.447,-922.668,-1438.447,-921.432,-1437.808C-920.345,-1437.246,-919.461,-1436.348,-918.908,-1435.245C-918.278,-1433.990,-918.278,-1432.348,-918.278,-1429.063L-918.278,-1426.718L-958.722,-1426.718L-958.722,-1429.063ZZ" fill="none" style="fill:none">
              </path>
            </g>
            <g fill="none">
              <g>
                <path d="M-958.722,-1429.063C-958.722,-1432.348,-958.722,-1433.990,-958.092,-1435.245C-957.539,-1436.348,-956.655,-1437.246,-955.568,-1437.808C-954.332,-1438.447,-952.714,-1438.447,-949.478,-1438.447L-927.522,-1438.447C-924.286,-1438.447,-922.668,-1438.447,-921.432,-1437.808C-920.345,-1437.246,-919.461,-1436.348,-918.908,-1435.245C-918.278,-1433.990,-918.278,-1432.348,-918.278,-1429.063L-918.278,-1426.718L-958.722,-1426.718L-958.722,-1429.063ZZ" style="fill:none;fill-opacity:none;stroke-width:4;stroke:#666666;stroke-opacity:1">
                </path>
              </g>
            </g>
          </g>
        </g>
      </g>
      <g rx="0" ry="0">
        <g>
          <g>
            <path d="M-878.500,-1406.500L-791.500,-1406.500" fill="none" style="fill:none">
            </path>
          </g>
          <g fill="none">
            <g>
              <path d="M-878.500,-1406.500L-791.500,-1406.500" style="fill:none;fill-opacity:none;stroke-width:4;stroke:#666666;stroke-opacity:1">
              </path>
            </g>
          </g>
        </g>
        <g>
          <g>
            <path d="M-878.500,-1391.500L-798.500,-1391.500" fill="none" style="fill:none">
            </path>
          </g>
          <g fill="none">
            <g>
              <path d="M-878.500,-1391.500L-798.500,-1391.500" style="fill:none;fill-opacity:none;stroke-width:4;stroke:#666666;stroke-opacity:1">
              </path>
            </g>
          </g>
        </g>
        <g>
          <g>
            <rect rx="2" ry="2" x="-878.5" y="-1479.5" transform="matrix(1.000000, 0.000000, 0.000000, 1.000000, 0.000000, 0.000000)" width="87" height="53" style="fill:#d6d6d6;fill-opacity:1">
            </rect>
          </g>
          <g>
            <g>
              <rect rx="2" ry="2" x="-878.5" y="-1479.5" transform="matrix(1.000000, 0.000000, 0.000000, 1.000000, 0.000000, 0.000000)" width="87" height="53" style="fill:none;fill-opacity:none;stroke-width:4;stroke:#666666;stroke-opacity:1">
              </rect>
            </g>
          </g>
        </g>
        <g rx="0" ry="0">
          <g>
            <g>
              <ellipse cx="-835.0000000000001" cy="-1458.9735088303896" rx="8.666666666666629" ry="8.79706764411867" transform="matrix(1.000000, 0.000000, 0.000000, 1.000000, 0.000000, 0.000000)" fill="none" style="fill:none">
              </ellipse>
            </g>
            <g fill="none">
              <g>
                <ellipse cx="-835.0000000000001" cy="-1458.9735088303896" rx="8.666666666666629" ry="8.79706764411867" transform="matrix(1.000000, 0.000000, 0.000000, 1.000000, 0.000000, 0.000000)" style="fill:none;fill-opacity:none;stroke-width:4;stroke:#666666;stroke-opacity:1">
                </ellipse>
              </g>
            </g>
          </g>
          <g>
            <g>
              <path d="M-855.222,-1429.063C-855.222,-1432.348,-855.222,-1433.990,-854.592,-1435.245C-854.039,-1436.348,-853.155,-1437.246,-852.068,-1437.808C-850.832,-1438.447,-849.214,-1438.447,-845.978,-1438.447L-824.022,-1438.447C-820.786,-1438.447,-819.168,-1438.447,-817.932,-1437.808C-816.845,-1437.246,-815.961,-1436.348,-815.408,-1435.245C-814.778,-1433.990,-814.778,-1432.348,-814.778,-1429.063L-814.778,-1426.718L-855.222,-1426.718L-855.222,-1429.063ZZ" fill="none" style="fill:none">
              </path>
            </g>
            <g fill="none">
              <g>
                <path d="M-855.222,-1429.063C-855.222,-1432.348,-855.222,-1433.990,-854.592,-1435.245C-854.039,-1436.348,-853.155,-1437.246,-852.068,-1437.808C-850.832,-1438.447,-849.214,-1438.447,-845.978,-1438.447L-824.022,-1438.447C-820.786,-1438.447,-819.168,-1438.447,-817.932,-1437.808C-816.845,-1437.246,-815.961,-1436.348,-815.408,-1435.245C-814.778,-1433.990,-814.778,-1432.348,-814.778,-1429.063L-814.778,-1426.718L-855.222,-1426.718L-855.222,-1429.063ZZ" style="fill:none;fill-opacity:none;stroke-width:4;stroke:#666666;stroke-opacity:1">
                </path>
              </g>
            </g>
          </g>
        </g>
      </g>
      <g rx="0" ry="0">
        <g>
          <g>
            <path d="M-775.000,-1406.500L-688.000,-1406.500" fill="none" style="fill:none">
            </path>
          </g>
          <g fill="none">
            <g>
              <path d="M-775.000,-1406.500L-688.000,-1406.500" style="fill:none;fill-opacity:none;stroke-width:4;stroke:#666666;stroke-opacity:1">
              </path>
            </g>
          </g>
        </g>
        <g>
          <g>
            <path d="M-775.000,-1391.500L-695.000,-1391.500" fill="none" style="fill:none">
            </path>
          </g>
          <g fill="none">
            <g>
              <path d="M-775.000,-1391.500L-695.000,-1391.500" style="fill:none;fill-opacity:none;stroke-width:4;stroke:#666666;stroke-opacity:1">
              </path>
            </g>
          </g>
        </g>
        <g>
          <g>
            <rect rx="2" ry="2" x="-775" y="-1479.5" transform="matrix(1.000000, 0.000000, 0.000000, 1.000000, 0.000000, 0.000000)" width="87" height="53" style="fill:#d6d6d6;fill-opacity:1">
            </rect>
          </g>
          <g>
            <g>
              <rect rx="2" ry="2" x="-775" y="-1479.5" transform="matrix(1.000000, 0.000000, 0.000000, 1.000000, 0.000000, 0.000000)" width="87" height="53" style="fill:none;fill-opacity:none;stroke-width:4;stroke:#666666;stroke-opacity:1">
              </rect>
            </g>
          </g>
        </g>
        <g rx="0" ry="0">
          <g>
            <g>
              <ellipse cx="-731.5000000000001" cy="-1458.9735088303896" rx="8.666666666666629" ry="8.79706764411867" transform="matrix(1.000000, 0.000000, 0.000000, 1.000000, 0.000000, 0.000000)" fill="none" style="fill:none">
              </ellipse>
            </g>
            <g fill="none">
              <g>
                <ellipse cx="-731.5000000000001" cy="-1458.9735088303896" rx="8.666666666666629" ry="8.79706764411867" transform="matrix(1.000000, 0.000000, 0.000000, 1.000000, 0.000000, 0.000000)" style="fill:none;fill-opacity:none;stroke-width:4;stroke:#666666;stroke-opacity:1">
                </ellipse>
              </g>
            </g>
          </g>
          <g>
            <g>
              <path d="M-751.722,-1429.063C-751.722,-1432.348,-751.722,-1433.990,-751.092,-1435.245C-750.539,-1436.348,-749.655,-1437.246,-748.568,-1437.808C-747.332,-1438.447,-745.714,-1438.447,-742.478,-1438.447L-720.522,-1438.447C-717.286,-1438.447,-715.668,-1438.447,-714.432,-1437.808C-713.345,-1437.246,-712.461,-1436.348,-711.908,-1435.245C-711.278,-1433.990,-711.278,-1432.348,-711.278,-1429.063L-711.278,-1426.718L-751.722,-1426.718L-751.722,-1429.063ZZ" fill="none" style="fill:none">
              </path>
            </g>
            <g fill="none">
              <g>
                <path d="M-751.722,-1429.063C-751.722,-1432.348,-751.722,-1433.990,-751.092,-1435.245C-750.539,-1436.348,-749.655,-1437.246,-748.568,-1437.808C-747.332,-1438.447,-745.714,-1438.447,-742.478,-1438.447L-720.522,-1438.447C-717.286,-1438.447,-715.668,-1438.447,-714.432,-1437.808C-713.345,-1437.246,-712.461,-1436.348,-711.908,-1435.245C-711.278,-1433.990,-711.278,-1432.348,-711.278,-1429.063L-711.278,-1426.718L-751.722,-1426.718L-751.722,-1429.063ZZ" style="fill:none;fill-opacity:none;stroke-width:4;stroke:#666666;stroke-opacity:1">
                </path>
              </g>
            </g>
          </g>
        </g>
      </g>
    </g>
  </g>
</svg>