<svg width="400" xmlns="http://www.w3.org/2000/svg" height="300" fill="none"><g xml:space="preserve" style="fill: rgb(0, 0, 0);"><g class="fills"><rect width="400" height="300" class="fills" transform="matrix(1.000000, 0.000000, 0.000000, 1.000000, 0.000000, 0.000000)" style="fill-rule: evenodd; clip-rule: evenodd; stroke-linejoin: round; stroke-miterlimit: 1.5; fill: rgb(242, 242, 242);" ry="0" rx="0"/></g><g class="fills"><path d="M50.000,229.622L350.000,229.622" fill="none" class="fills" style="fill: none; fill-rule: evenodd; clip-rule: evenodd; stroke-linejoin: round; stroke-miterlimit: 1.5;"/></g><g class="strokes" style="fill: rgb(0, 0, 0);"><g class="fills"><path d="M50.000,229.622L350.000,229.622" fill="none" class="stroke-shape" style="fill-rule: evenodd; fill: none; stroke-linejoin: round; stroke-miterlimit: 1.5; clip-rule: evenodd;"/></g><g fill="none" class="strokes" style="fill-rule: evenodd; fill: none; stroke-linejoin: round; stroke-miterlimit: 1.5; clip-rule: evenodd;"><path d="M50.000,229.622L350.000,229.622" style="fill: none; stroke-width: 2.5; stroke: rgb(191, 191, 191); stroke-opacity: 1;" class="stroke-shape"/></g></g><g class="strokes" style="fill: rgb(0, 0, 0);"><g class="fills"><path d="M50.000,209.240L350.000,209.240" fill="none" class="stroke-shape" style="fill-rule: evenodd; fill: none; stroke-linejoin: round; stroke-miterlimit: 1.5; clip-rule: evenodd;"/></g><g fill="none" class="strokes" style="fill-rule: evenodd; fill: none; stroke-linejoin: round; stroke-miterlimit: 1.5; clip-rule: evenodd;"><path d="M50.000,209.240L350.000,209.240" style="fill: none; stroke-width: 2.5; stroke: rgb(191, 191, 191); stroke-opacity: 1;" class="stroke-shape"/></g></g><g class="fills"><path d="M50.000,250.000L196.820,250.000" fill="none" class="fills" style="fill: none; fill-rule: evenodd; clip-rule: evenodd; stroke-linejoin: round; stroke-miterlimit: 1.5;"/></g><g class="strokes" style="fill: rgb(0, 0, 0);"><g class="fills"><path d="M50.000,250.000L196.820,250.000" fill="none" class="stroke-shape" style="fill-rule: evenodd; fill: none; stroke-linejoin: round; stroke-miterlimit: 1.5; clip-rule: evenodd;"/></g><g fill="none" class="strokes" style="fill-rule: evenodd; fill: none; stroke-linejoin: round; stroke-miterlimit: 1.5; clip-rule: evenodd;"><path d="M50.000,250.000L196.820,250.000" style="fill: none; stroke-width: 2.5; stroke: rgb(191, 191, 191); stroke-opacity: 1;" class="stroke-shape"/></g></g><ellipse cx="73" cy="152" rx="10" ry="9" transform="matrix(1.000000, 0.000000, 0.000000, 1.000000, 0.000000, 0.000000)" style="fill: rgb(102, 102, 102); fill-opacity: 1;" class="fills"/><ellipse cx="139" cy="152" rx="10" ry="9" transform="matrix(1.000000, 0.000000, 0.000000, 1.000000, 0.000000, 0.000000)" style="fill: rgb(102, 102, 102); fill-opacity: 1;" class="fills"/><g class="fills"><path d="M73.000,143.000L139.000,143.000L139.000,161.000L73.000,161.000L73.000,143.000Z" class="fills" style="fill: rgb(102, 102, 102); fill-opacity: 1;"/></g><ellipse cx="170.5" cy="152" rx="10" ry="9" transform="matrix(1.000000, 0.000000, 0.000000, 1.000000, 0.000000, 0.000000)" style="fill: rgb(102, 102, 102); fill-opacity: 1;" class="fills"/><ellipse cx="216.5" cy="152" rx="10" ry="9" transform="matrix(1.000000, 0.000000, 0.000000, 1.000000, 0.000000, 0.000000)" style="fill: rgb(102, 102, 102); fill-opacity: 1;" class="fills"/><g class="fills"><path d="M170.500,143.000L216.500,143.000L216.500,161.000L170.500,161.000L170.500,143.000Z" class="fills" style="fill: rgb(102, 102, 102); fill-opacity: 1;"/></g><ellipse cx="248" cy="152" rx="10" ry="9" transform="matrix(1.000000, 0.000000, 0.000000, 1.000000, 0.000000, 0.000000)" style="fill: rgb(102, 102, 102); fill-opacity: 1;" class="fills"/><ellipse cx="294" cy="152" rx="10" ry="9" transform="matrix(1.000000, 0.000000, 0.000000, 1.000000, 0.000000, 0.000000)" style="fill: rgb(102, 102, 102); fill-opacity: 1;" class="fills"/><g class="fills"><path d="M248.000,143.000L294.000,143.000L294.000,161.000L248.000,161.000L248.000,143.000Z" class="fills" style="fill: rgb(102, 102, 102); fill-opacity: 1;"/></g><g class="fills"><path d="M50.000,50.000L350.000,50.000" fill="none" class="fills" style="fill: none; fill-rule: evenodd; clip-rule: evenodd; stroke-linejoin: round; stroke-miterlimit: 1.5;"/></g><g class="strokes" style="fill: rgb(0, 0, 0);"><g class="fills"><path d="M50.000,50.000L350.000,50.000" fill="none" class="stroke-shape" style="fill-rule: evenodd; fill: none; stroke-linejoin: round; stroke-miterlimit: 1.5; clip-rule: evenodd;"/></g><g fill="none" class="strokes" style="fill-rule: evenodd; fill: none; stroke-linejoin: round; stroke-miterlimit: 1.5; clip-rule: evenodd;"><path d="M50.000,50.000L350.000,50.000" style="fill: none; stroke-width: 2.5; stroke: rgb(191, 191, 191); stroke-opacity: 1;" class="stroke-shape"/></g></g><g class="fills"><path d="M50.000,70.378L248.361,70.378" fill="none" class="fills" style="fill: none; fill-rule: evenodd; clip-rule: evenodd; stroke-linejoin: round; stroke-miterlimit: 1.5;"/></g><g class="strokes" style="fill: rgb(0, 0, 0);"><g class="fills"><path d="M50.000,90.760L248.361,90.760" fill="none" class="stroke-shape" style="fill-rule: evenodd; fill: none; stroke-linejoin: round; stroke-miterlimit: 1.5; clip-rule: evenodd;"/></g><g fill="none" class="strokes" style="fill-rule: evenodd; fill: none; stroke-linejoin: round; stroke-miterlimit: 1.5; clip-rule: evenodd;"><path d="M50.000,90.760L248.361,90.760" style="fill: none; stroke-width: 2.5; stroke: rgb(191, 191, 191); stroke-opacity: 1;" class="stroke-shape"/></g></g><g class="strokes" style="fill: rgb(0, 0, 0);"><g class="fills"><path d="M50.000,70.378L350.000,70.378" fill="none" class="stroke-shape" style="fill-rule: evenodd; fill: none; stroke-linejoin: round; stroke-miterlimit: 1.5; clip-rule: evenodd;"/></g><g fill="none" class="strokes" style="fill-rule: evenodd; fill: none; stroke-linejoin: round; stroke-miterlimit: 1.5; clip-rule: evenodd;"><path d="M50.000,70.378L350.000,70.378" style="fill: none; stroke-width: 2.5; stroke: rgb(191, 191, 191); stroke-opacity: 1;" class="stroke-shape"/></g></g></g></svg>