<svg width="400" xmlns="http://www.w3.org/2000/svg" height="300" viewBox="390 -491 400 300" style="-webkit-print-color-adjust::exact" xmlns:xlink="http://www.w3.org/1999/xlink" fill="none" version="1.1">
  <g style="fill:#000000" xml:space="preserve" rx="0" ry="0">
    <g style="display:none">
      <g>
        <rect rx="0" ry="0" x="390" y="-491" transform="matrix(1.000000, 0.000000, 0.000000, 1.000000, 0.000000, 0.000000)" width="400" height="300" style="fill-rule:evenodd;clip-rule:evenodd;stroke-linejoin:round;stroke-miterlimit:1.5;fill:none" fill="none">
        </rect>
      </g>
    </g>
    <g>
      <g>
        <rect rx="0" ry="0" x="390" y="-491" transform="matrix(1.000000, 0.000000, 0.000000, 1.000000, 0.000000, 0.000000)" width="400" height="300" style="fill-rule:evenodd;clip-rule:evenodd;stroke-linejoin:round;stroke-miterlimit:1.5;fill:#f2f2f2">
        </rect>
      </g>
    </g>
    <g style="fill:#000000" rx="0" ry="0">
      <g>
        <g>
          <path d="M440.000,-440.593L740.000,-440.593" style="fill-rule:evenodd;clip-rule:evenodd;stroke-linejoin:round;stroke-miterlimit:1.5;fill:none">
          </path>
        </g>
        <g style="fill-rule:evenodd;clip-rule:evenodd;stroke-linejoin:round;stroke-miterlimit:1.5;fill:none">
          <g>
            <path d="M440.000,-440.593L740.000,-440.593" style="fill:none;fill-opacity:none;stroke-width:2.5;stroke:#bfbfbf;stroke-opacity:1">
            </path>
          </g>
        </g>
      </g>
      <g>
        <g>
          <path d="M440.000,-420.215L638.361,-420.215" style="fill-rule:evenodd;clip-rule:evenodd;stroke-linejoin:round;stroke-miterlimit:1.5;fill:none">
          </path>
        </g>
        <g style="fill-rule:evenodd;clip-rule:evenodd;stroke-linejoin:round;stroke-miterlimit:1.5;fill:none">
          <g>
            <path d="M440.000,-420.215L638.361,-420.215" style="fill:none;fill-opacity:none;stroke-width:2.5;stroke:#bfbfbf;stroke-opacity:1">
            </path>
          </g>
        </g>
      </g>
    </g>
    <g style="fill:#000000" rx="0" ry="0">
      <g>
        <g>
          <path d="M440.000,-260.944L740.000,-260.944" style="fill-rule:evenodd;clip-rule:evenodd;stroke-linejoin:round;stroke-miterlimit:1.5;fill:none">
          </path>
        </g>
        <g style="fill-rule:evenodd;clip-rule:evenodd;stroke-linejoin:round;stroke-miterlimit:1.5;fill:none">
          <g>
            <path d="M440.000,-260.944L740.000,-260.944" style="fill:none;fill-opacity:none;stroke-width:2.5;stroke:#bfbfbf;stroke-opacity:1">
            </path>
          </g>
        </g>
      </g>
      <g>
        <g>
          <path d="M440.000,-240.566L638.361,-240.566" style="fill-rule:evenodd;clip-rule:evenodd;stroke-linejoin:round;stroke-miterlimit:1.5;fill:none">
          </path>
        </g>
        <g style="fill-rule:evenodd;clip-rule:evenodd;stroke-linejoin:round;stroke-miterlimit:1.5;fill:none">
          <g>
            <path d="M440.000,-240.566L638.361,-240.566" style="fill:none;fill-opacity:none;stroke-width:2.5;stroke:#bfbfbf;stroke-opacity:1">
            </path>
          </g>
        </g>
      </g>
    </g>
    <g>
      <g>
        <path d="M575.750,-345.750L575.750,-336.250L566.250,-336.250L566.250,-345.750L575.750,-345.750ZM594.750,-345.750L594.750,-336.250L585.250,-336.250L585.250,-345.750L594.750,-345.750ZM613.750,-345.750L613.750,-336.250L604.250,-336.250L604.250,-345.750L613.750,-345.750ZM623.250,-379.000C628.497,-379.000,632.750,-374.747,632.750,-369.500L632.750,-303.000C632.750,-297.753,628.497,-293.500,623.250,-293.500L556.750,-293.500C551.477,-293.500,547.250,-297.775,547.250,-303.000L547.250,-369.500C547.250,-374.747,551.503,-379.000,556.750,-379.000L561.500,-379.000L561.500,-388.500L571.000,-388.500L571.000,-379.000L609.000,-379.000L609.000,-388.500L618.500,-388.500L618.500,-379.000L623.250,-379.000ZM623.250,-303.000L623.250,-355.250L556.750,-355.250L556.750,-303.000L623.250,-303.000ZM575.750,-326.750L575.750,-317.250L566.250,-317.250L566.250,-326.750L575.750,-326.750ZM594.750,-326.750L594.750,-317.250L585.250,-317.250L585.250,-326.750L594.750,-326.750ZM613.750,-326.750L613.750,-317.250L604.250,-317.250L604.250,-326.750L613.750,-326.750ZZ" style="fill:#666666;fill-opacity:1">
        </path>
      </g>
    </g>
  </g>
</svg>