<svg width="400" xmlns="http://www.w3.org/2000/svg" height="300" id="screenshot-d1c2f5fa-a9e8-8020-8005-eb0686727e7e" viewBox="404 595 400 300" style="-webkit-print-color-adjust::exact" xmlns:xlink="http://www.w3.org/1999/xlink" fill="none" version="1.1">
  <g id="shape-d1c2f5fa-a9e8-8020-8005-eb0686727e7e" style="fill:#000000" xml:space="preserve" rx="0" ry="0">
    <g id="shape-d1c2f5fa-a9e8-8020-8005-eb0686727e7f">
      <g class="fills" id="fills-d1c2f5fa-a9e8-8020-8005-eb0686727e7f">
        <rect rx="0" ry="0" x="404" y="595" transform="matrix(1.000000, 0.000000, 0.000000, 1.000000, 0.000000, 0.000000)" width="400" height="300" style="fill-rule:evenodd;clip-rule:evenodd;stroke-linejoin:round;stroke-miterlimit:1.5;fill:#f2f2f2">
        </rect>
      </g>
    </g>
    <g id="shape-d1c2f5fa-a9e8-8020-8005-eb0686727e80" rx="0" ry="0">
      <g id="shape-d1c2f5fa-a9e8-8020-8005-eb0686727e81" rx="0" ry="0">
        <g id="shape-d1c2f5fa-a9e8-8020-8005-eb0686727e84">
          <g class="fills" id="fills-d1c2f5fa-a9e8-8020-8005-eb0686727e84">
            <path d="M456.500,824.995L751.500,824.995" style="fill-rule:evenodd;clip-rule:evenodd;stroke-linejoin:round;stroke-miterlimit:1.5;fill:none">
            </path>
          </g>
          <g style="fill-rule:evenodd;clip-rule:evenodd;stroke-linejoin:round;stroke-miterlimit:1.5;fill:none" id="strokes-d1c2f5fa-a9e8-8020-8005-eb06e8a414eb-d1c2f5fa-a9e8-8020-8005-eb0686727e84" class="strokes">
            <g class="stroke-shape">
              <path d="M456.500,824.995L751.500,824.995" style="fill:none;fill-opacity:none;stroke-width:2.5;stroke:#bfbfbf;stroke-opacity:1;stroke-linecap:round">
              </path>
            </g>
          </g>
        </g>
        <g id="shape-d1c2f5fa-a9e8-8020-8005-eb0686727e85">
          <g class="fills" id="fills-d1c2f5fa-a9e8-8020-8005-eb0686727e85">
            <path d="M456.500,844.995L600.500,844.995" style="fill-rule:evenodd;clip-rule:evenodd;stroke-linejoin:round;stroke-miterlimit:1.5;fill:none">
            </path>
          </g>
          <g style="fill-rule:evenodd;clip-rule:evenodd;stroke-linejoin:round;stroke-miterlimit:1.5;fill:none" id="strokes-d1c2f5fa-a9e8-8020-8005-eb06e8a414ec-d1c2f5fa-a9e8-8020-8005-eb0686727e85" class="strokes">
            <g class="stroke-shape">
              <path d="M456.500,844.995L600.500,844.995" style="fill:none;fill-opacity:none;stroke-width:2.5;stroke:#bfbfbf;stroke-opacity:1;stroke-linecap:round">
              </path>
            </g>
          </g>
        </g>
      </g>
      <g id="shape-d1c2f5fa-a9e8-8020-8005-eb0686727e82" rx="0" ry="0">
        <g id="shape-d1c2f5fa-a9e8-8020-8005-eb0686727e86">
          <g class="fills" id="fills-d1c2f5fa-a9e8-8020-8005-eb0686727e86">
            <path d="M456.500,644.995L751.500,644.995" style="fill-rule:evenodd;clip-rule:evenodd;stroke-linejoin:round;stroke-miterlimit:1.5;fill:none">
            </path>
          </g>
          <g style="fill-rule:evenodd;clip-rule:evenodd;stroke-linejoin:round;stroke-miterlimit:1.5;fill:none" id="strokes-d1c2f5fa-a9e8-8020-8005-eb06e8a5017f-d1c2f5fa-a9e8-8020-8005-eb0686727e86" class="strokes">
            <g class="stroke-shape">
              <path d="M456.500,644.995L751.500,644.995" style="fill:none;fill-opacity:none;stroke-width:2.5;stroke:#bfbfbf;stroke-opacity:1;stroke-linecap:round">
              </path>
            </g>
          </g>
        </g>
        <g id="shape-d1c2f5fa-a9e8-8020-8005-eb0686727e87">
          <g class="fills" id="fills-d1c2f5fa-a9e8-8020-8005-eb0686727e87">
            <path d="M456.500,664.995L683.500,664.995" style="fill-rule:evenodd;clip-rule:evenodd;stroke-linejoin:round;stroke-miterlimit:1.5;fill:none">
            </path>
          </g>
          <g style="fill-rule:evenodd;clip-rule:evenodd;stroke-linejoin:round;stroke-miterlimit:1.5;fill:none" id="strokes-d1c2f5fa-a9e8-8020-8005-eb06e8a50180-d1c2f5fa-a9e8-8020-8005-eb0686727e87" class="strokes">
            <g class="stroke-shape">
              <path d="M456.500,664.995L683.500,664.995" style="fill:none;fill-opacity:none;stroke-width:2.5;stroke:#bfbfbf;stroke-opacity:1;stroke-linecap:round">
              </path>
            </g>
          </g>
        </g>
      </g>
      <g id="shape-d1c2f5fa-a9e8-8020-8005-eb0686727e83" rx="0" ry="0">
        <g id="shape-d1c2f5fa-a9e8-8020-8005-eb0686727e88" rx="0" ry="0">
          <g id="shape-d1c2f5fa-a9e8-8020-8005-eb0686727e8a" style="fill:#000000" width="128" height="23" rx="0" ry="0">
            <g id="shape-d1c2f5fa-a9e8-8020-8005-eb0686727e8b">
              <g class="fills" id="fills-d1c2f5fa-a9e8-8020-8005-eb0686727e8b">
                <path d="M598.000,744.995L734.177,744.995" fill="none" style="fill:none">
                </path>
              </g>
              <g fill="none" id="strokes-d1c2f5fa-a9e8-8020-8005-eb06e8a56178-d1c2f5fa-a9e8-8020-8005-eb0686727e8b" class="strokes">
                <g class="stroke-shape">
                  <path d="M598.000,744.995L734.177,744.995" style="fill:none;fill-opacity:none;stroke-width:9;stroke:#666666;stroke-opacity:1">
                  </path>
                </g>
              </g>
            </g>
            <g id="shape-d1c2f5fa-a9e8-8020-8005-eb0686727e8c">
              <g class="fills" id="fills-d1c2f5fa-a9e8-8020-8005-eb0686727e8c">
                <path d="M598.000,725.995L754.000,725.995" fill="none" style="fill:none">
                </path>
              </g>
              <g fill="none" id="strokes-d1c2f5fa-a9e8-8020-8005-eb06e8a56179-d1c2f5fa-a9e8-8020-8005-eb0686727e8c" class="strokes">
                <g class="stroke-shape">
                  <path d="M598.000,725.995L754.000,725.995" style="fill:none;fill-opacity:none;stroke-width:9;stroke:#666666;stroke-opacity:1">
                  </path>
                </g>
              </g>
            </g>
            <g id="shape-d1c2f5fa-a9e8-8020-8005-eb0686727e8d">
              <g class="fills" id="fills-d1c2f5fa-a9e8-8020-8005-eb0686727e8d">
                <path d="M598.000,763.995L746.243,763.995" fill="none" style="fill:none">
                </path>
              </g>
              <g fill="none" id="strokes-d1c2f5fa-a9e8-8020-8005-eb06e8a58d2f-d1c2f5fa-a9e8-8020-8005-eb0686727e8d" class="strokes">
                <g class="stroke-shape">
                  <path d="M598.000,763.995L746.243,763.995" style="fill:none;fill-opacity:none;stroke-width:9;stroke:#666666;stroke-opacity:1">
                  </path>
                </g>
              </g>
            </g>
          </g>
        </g>
        <g id="shape-d1c2f5fa-a9e8-8020-8005-eb0686727e89" rx="0" ry="0">
          <g id="shape-d1c2f5fa-a9e8-8020-8005-eb0686727e8e">
            <g class="fills" id="fills-d1c2f5fa-a9e8-8020-8005-eb0686727e8e">
              <path d="M498.000,724.870C498.000,728.308,496.775,731.229,494.325,733.635C491.875,736.042,488.899,737.244,485.400,737.244C481.900,737.244,478.924,736.042,476.474,733.635C474.024,731.229,472.799,728.308,472.799,724.870C472.799,721.432,474.024,718.510,476.474,716.104C478.924,713.698,481.900,712.495,485.400,712.495C488.899,712.495,491.875,713.698,494.325,716.104C496.775,718.510,498.000,721.432,498.000,724.870ZZM565.201,749.620L565.201,778.495L472.799,778.495L472.799,766.120L493.799,745.495L504.299,755.808L537.900,722.808L565.201,749.620ZZM571.500,704.244L466.500,704.244C465.930,704.244,465.439,704.449,465.023,704.857C464.608,705.265,464.399,705.749,464.399,706.308L464.399,784.682C464.399,785.241,464.608,785.724,465.023,786.133C465.439,786.541,465.930,786.744,466.500,786.744L571.500,786.744C572.070,786.744,572.561,786.541,572.977,786.133C573.392,785.724,573.601,785.241,573.601,784.682L573.601,706.308C573.601,705.749,573.392,705.265,572.977,704.857C572.561,704.449,572.070,704.244,571.500,704.244ZZM582.000,706.308L582.000,784.682C582.000,787.518,580.972,789.946,578.916,791.966C576.860,793.985,574.389,794.995,571.500,794.995L466.500,794.995C463.611,794.995,461.140,793.985,459.084,791.966C457.028,789.946,456.000,787.518,456.000,784.682L456.000,706.308C456.000,703.471,457.028,701.044,459.084,699.024C461.140,697.005,463.611,695.995,466.500,695.995L571.500,695.995C574.389,695.995,576.860,697.005,578.916,699.024C580.972,701.044,582.000,703.471,582.000,706.308ZZ" style="fill-rule:nonzero;clip-rule:evenodd;stroke-linejoin:round;stroke-miterlimit:1.5;fill:#666666">
              </path>
            </g>
          </g>
          <g id="shape-d1c2f5fa-a9e8-8020-8005-eb0686727e8f">
            <g class="fills" id="fills-d1c2f5fa-a9e8-8020-8005-eb0686727e8f">
              <rect rx="9" ry="9" x="456" y="695.995" transform="matrix(1.000000, 0.000000, 0.000000, 1.000000, 0.000000, 0.000000)" width="126" height="99" style="fill:#868686;fill-opacity:0.8">
              </rect>
            </g>
          </g>
          <g id="shape-d1c2f5fa-a9e8-8020-8005-eb0686727e90" rx="0" ry="0">
            <g id="shape-d1c2f5fa-a9e8-8020-8005-eb0686727e91">
              <g class="fills" id="fills-d1c2f5fa-a9e8-8020-8005-eb0686727e91">
                <path d="M479.515,738.027L558.485,738.027" fill="none" style="fill:none">
                </path>
              </g>
              <g fill="none" id="strokes-d1c2f5fa-a9e8-8020-8005-eb06e8a61267-d1c2f5fa-a9e8-8020-8005-eb0686727e91" class="strokes">
                <g class="stroke-shape">
                  <path d="M479.515,738.027L558.485,738.027" style="fill:none;fill-opacity:none;stroke-width:5;stroke:#ffffff;stroke-opacity:1">
                  </path>
                </g>
              </g>
            </g>
            <g id="shape-d1c2f5fa-a9e8-8020-8005-eb0686727e92">
              <g class="fills" id="fills-d1c2f5fa-a9e8-8020-8005-eb0686727e92">
                <path d="M484.515,752.462L553.485,752.462" fill="none" style="fill:none">
                </path>
              </g>
              <g fill="none" id="strokes-d1c2f5fa-a9e8-8020-8005-eb06e8a61268-d1c2f5fa-a9e8-8020-8005-eb0686727e92" class="strokes">
                <g class="stroke-shape">
                  <path d="M484.515,752.462L553.485,752.462" style="fill:none;fill-opacity:none;stroke-width:5;stroke:#ffffff;stroke-opacity:1">
                  </path>
                </g>
              </g>
            </g>
          </g>
        </g>
      </g>
    </g>
  </g>
</svg>