<svg width="400" xmlns="http://www.w3.org/2000/svg" height="300" id="screenshot-b4bf6f09-4ce5-8017-8005-eaffade17eb0" viewBox="-71 595 400 300" style="-webkit-print-color-adjust::exact" xmlns:xlink="http://www.w3.org/1999/xlink" fill="none" version="1.1">
  <g id="shape-b4bf6f09-4ce5-8017-8005-eaffade17eb0" style="fill:#000000" xml:space="preserve" rx="0" ry="0">
    <g id="shape-b4bf6f09-4ce5-8017-8005-eaffade17eb1">
      <g class="fills" id="fills-b4bf6f09-4ce5-8017-8005-eaffade17eb1">
        <rect rx="0" ry="0" x="-71" y="595" transform="matrix(1.000000, 0.000000, 0.000000, 1.000000, 0.000000, 0.000000)" width="400" height="300" style="fill-rule:evenodd;clip-rule:evenodd;stroke-linejoin:round;stroke-miterlimit:1.5;fill:#f2f2f2">
        </rect>
      </g>
    </g>
    <g id="shape-b4bf6f09-4ce5-8017-8005-eaffade17eb2" rx="0" ry="0">
      <g id="shape-b4bf6f09-4ce5-8017-8005-eaffade17eb3" rx="0" ry="0">
        <g id="shape-b4bf6f09-4ce5-8017-8005-eaffade17eb6">
          <g class="fills" id="fills-b4bf6f09-4ce5-8017-8005-eaffade17eb6">
            <path d="M-18.500,824.995L276.500,824.995" style="fill-rule:evenodd;clip-rule:evenodd;stroke-linejoin:round;stroke-miterlimit:1.5;fill:none">
            </path>
          </g>
          <g style="fill-rule:evenodd;clip-rule:evenodd;stroke-linejoin:round;stroke-miterlimit:1.5;fill:none" id="strokes-d1c2f5fa-a9e8-8020-8005-eb06db968a88-b4bf6f09-4ce5-8017-8005-eaffade17eb6" class="strokes">
            <g class="stroke-shape">
              <path d="M-18.500,824.995L276.500,824.995" style="fill:none;fill-opacity:none;stroke-width:2.5;stroke:#bfbfbf;stroke-opacity:1;stroke-linecap:round">
              </path>
            </g>
          </g>
        </g>
        <g id="shape-b4bf6f09-4ce5-8017-8005-eaffade17eb7">
          <g class="fills" id="fills-b4bf6f09-4ce5-8017-8005-eaffade17eb7">
            <path d="M-18.500,844.995L125.500,844.995" style="fill-rule:evenodd;clip-rule:evenodd;stroke-linejoin:round;stroke-miterlimit:1.5;fill:none">
            </path>
          </g>
          <g style="fill-rule:evenodd;clip-rule:evenodd;stroke-linejoin:round;stroke-miterlimit:1.5;fill:none" id="strokes-d1c2f5fa-a9e8-8020-8005-eb06db968a89-b4bf6f09-4ce5-8017-8005-eaffade17eb7" class="strokes">
            <g class="stroke-shape">
              <path d="M-18.500,844.995L125.500,844.995" style="fill:none;fill-opacity:none;stroke-width:2.5;stroke:#bfbfbf;stroke-opacity:1;stroke-linecap:round">
              </path>
            </g>
          </g>
        </g>
      </g>
      <g id="shape-b4bf6f09-4ce5-8017-8005-eaffade17eb4" rx="0" ry="0">
        <g id="shape-b4bf6f09-4ce5-8017-8005-eaffade17eb8">
          <g class="fills" id="fills-b4bf6f09-4ce5-8017-8005-eaffade17eb8">
            <path d="M-18.500,644.995L276.500,644.995" style="fill-rule:evenodd;clip-rule:evenodd;stroke-linejoin:round;stroke-miterlimit:1.5;fill:none">
            </path>
          </g>
          <g style="fill-rule:evenodd;clip-rule:evenodd;stroke-linejoin:round;stroke-miterlimit:1.5;fill:none" id="strokes-d1c2f5fa-a9e8-8020-8005-eb06db96ed2a-b4bf6f09-4ce5-8017-8005-eaffade17eb8" class="strokes">
            <g class="stroke-shape">
              <path d="M-18.500,644.995L276.500,644.995" style="fill:none;fill-opacity:none;stroke-width:2.5;stroke:#bfbfbf;stroke-opacity:1;stroke-linecap:round">
              </path>
            </g>
          </g>
        </g>
        <g id="shape-b4bf6f09-4ce5-8017-8005-eaffade17eb9">
          <g class="fills" id="fills-b4bf6f09-4ce5-8017-8005-eaffade17eb9">
            <path d="M-18.500,664.995L208.500,664.995" style="fill-rule:evenodd;clip-rule:evenodd;stroke-linejoin:round;stroke-miterlimit:1.5;fill:none">
            </path>
          </g>
          <g style="fill-rule:evenodd;clip-rule:evenodd;stroke-linejoin:round;stroke-miterlimit:1.5;fill:none" id="strokes-d1c2f5fa-a9e8-8020-8005-eb06db96ed2b-b4bf6f09-4ce5-8017-8005-eaffade17eb9" class="strokes">
            <g class="stroke-shape">
              <path d="M-18.500,664.995L208.500,664.995" style="fill:none;fill-opacity:none;stroke-width:2.5;stroke:#bfbfbf;stroke-opacity:1;stroke-linecap:round">
              </path>
            </g>
          </g>
        </g>
      </g>
      <g id="shape-6fd6d984-2451-80ae-8005-eb023946a3c5" rx="0" ry="0">
        <g id="shape-b4bf6f09-4ce5-8017-8005-eb001babaaca" rx="0" ry="0">
          <g id="shape-b4bf6f09-4ce5-8017-8005-eaffade17eb5" style="fill:#000000" width="128" height="23" rx="0" ry="0">
            <g id="shape-b4bf6f09-4ce5-8017-8005-eaffade17ec2">
              <g class="fills" id="fills-b4bf6f09-4ce5-8017-8005-eaffade17ec2">
                <path d="M123.000,744.995L259.177,744.995" fill="none" style="fill:none">
                </path>
              </g>
              <g fill="none" id="strokes-d1c2f5fa-a9e8-8020-8005-eb06db96ed2c-b4bf6f09-4ce5-8017-8005-eaffade17ec2" class="strokes">
                <g class="stroke-shape">
                  <path d="M123.000,744.995L259.177,744.995" style="fill:none;fill-opacity:none;stroke-width:9;stroke:#666666;stroke-opacity:1">
                  </path>
                </g>
              </g>
            </g>
            <g id="shape-b4bf6f09-4ce5-8017-8005-eaffade17ec0">
              <g class="fills" id="fills-b4bf6f09-4ce5-8017-8005-eaffade17ec0">
                <path d="M123.000,725.995L279.000,725.995" fill="none" style="fill:none">
                </path>
              </g>
              <g fill="none" id="strokes-d1c2f5fa-a9e8-8020-8005-eb06db970512-b4bf6f09-4ce5-8017-8005-eaffade17ec0" class="strokes">
                <g class="stroke-shape">
                  <path d="M123.000,725.995L279.000,725.995" style="fill:none;fill-opacity:none;stroke-width:9;stroke:#666666;stroke-opacity:1">
                  </path>
                </g>
              </g>
            </g>
            <g id="shape-b4bf6f09-4ce5-8017-8005-eaffade17ebe">
              <g class="fills" id="fills-b4bf6f09-4ce5-8017-8005-eaffade17ebe">
                <path d="M123.000,763.995L271.243,763.995" fill="none" style="fill:none">
                </path>
              </g>
              <g fill="none" id="strokes-d1c2f5fa-a9e8-8020-8005-eb06db970513-b4bf6f09-4ce5-8017-8005-eaffade17ebe" class="strokes">
                <g class="stroke-shape">
                  <path d="M123.000,763.995L271.243,763.995" style="fill:none;fill-opacity:none;stroke-width:9;stroke:#666666;stroke-opacity:1">
                  </path>
                </g>
              </g>
            </g>
          </g>
        </g>
        <g id="shape-b4bf6f09-4ce5-8017-8005-eb00f3eb15d6" rx="0" ry="0">
          <g id="shape-b4bf6f09-4ce5-8017-8005-eafffb13c256">
            <g class="fills" id="fills-b4bf6f09-4ce5-8017-8005-eafffb13c256">
              <path d="M23.000,724.870C23.000,728.308,21.775,731.229,19.325,733.635C16.875,736.042,13.899,737.244,10.400,737.244C6.900,737.244,3.924,736.042,1.474,733.635C-0.976,731.229,-2.201,728.308,-2.201,724.870C-2.201,721.432,-0.976,718.510,1.474,716.104C3.924,713.698,6.900,712.495,10.400,712.495C13.899,712.495,16.875,713.698,19.325,716.104C21.775,718.510,23.000,721.432,23.000,724.870ZZM90.201,749.620L90.201,778.495L-2.201,778.495L-2.201,766.120L18.799,745.495L29.299,755.808L62.900,722.808L90.201,749.620ZZM96.500,704.244L-8.500,704.244C-9.070,704.244,-9.561,704.449,-9.977,704.857C-10.392,705.265,-10.601,705.749,-10.601,706.308L-10.601,784.682C-10.601,785.241,-10.392,785.724,-9.977,786.133C-9.561,786.541,-9.070,786.744,-8.500,786.744L96.500,786.744C97.070,786.744,97.561,786.541,97.977,786.133C98.392,785.724,98.601,785.241,98.601,784.682L98.601,706.308C98.601,705.749,98.392,705.265,97.977,704.857C97.561,704.449,97.070,704.244,96.500,704.244ZZM107.000,706.308L107.000,784.682C107.000,787.518,105.972,789.946,103.916,791.966C101.860,793.985,99.389,794.995,96.500,794.995L-8.500,794.995C-11.389,794.995,-13.860,793.985,-15.916,791.966C-17.972,789.946,-19.000,787.518,-19.000,784.682L-19.000,706.308C-19.000,703.471,-17.972,701.044,-15.916,699.024C-13.860,697.005,-11.389,695.995,-8.500,695.995L96.500,695.995C99.389,695.995,101.860,697.005,103.916,699.024C105.972,701.044,107.000,703.471,107.000,706.308ZZ" style="fill-rule:nonzero;clip-rule:evenodd;stroke-linejoin:round;stroke-miterlimit:1.5;fill:#666666">
              </path>
            </g>
          </g>
          <g id="shape-b4bf6f09-4ce5-8017-8005-eb002cbf013d">
            <g class="fills" id="fills-b4bf6f09-4ce5-8017-8005-eb002cbf013d">
              <rect rx="9" ry="9" x="-19" y="695.995" transform="matrix(1.000000, 0.000000, 0.000000, 1.000000, 0.000000, 0.000000)" width="126.00000000000001" height="99" style="fill:#eeeeee;fill-opacity:0.8">
              </rect>
            </g>
          </g>
          <g id="shape-d1c2f5fa-a9e8-8020-8005-eb0392d23de1" rx="0" ry="0">
            <g id="shape-d1c2f5fa-a9e8-8020-8005-eb03641fba7f">
              <g class="fills" id="fills-d1c2f5fa-a9e8-8020-8005-eb03641fba7f">
                <path d="M4.515,738.027L83.485,738.027" fill="none" style="fill:none">
                </path>
              </g>
              <g fill="none" id="strokes-d1c2f5fa-a9e8-8020-8005-eb06db974eac-d1c2f5fa-a9e8-8020-8005-eb03641fba7f" class="strokes">
                <g class="stroke-shape">
                  <path d="M4.515,738.027L83.485,738.027" style="fill:none;fill-opacity:none;stroke-width:5;stroke:#666666;stroke-opacity:1">
                  </path>
                </g>
              </g>
            </g>
            <g id="shape-d1c2f5fa-a9e8-8020-8005-eb037a0bb294">
              <g class="fills" id="fills-d1c2f5fa-a9e8-8020-8005-eb037a0bb294">
                <path d="M9.515,752.462L78.485,752.462" fill="none" style="fill:none">
                </path>
              </g>
              <g fill="none" id="strokes-d1c2f5fa-a9e8-8020-8005-eb06db978074-d1c2f5fa-a9e8-8020-8005-eb037a0bb294" class="strokes">
                <g class="stroke-shape">
                  <path d="M9.515,752.462L78.485,752.462" style="fill:none;fill-opacity:none;stroke-width:5;stroke:#666666;stroke-opacity:1">
                  </path>
                </g>
              </g>
            </g>
          </g>
        </g>
      </g>
    </g>
  </g>
</svg>