<svg width="400" xmlns="http://www.w3.org/2000/svg" height="300" id="screenshot-bda89a1b-f805-80dd-8004-db9eca1c0c12" viewBox="-77.667 -1223 400 300" style="-webkit-print-color-adjust::exact" xmlns:xlink="http://www.w3.org/1999/xlink" fill="none" version="1.1">
  <g id="shape-bda89a1b-f805-80dd-8004-db9eca1c0c12" style="fill:#000000" xml:space="preserve" rx="0" ry="0">
    <g id="shape-bda89a1b-f805-80dd-8004-db9eca1c0c13" style="display:none">
      <g class="fills" id="fills-bda89a1b-f805-80dd-8004-db9eca1c0c13">
        <rect rx="0" ry="0" x="-77.6666666666667" y="-1223" transform="matrix(1.000000, 0.000000, 0.000000, 1.000000, 0.000000, 0.000000)" width="400.00000000000006" height="300" style="fill-rule:evenodd;clip-rule:evenodd;stroke-linejoin:round;stroke-miterlimit:1.5;fill:none" fill="none">
        </rect>
      </g>
    </g>
    <g id="shape-bda89a1b-f805-80dd-8004-db9eca1c0c14">
      <g class="fills" id="fills-bda89a1b-f805-80dd-8004-db9eca1c0c14">
        <rect rx="0" ry="0" x="-77.6666666666667" y="-1223" transform="matrix(1.000000, 0.000000, 0.000000, 1.000000, 0.000000, 0.000000)" width="400.00000000000006" height="300" style="fill-rule:evenodd;clip-rule:evenodd;stroke-linejoin:round;stroke-miterlimit:1.5;fill:#f2f2f2">
        </rect>
      </g>
    </g>
    <g id="shape-bda89a1b-f805-80dd-8004-db9eca1c0c15" style="fill:#000000" rx="0" ry="0">
      <g id="shape-bda89a1b-f805-80dd-8004-db9eca1c730e">
        <g class="fills" id="fills-bda89a1b-f805-80dd-8004-db9eca1c730e">
          <path d="M-27.667,-993.378L272.333,-993.378" style="fill-rule:evenodd;clip-rule:evenodd;stroke-linejoin:round;stroke-miterlimit:1.5;fill:none">
          </path>
        </g>
        <g style="fill-rule:evenodd;clip-rule:evenodd;stroke-linejoin:round;stroke-miterlimit:1.5;fill:none" id="strokes-bda89a1b-f805-80dd-8004-db9eca1c730e" class="strokes">
          <g class="stroke-shape">
            <path d="M-27.667,-993.378L272.333,-993.378" style="fill:none;fill-opacity:none;stroke-width:2.5;stroke:#bfbfbf;stroke-opacity:1">
            </path>
          </g>
        </g>
      </g>
      <g id="shape-bda89a1b-f805-80dd-8004-db9eca1c730f">
        <g class="fills" id="fills-bda89a1b-f805-80dd-8004-db9eca1c730f">
          <path d="M-27.667,-973.000L170.695,-973.000" style="fill-rule:evenodd;clip-rule:evenodd;stroke-linejoin:round;stroke-miterlimit:1.5;fill:none">
          </path>
        </g>
        <g style="fill-rule:evenodd;clip-rule:evenodd;stroke-linejoin:round;stroke-miterlimit:1.5;fill:none" id="strokes-bda89a1b-f805-80dd-8004-db9eca1c730f" class="strokes">
          <g class="stroke-shape">
            <path d="M-27.667,-973.000L170.695,-973.000" style="fill:none;fill-opacity:none;stroke-width:2.95;stroke:#bfbfbf;stroke-opacity:1">
            </path>
          </g>
        </g>
      </g>
    </g>
    <g id="shape-bda89a1b-f805-80dd-8004-db9eca1c0c17">
      <g class="fills" id="fills-bda89a1b-f805-80dd-8004-db9eca1c0c17">
        <path d="M-27.667,-1173.000L272.333,-1173.000" style="fill-rule:evenodd;clip-rule:evenodd;stroke-linejoin:round;stroke-miterlimit:1.5;fill:none">
        </path>
      </g>
      <g style="fill-rule:evenodd;clip-rule:evenodd;stroke-linejoin:round;stroke-miterlimit:1.5;fill:none" id="strokes-bda89a1b-f805-80dd-8004-db9eca1c0c17" class="strokes">
        <g class="stroke-shape">
          <path d="M-27.667,-1173.000L272.333,-1173.000" style="fill:none;fill-opacity:none;stroke-width:2.5;stroke:#bfbfbf;stroke-opacity:1">
          </path>
        </g>
      </g>
    </g>
    <g id="shape-bda89a1b-f805-80dd-8004-db9eca1c730d">
      <g class="fills" id="fills-bda89a1b-f805-80dd-8004-db9eca1c730d">
        <path d="M-27.667,-1152.622L170.695,-1152.622" style="fill-rule:evenodd;clip-rule:evenodd;stroke-linejoin:round;stroke-miterlimit:1.5;fill:none">
        </path>
      </g>
      <g style="fill-rule:evenodd;clip-rule:evenodd;stroke-linejoin:round;stroke-miterlimit:1.5;fill:none" id="strokes-bda89a1b-f805-80dd-8004-db9eca1c730d" class="strokes">
        <g class="stroke-shape">
          <path d="M-27.667,-1152.622L170.695,-1152.622" style="fill:none;fill-opacity:none;stroke-width:2.95;stroke:#bfbfbf;stroke-opacity:1">
          </path>
        </g>
      </g>
    </g>
    <g id="shape-bda89a1b-f805-80dd-8004-db9f98f76591" rx="0" ry="0">
      <g id="shape-bda89a1b-f805-80dd-8004-db9eca1c0c16" style="fill:#000000" rx="0" ry="0">
        <g id="shape-bda89a1b-f805-80dd-8004-db9eca1c7310">
          <g class="fills" id="fills-bda89a1b-f805-80dd-8004-db9eca1c7310">
            <path d="M152.999,-1090.001C152.999,-1087.501,152.105,-1085.375,150.317,-1083.624C148.528,-1081.876,146.355,-1081.001,143.799,-1081.001C141.244,-1081.001,139.073,-1081.876,137.283,-1083.624C135.494,-1085.375,134.599,-1087.501,134.599,-1090.001C134.599,-1092.501,135.494,-1094.624,137.283,-1096.375C139.073,-1098.126,141.244,-1099.001,143.799,-1099.001C146.355,-1099.001,148.528,-1098.126,150.317,-1096.375C152.105,-1094.624,152.999,-1092.501,152.999,-1090.001ZZM202.067,-1072.001L202.067,-1050.999L134.599,-1050.999L134.599,-1059.999L149.933,-1075.000L157.599,-1067.501L182.133,-1091.499L202.067,-1072.001ZZM206.667,-1104.999L129.999,-1104.999C129.585,-1104.999,129.226,-1104.851,128.923,-1104.554C128.619,-1104.257,128.467,-1103.906,128.467,-1103.501L128.467,-1046.499C128.467,-1046.094,128.619,-1045.743,128.923,-1045.446C129.226,-1045.149,129.585,-1045.001,129.999,-1045.001L206.667,-1045.001C207.081,-1045.001,207.440,-1045.149,207.744,-1045.446C208.047,-1045.743,208.199,-1046.094,208.199,-1046.499L208.199,-1103.501C208.199,-1103.906,208.047,-1104.257,207.744,-1104.554C207.440,-1104.851,207.081,-1104.999,206.667,-1104.999ZZM214.333,-1103.501L214.333,-1046.499C214.333,-1044.438,213.584,-1042.672,212.082,-1041.203C210.580,-1039.734,208.774,-1039.000,206.667,-1039.000L129.999,-1039.000C127.892,-1039.000,126.087,-1039.734,124.585,-1041.203C123.083,-1042.672,122.333,-1044.438,122.333,-1046.499L122.333,-1103.501C122.333,-1105.562,123.083,-1107.328,124.585,-1108.797C126.087,-1110.266,127.892,-1111.000,129.999,-1111.000L206.667,-1111.000C208.774,-1111.000,210.580,-1110.266,212.082,-1108.797C213.584,-1107.328,214.333,-1105.562,214.333,-1103.501ZZ" style="fill-rule:nonzero;clip-rule:evenodd;stroke-linejoin:round;stroke-miterlimit:1.5;fill:#666666">
            </path>
          </g>
        </g>
      </g>
      <g id="shape-bda89a1b-f805-80dd-8004-db9f2679b166" rx="0" ry="0">
        <g id="shape-bda89a1b-f805-80dd-8004-db9ed224c989">
          <g class="fills" id="fills-bda89a1b-f805-80dd-8004-db9ed224c989">
            <rect rx="6" ry="6" x="30.3333333333333" y="-1106" transform="matrix(1.000000, 0.000000, 0.000000, 1.000000, 0.000000, 0.000000)" width="105.00000000000001" height="62" style="fill:#f2f2f2;fill-opacity:1">
            </rect>
          </g>
          <g id="strokes-bda89a1b-f805-80dd-8004-db9ed224c989" class="strokes">
            <g class="inner-stroke-shape" transform="matrix(1.000000, 0.000000, 0.000000, 1.000000, 0.000000, 0.000000)">
              <defs>
                <clipPath id="inner-stroke-render-756-bda89a1b-f805-80dd-8004-db9ed224c989-0">
                  <use href="#stroke-shape-render-756-bda89a1b-f805-80dd-8004-db9ed224c989-0">
                  </use>
                </clipPath>
                <rect rx="6" ry="6" x="30.3333333333333" y="-1106" width="105.00000000000001" height="62" style="fill:none;fill-opacity:none;stroke-width:6;stroke:#666666;stroke-opacity:1" id="stroke-shape-render-756-bda89a1b-f805-80dd-8004-db9ed224c989-0">
                </rect>
              </defs>
              <use href="#stroke-shape-render-756-bda89a1b-f805-80dd-8004-db9ed224c989-0" clip-path="url(&#x27;#inner-stroke-render-756-bda89a1b-f805-80dd-8004-db9ed224c989-0&#x27;)">
              </use>
            </g>
          </g>
        </g>
        <g id="shape-bda89a1b-f805-80dd-8004-db9eca1c7311" style="fill:#000000" rx="0" ry="0">
          <g id="shape-bda89a1b-f805-80dd-8004-db9eca1c7312">
            <g class="fills" id="fills-bda89a1b-f805-80dd-8004-db9eca1c7312">
              <path d="M42.968,-1090.226L122.699,-1090.226" style="fill-rule:evenodd;clip-rule:evenodd;stroke-linejoin:round;stroke-miterlimit:1.5;fill:none">
              </path>
            </g>
            <g style="fill-rule:evenodd;clip-rule:evenodd;stroke-linejoin:round;stroke-miterlimit:1.5;fill:none" id="strokes-bda89a1b-f805-80dd-8004-db9eca1c7312" class="strokes">
              <g class="stroke-shape">
                <path d="M42.968,-1090.226L122.699,-1090.226" style="fill:none;fill-opacity:none;stroke-width:4.93;stroke:#666666;stroke-opacity:1">
                </path>
              </g>
            </g>
          </g>
          <g id="shape-bda89a1b-f805-80dd-8004-db9eca1c7313">
            <g class="fills" id="fills-bda89a1b-f805-80dd-8004-db9eca1c7313">
              <path d="M42.968,-1075.004L122.699,-1075.004" style="fill-rule:evenodd;clip-rule:evenodd;stroke-linejoin:round;stroke-miterlimit:1.5;fill:none">
              </path>
            </g>
            <g style="fill-rule:evenodd;clip-rule:evenodd;stroke-linejoin:round;stroke-miterlimit:1.5;fill:none" id="strokes-bda89a1b-f805-80dd-8004-db9eca1c7313" class="strokes">
              <g class="stroke-shape">
                <path d="M42.968,-1075.004L122.699,-1075.004" style="fill:none;fill-opacity:none;stroke-width:4.93;stroke:#666666;stroke-opacity:1">
                </path>
              </g>
            </g>
          </g>
          <g id="shape-bda89a1b-f805-80dd-8004-db9eca1c7314">
            <g class="fills" id="fills-bda89a1b-f805-80dd-8004-db9eca1c7314">
              <path d="M42.968,-1059.782L90.483,-1059.782" style="fill-rule:evenodd;clip-rule:evenodd;stroke-linejoin:round;stroke-miterlimit:1.5;fill:none">
              </path>
            </g>
            <g style="fill-rule:evenodd;clip-rule:evenodd;stroke-linejoin:round;stroke-miterlimit:1.5;fill:none" id="strokes-bda89a1b-f805-80dd-8004-db9eca1c7314" class="strokes">
              <g class="stroke-shape">
                <path d="M42.968,-1059.782L90.483,-1059.782" style="fill:none;fill-opacity:none;stroke-width:4.93;stroke:#666666;stroke-opacity:1">
                </path>
              </g>
            </g>
          </g>
        </g>
      </g>
    </g>
  </g>
</svg>