<svg width="400" xmlns="http://www.w3.org/2000/svg" height="300" viewBox="-71 -491 400 300" style="-webkit-print-color-adjust::exact" xmlns:xlink="http://www.w3.org/1999/xlink" fill="none" version="1.1">
  <g style="fill:#000000" xml:space="preserve" rx="0" ry="0">
    <g style="display:none">
      <g>
        <rect rx="0" ry="0" x="-71" y="-491" transform="matrix(1.000000, 0.000000, 0.000000, 1.000000, 0.000000, 0.000000)" width="400" height="300" style="fill-rule:evenodd;clip-rule:evenodd;stroke-linejoin:round;stroke-miterlimit:1.5;fill:none" fill="none">
        </rect>
      </g>
    </g>
    <g>
      <g>
        <rect rx="0" ry="0" x="-71" y="-491" transform="matrix(1.000000, 0.000000, 0.000000, 1.000000, 0.000000, 0.000000)" width="400" height="300" style="fill-rule:evenodd;clip-rule:evenodd;stroke-linejoin:round;stroke-miterlimit:1.5;fill:#f2f2f2">
        </rect>
      </g>
    </g>
    <g style="fill:#000000" rx="0" ry="0">
      <g>
        <g>
          <path d="M-21.000,-440.593L279.000,-440.593" style="fill-rule:evenodd;clip-rule:evenodd;stroke-linejoin:round;stroke-miterlimit:1.5;fill:none">
          </path>
        </g>
        <g style="fill-rule:evenodd;clip-rule:evenodd;stroke-linejoin:round;stroke-miterlimit:1.5;fill:none">
          <g>
            <path d="M-21.000,-440.593L279.000,-440.593" style="fill:none;fill-opacity:none;stroke-width:2.5;stroke:#bfbfbf;stroke-opacity:1">
            </path>
          </g>
        </g>
      </g>
      <g>
        <g>
          <path d="M-21.000,-420.215L177.361,-420.215" style="fill-rule:evenodd;clip-rule:evenodd;stroke-linejoin:round;stroke-miterlimit:1.5;fill:none">
          </path>
        </g>
        <g style="fill-rule:evenodd;clip-rule:evenodd;stroke-linejoin:round;stroke-miterlimit:1.5;fill:none">
          <g>
            <path d="M-21.000,-420.215L177.361,-420.215" style="fill:none;fill-opacity:none;stroke-width:2.5;stroke:#bfbfbf;stroke-opacity:1">
            </path>
          </g>
        </g>
      </g>
    </g>
    <g style="fill:#000000" rx="0" ry="0">
      <g>
        <g>
          <path d="M-21.000,-260.944L279.000,-260.944" style="fill-rule:evenodd;clip-rule:evenodd;stroke-linejoin:round;stroke-miterlimit:1.5;fill:none">
          </path>
        </g>
        <g style="fill-rule:evenodd;clip-rule:evenodd;stroke-linejoin:round;stroke-miterlimit:1.5;fill:none">
          <g>
            <path d="M-21.000,-260.944L279.000,-260.944" style="fill:none;fill-opacity:none;stroke-width:2.5;stroke:#bfbfbf;stroke-opacity:1">
            </path>
          </g>
        </g>
      </g>
      <g>
        <g>
          <path d="M-21.000,-240.566L177.361,-240.566" style="fill-rule:evenodd;clip-rule:evenodd;stroke-linejoin:round;stroke-miterlimit:1.5;fill:none">
          </path>
        </g>
        <g style="fill-rule:evenodd;clip-rule:evenodd;stroke-linejoin:round;stroke-miterlimit:1.5;fill:none">
          <g>
            <path d="M-21.000,-240.566L177.361,-240.566" style="fill:none;fill-opacity:none;stroke-width:2.5;stroke:#bfbfbf;stroke-opacity:1">
            </path>
          </g>
        </g>
      </g>
    </g>
    <g>
      <g>
        <path d="M162.444,-379.294L157.667,-379.294L157.667,-388.868L148.111,-388.868L148.111,-379.294L109.889,-379.294L109.889,-388.868L100.333,-388.868L100.333,-379.294L95.556,-379.294C90.300,-379.294,86.000,-374.986,86.000,-369.721L86.000,-302.706C86.000,-297.440,90.300,-293.132,95.556,-293.132L162.444,-293.132C167.700,-293.132,172.000,-297.440,172.000,-302.706L172.000,-369.721C172.000,-374.986,167.700,-379.294,162.444,-379.294ZM162.444,-302.706L95.556,-302.706L95.556,-350.574L162.444,-350.574L162.444,-302.706ZM162.444,-360.147L95.556,-360.147L95.556,-369.721L162.444,-369.721L162.444,-360.147ZM124.222,-331.426L108.933,-331.426L121.356,-321.853L116.578,-307.492L129.000,-316.109L141.422,-307.492L136.644,-321.853L149.067,-331.426L133.778,-331.426L129.000,-345.787L124.222,-331.426ZL124.222,-331.426Z" style="fill:#666666;fill-opacity:1">
        </path>
      </g>
    </g>
  </g>
</svg>