<svg width="400" xmlns="http://www.w3.org/2000/svg" height="300" viewBox="-77.667 -1585 400 300" style="-webkit-print-color-adjust::exact" xmlns:xlink="http://www.w3.org/1999/xlink" fill="none" version="1.1">
  <g style="fill:#000000" xml:space="preserve" rx="0" ry="0">
    <g style="display:none">
      <g>
        <rect rx="0" ry="0" x="-77.66666666666667" y="-1585" transform="matrix(1.000000, 0.000000, 0.000000, 1.000000, 0.000000, 0.000000)" width="400.00000000000006" height="300" style="fill-rule:evenodd;clip-rule:evenodd;stroke-linejoin:round;stroke-miterlimit:1.5;fill:none" fill="none">
        </rect>
      </g>
    </g>
    <g>
      <g>
        <rect rx="0" ry="0" x="-77.66666666666667" y="-1585" transform="matrix(1.000000, 0.000000, 0.000000, 1.000000, 0.000000, 0.000000)" width="400.00000000000006" height="300" style="fill-rule:evenodd;clip-rule:evenodd;stroke-linejoin:round;stroke-miterlimit:1.5;fill:#f2f2f2">
        </rect>
      </g>
    </g>
    <g style="fill:#000000" rx="0" ry="0">
      <g>
        <g>
          <path d="M-27.667,-1534.593L272.333,-1534.593" style="fill-rule:evenodd;clip-rule:evenodd;stroke-linejoin:round;stroke-miterlimit:1.5;fill:none">
          </path>
        </g>
        <g style="fill-rule:evenodd;clip-rule:evenodd;stroke-linejoin:round;stroke-miterlimit:1.5;fill:none">
          <g>
            <path d="M-27.667,-1534.593L272.333,-1534.593" style="fill:none;fill-opacity:none;stroke-width:2.5;stroke:#bfbfbf;stroke-opacity:1">
            </path>
          </g>
        </g>
      </g>
      <g>
        <g>
          <path d="M-27.667,-1514.215L170.694,-1514.215" style="fill-rule:evenodd;clip-rule:evenodd;stroke-linejoin:round;stroke-miterlimit:1.5;fill:none">
          </path>
        </g>
        <g style="fill-rule:evenodd;clip-rule:evenodd;stroke-linejoin:round;stroke-miterlimit:1.5;fill:none">
          <g>
            <path d="M-27.667,-1514.215L170.694,-1514.215" style="fill:none;fill-opacity:none;stroke-width:2.5;stroke:#bfbfbf;stroke-opacity:1">
            </path>
          </g>
        </g>
      </g>
    </g>
    <g style="fill:#000000" rx="0" ry="0">
      <g>
        <g>
          <path d="M-27.667,-1354.944L272.333,-1354.944" style="fill-rule:evenodd;clip-rule:evenodd;stroke-linejoin:round;stroke-miterlimit:1.5;fill:none">
          </path>
        </g>
        <g style="fill-rule:evenodd;clip-rule:evenodd;stroke-linejoin:round;stroke-miterlimit:1.5;fill:none">
          <g>
            <path d="M-27.667,-1354.944L272.333,-1354.944" style="fill:none;fill-opacity:none;stroke-width:2.5;stroke:#bfbfbf;stroke-opacity:1">
            </path>
          </g>
        </g>
      </g>
      <g>
        <g>
          <path d="M-27.667,-1334.566L170.694,-1334.566" style="fill-rule:evenodd;clip-rule:evenodd;stroke-linejoin:round;stroke-miterlimit:1.5;fill:none">
          </path>
        </g>
        <g style="fill-rule:evenodd;clip-rule:evenodd;stroke-linejoin:round;stroke-miterlimit:1.5;fill:none">
          <g>
            <path d="M-27.667,-1334.566L170.694,-1334.566" style="fill:none;fill-opacity:none;stroke-width:2.5;stroke:#bfbfbf;stroke-opacity:1">
            </path>
          </g>
        </g>
      </g>
    </g>
    <g style="fill:#000000" rx="0" ry="0">
      <g>
        <g>
          <path d="M102.081,-1454.792C102.081,-1451.493,100.900,-1448.689,98.537,-1446.381C96.175,-1444.071,93.305,-1442.917,89.930,-1442.917C86.555,-1442.917,83.685,-1444.071,81.322,-1446.381C78.960,-1448.689,77.778,-1451.493,77.778,-1454.792C77.778,-1458.091,78.960,-1460.895,81.322,-1463.203C83.685,-1465.512,86.555,-1466.667,89.930,-1466.667C93.305,-1466.667,96.175,-1465.512,98.537,-1463.203C100.900,-1460.895,102.081,-1458.091,102.081,-1454.792ZZM166.888,-1431.041L166.888,-1403.333L77.778,-1403.333L77.778,-1415.208L98.030,-1435.000L108.156,-1425.104L140.560,-1456.771L166.888,-1431.041ZZM172.963,-1474.584L71.703,-1474.584C71.154,-1474.584,70.680,-1474.388,70.279,-1473.996C69.879,-1473.605,69.677,-1473.140,69.677,-1472.604L69.677,-1397.396C69.677,-1396.860,69.879,-1396.396,70.279,-1396.004C70.680,-1395.612,71.154,-1395.417,71.703,-1395.417L172.963,-1395.417C173.512,-1395.417,173.986,-1395.612,174.388,-1396.004C174.788,-1396.396,174.989,-1396.860,174.989,-1397.396L174.989,-1472.604C174.989,-1473.140,174.788,-1473.605,174.388,-1473.996C173.986,-1474.388,173.512,-1474.584,172.963,-1474.584ZZM183.089,-1472.604L183.089,-1397.396C183.089,-1394.675,182.098,-1392.345,180.115,-1390.407C178.132,-1388.469,175.749,-1387.500,172.963,-1387.500L71.703,-1387.500C68.918,-1387.500,66.535,-1388.469,64.552,-1390.407C62.569,-1392.345,61.578,-1394.675,61.578,-1397.396L61.578,-1472.604C61.578,-1475.326,62.569,-1477.655,64.552,-1479.593C66.535,-1481.531,68.918,-1482.500,71.703,-1482.500L172.963,-1482.500C175.749,-1482.500,178.132,-1481.531,180.115,-1479.593C182.098,-1477.655,183.089,-1475.326,183.089,-1472.604ZZ" style="fill-rule:nonzero;clip-rule:evenodd;stroke-linejoin:round;stroke-miterlimit:1.5;fill:#666666">
          </path>
        </g>
      </g>
    </g>
  </g>
</svg>