<svg width="400" xmlns="http://www.w3.org/2000/svg" height="300" viewBox="401 -1585 400 300" style="-webkit-print-color-adjust::exact" xmlns:xlink="http://www.w3.org/1999/xlink" fill="none" version="1.1">
  <g style="fill:#000000" xml:space="preserve" rx="0" ry="0">
    <g>
      <g>
        <rect rx="0" ry="0" x="401" y="-1585" transform="matrix(1.000000, 0.000000, 0.000000, 1.000000, 0.000000, 0.000000)" width="400" height="300" style="fill-rule:evenodd;clip-rule:evenodd;stroke-linejoin:round;stroke-miterlimit:1.5;fill:none" fill="none">
        </rect>
      </g>
    </g>
    <g>
      <g>
        <rect rx="0" ry="0" x="401" y="-1585" transform="matrix(1.000000, 0.000000, 0.000000, 1.000000, 0.000000, 0.000000)" width="400" height="300" style="fill-rule:evenodd;clip-rule:evenodd;stroke-linejoin:round;stroke-miterlimit:1.5;fill:#f2f2f2">
        </rect>
      </g>
    </g>
    <g style="fill:#000000" rx="0" ry="0">
      <g>
        <g>
          <path d="M451.000,-1534.593L751.000,-1534.593" style="fill-rule:evenodd;clip-rule:evenodd;stroke-linejoin:round;stroke-miterlimit:1.5;fill:none">
          </path>
        </g>
        <g style="fill-rule:evenodd;clip-rule:evenodd;stroke-linejoin:round;stroke-miterlimit:1.5;fill:none">
          <g>
            <path d="M451.000,-1534.593L751.000,-1534.593" style="fill:none;fill-opacity:none;stroke-width:2.5;stroke:#bfbfbf;stroke-opacity:1">
            </path>
          </g>
        </g>
      </g>
      <g>
        <g>
          <path d="M451.000,-1514.215L649.361,-1514.215" style="fill-rule:evenodd;clip-rule:evenodd;stroke-linejoin:round;stroke-miterlimit:1.5;fill:none">
          </path>
        </g>
        <g style="fill-rule:evenodd;clip-rule:evenodd;stroke-linejoin:round;stroke-miterlimit:1.5;fill:none">
          <g>
            <path d="M451.000,-1514.215L649.361,-1514.215" style="fill:none;fill-opacity:none;stroke-width:2.5;stroke:#bfbfbf;stroke-opacity:1">
            </path>
          </g>
        </g>
      </g>
    </g>
    <g style="fill:#000000" rx="0" ry="0">
      <g>
        <g>
          <path d="M451.000,-1354.944L751.000,-1354.944" style="fill-rule:evenodd;clip-rule:evenodd;stroke-linejoin:round;stroke-miterlimit:1.5;fill:none">
          </path>
        </g>
        <g style="fill-rule:evenodd;clip-rule:evenodd;stroke-linejoin:round;stroke-miterlimit:1.5;fill:none">
          <g>
            <path d="M451.000,-1354.944L751.000,-1354.944" style="fill:none;fill-opacity:none;stroke-width:2.5;stroke:#bfbfbf;stroke-opacity:1">
            </path>
          </g>
        </g>
      </g>
      <g>
        <g>
          <path d="M451.000,-1334.566L649.361,-1334.566" style="fill-rule:evenodd;clip-rule:evenodd;stroke-linejoin:round;stroke-miterlimit:1.5;fill:none">
          </path>
        </g>
        <g style="fill-rule:evenodd;clip-rule:evenodd;stroke-linejoin:round;stroke-miterlimit:1.5;fill:none">
          <g>
            <path d="M451.000,-1334.566L649.361,-1334.566" style="fill:none;fill-opacity:none;stroke-width:2.5;stroke:#bfbfbf;stroke-opacity:1">
            </path>
          </g>
        </g>
      </g>
    </g>
    <g style="fill:#000000" rx="0" ry="0">
      <g>
        <g>
          <path d="M656.364,-1417.804C656.364,-1416.318,655.832,-1415.055,654.768,-1414.016C653.703,-1412.976,652.411,-1412.456,650.891,-1412.456C649.370,-1412.456,648.078,-1412.976,647.014,-1414.016C645.949,-1415.055,645.417,-1416.318,645.417,-1417.804C645.417,-1419.289,645.949,-1420.552,647.014,-1421.592C648.078,-1422.631,649.370,-1423.151,650.891,-1423.151C652.411,-1423.151,653.703,-1422.631,654.768,-1421.592C655.832,-1420.552,656.364,-1419.289,656.364,-1417.804ZZM685.556,-1407.108L685.556,-1394.630L645.417,-1394.630L645.417,-1399.978L654.540,-1408.891L659.101,-1404.434L673.697,-1418.695L685.556,-1407.108ZZM688.293,-1426.717L642.680,-1426.717C642.434,-1426.717,642.219,-1426.628,642.039,-1426.452C641.858,-1426.276,641.768,-1426.066,641.768,-1425.825L641.768,-1391.956C641.768,-1391.715,641.858,-1391.506,642.039,-1391.330C642.219,-1391.153,642.434,-1391.065,642.680,-1391.065L688.293,-1391.065C688.540,-1391.065,688.754,-1391.153,688.934,-1391.330C689.115,-1391.506,689.205,-1391.715,689.205,-1391.956L689.205,-1425.825C689.205,-1426.066,689.115,-1426.276,688.934,-1426.452C688.754,-1426.628,688.540,-1426.717,688.293,-1426.717ZZM692.854,-1425.825L692.854,-1391.956C692.854,-1390.731,692.408,-1389.682,691.515,-1388.809C690.621,-1387.936,689.547,-1387.500,688.293,-1387.500L642.680,-1387.500C641.426,-1387.500,640.352,-1387.936,639.459,-1388.809C638.566,-1389.682,638.119,-1390.731,638.119,-1391.956L638.119,-1425.825C638.119,-1427.051,638.566,-1428.100,639.459,-1428.972C640.352,-1429.845,641.426,-1430.281,642.680,-1430.281L688.293,-1430.281C689.547,-1430.281,690.621,-1429.845,691.515,-1428.972C692.408,-1428.100,692.854,-1427.051,692.854,-1425.825ZZ" style="fill-rule:nonzero;clip-rule:evenodd;stroke-linejoin:round;stroke-miterlimit:1.5;fill:#666666">
          </path>
        </g>
      </g>
      <g>
        <g>
          <path d="M656.364,-1470.022C656.364,-1468.537,655.832,-1467.274,654.768,-1466.234C653.703,-1465.194,652.411,-1464.675,650.891,-1464.675C649.370,-1464.675,648.078,-1465.194,647.014,-1466.234C645.949,-1467.274,645.417,-1468.537,645.417,-1470.022C645.417,-1471.508,645.949,-1472.771,647.014,-1473.810C648.078,-1474.850,649.370,-1475.370,650.891,-1475.370C652.411,-1475.370,653.703,-1474.850,654.768,-1473.810C655.832,-1472.771,656.364,-1471.508,656.364,-1470.022ZZM685.556,-1459.327L685.556,-1446.849L645.417,-1446.849L645.417,-1452.196L654.540,-1461.109L659.101,-1456.653L673.697,-1470.913L685.556,-1459.327ZZM688.293,-1478.935L642.680,-1478.935C642.434,-1478.935,642.219,-1478.847,642.039,-1478.670C641.858,-1478.494,641.768,-1478.285,641.768,-1478.044L641.768,-1444.175C641.768,-1443.934,641.858,-1443.725,642.039,-1443.548C642.219,-1443.372,642.434,-1443.284,642.680,-1443.284L688.293,-1443.284C688.540,-1443.284,688.754,-1443.372,688.934,-1443.548C689.115,-1443.725,689.205,-1443.934,689.205,-1444.175L689.205,-1478.044C689.205,-1478.285,689.115,-1478.494,688.934,-1478.670C688.754,-1478.847,688.540,-1478.935,688.293,-1478.935ZZM692.854,-1478.044L692.854,-1444.175C692.854,-1442.950,692.408,-1441.900,691.515,-1441.028C690.621,-1440.155,689.547,-1439.719,688.293,-1439.719L642.680,-1439.719C641.426,-1439.719,640.352,-1440.155,639.459,-1441.028C638.566,-1441.900,638.119,-1442.950,638.119,-1444.175L638.119,-1478.044C638.119,-1479.269,638.566,-1480.318,639.459,-1481.191C640.352,-1482.064,641.426,-1482.500,642.680,-1482.500L688.293,-1482.500C689.547,-1482.500,690.621,-1482.064,691.515,-1481.191C692.408,-1480.318,692.854,-1479.269,692.854,-1478.044ZZ" style="fill-rule:nonzero;clip-rule:evenodd;stroke-linejoin:round;stroke-miterlimit:1.5;fill:#666666">
          </path>
        </g>
      </g>
      <g>
        <g>
          <path d="M549.620,-1454.792C549.620,-1451.493,548.439,-1448.689,546.079,-1446.381C543.718,-1444.071,540.851,-1442.917,537.478,-1442.917C534.105,-1442.917,531.238,-1444.071,528.877,-1446.381C526.516,-1448.689,525.336,-1451.493,525.336,-1454.792C525.336,-1458.091,526.516,-1460.895,528.877,-1463.203C531.238,-1465.513,534.105,-1466.667,537.478,-1466.667C540.851,-1466.667,543.718,-1465.513,546.079,-1463.203C548.439,-1460.895,549.620,-1458.091,549.620,-1454.792ZZM614.379,-1431.041L614.379,-1403.333L525.336,-1403.333L525.336,-1415.208L545.573,-1435.000L555.692,-1425.104L588.071,-1456.771L614.379,-1431.041ZZM620.451,-1474.584L519.264,-1474.584C518.717,-1474.584,518.242,-1474.388,517.842,-1473.996C517.441,-1473.605,517.241,-1473.140,517.241,-1472.604L517.241,-1397.396C517.241,-1396.860,517.441,-1396.396,517.842,-1396.004C518.242,-1395.612,518.717,-1395.417,519.264,-1395.417L620.451,-1395.417C620.999,-1395.417,621.474,-1395.612,621.873,-1396.004C622.275,-1396.396,622.474,-1396.860,622.474,-1397.396L622.474,-1472.604C622.474,-1473.140,622.275,-1473.605,621.873,-1473.996C621.474,-1474.388,620.999,-1474.584,620.451,-1474.584ZZM630.570,-1472.604L630.570,-1397.396C630.570,-1394.675,629.579,-1392.345,627.597,-1390.407C625.616,-1388.469,623.233,-1387.500,620.451,-1387.500L519.264,-1387.500C516.482,-1387.500,514.099,-1388.469,512.118,-1390.407C510.136,-1392.345,509.146,-1394.675,509.146,-1397.396L509.146,-1472.604C509.146,-1475.326,510.136,-1477.655,512.118,-1479.593C514.099,-1481.531,516.482,-1482.500,519.264,-1482.500L620.451,-1482.500C623.233,-1482.500,625.616,-1481.531,627.597,-1479.593C629.579,-1477.655,630.570,-1475.326,630.570,-1472.604ZZ" style="fill-rule:nonzero;clip-rule:evenodd;stroke-linejoin:round;stroke-miterlimit:1.5;fill:#666666">
          </path>
        </g>
      </g>
    </g>
  </g>
</svg>