<svg width="400" xmlns="http://www.w3.org/2000/svg" height="300" viewBox="-556.333 -1223 400 300" style="-webkit-print-color-adjust::exact" xmlns:xlink="http://www.w3.org/1999/xlink" fill="none" version="1.1">
  <g style="fill:#000000" xml:space="preserve" rx="0" ry="0">
    <g style="display:none">
      <g>
        <rect rx="0" ry="0" x="-556.3333333333334" y="-1223" transform="matrix(1.000000, 0.000000, 0.000000, 1.000000, 0.000000, 0.000000)" width="400" height="300" style="fill-rule:evenodd;clip-rule:evenodd;stroke-linejoin:round;stroke-miterlimit:1.5;fill:none" fill="none">
        </rect>
      </g>
    </g>
    <g>
      <g>
        <rect rx="0" ry="0" x="-556.3333333333334" y="-1223" transform="matrix(1.000000, 0.000000, 0.000000, 1.000000, 0.000000, 0.000000)" width="400" height="300" style="fill-rule:evenodd;clip-rule:evenodd;stroke-linejoin:round;stroke-miterlimit:1.5;fill:#f2f2f2">
        </rect>
      </g>
    </g>
    <g rx="0" ry="0">
      <g>
        <g>
          <path d="M-506.333,-993.378L-206.333,-993.378" style="fill-rule:evenodd;clip-rule:evenodd;stroke-linejoin:round;stroke-miterlimit:1.5;fill:none">
          </path>
        </g>
        <g style="fill-rule:evenodd;clip-rule:evenodd;stroke-linejoin:round;stroke-miterlimit:1.5;fill:none">
          <g>
            <path d="M-506.333,-993.378L-206.333,-993.378" style="fill:none;fill-opacity:none;stroke-width:2.5;stroke:#bfbfbf;stroke-opacity:1">
            </path>
          </g>
        </g>
      </g>
      <g>
        <g>
          <path d="M-506.333,-973.000L-359.513,-973.000" style="fill-rule:evenodd;clip-rule:evenodd;stroke-linejoin:round;stroke-miterlimit:1.5;fill:none">
          </path>
        </g>
        <g style="fill-rule:evenodd;clip-rule:evenodd;stroke-linejoin:round;stroke-miterlimit:1.5;fill:none">
          <g>
            <path d="M-506.333,-973.000L-359.513,-973.000" style="fill:none;fill-opacity:none;stroke-width:2.5;stroke:#bfbfbf;stroke-opacity:1">
            </path>
          </g>
        </g>
      </g>
    </g>
    <g rx="0" ry="0">
      <g>
        <g>
          <path d="M-484.029,-1084.561C-484.029,-1082.634,-484.709,-1080.996,-486.068,-1079.648C-487.428,-1078.298,-489.079,-1077.625,-491.020,-1077.625C-492.962,-1077.625,-494.614,-1078.298,-495.973,-1079.648C-497.332,-1080.996,-498.012,-1082.634,-498.012,-1084.561C-498.012,-1086.488,-497.332,-1088.126,-495.973,-1089.474C-494.614,-1090.823,-492.962,-1091.497,-491.020,-1091.497C-489.079,-1091.497,-487.428,-1090.823,-486.068,-1089.474C-484.709,-1088.126,-484.029,-1086.488,-484.029,-1084.561ZZM-446.742,-1070.688L-446.742,-1054.503L-498.012,-1054.503L-498.012,-1061.439L-486.360,-1073.000L-480.534,-1067.220L-461.890,-1085.717L-446.742,-1070.688ZZM-443.247,-1096.122L-501.507,-1096.122C-501.823,-1096.122,-502.096,-1096.007,-502.327,-1095.778C-502.557,-1095.550,-502.673,-1095.278,-502.673,-1094.965L-502.673,-1051.035C-502.673,-1050.722,-502.557,-1050.451,-502.327,-1050.222C-502.096,-1049.993,-501.823,-1049.879,-501.507,-1049.879L-443.247,-1049.879C-442.931,-1049.879,-442.658,-1049.993,-442.427,-1050.222C-442.197,-1050.451,-442.081,-1050.722,-442.081,-1051.035L-442.081,-1094.965C-442.081,-1095.278,-442.197,-1095.550,-442.427,-1095.778C-442.658,-1096.007,-442.931,-1096.122,-443.247,-1096.122ZZM-437.421,-1094.965L-437.421,-1051.035C-437.421,-1049.445,-437.991,-1048.084,-439.132,-1046.952C-440.273,-1045.820,-441.644,-1045.254,-443.247,-1045.254L-501.507,-1045.254C-503.110,-1045.254,-504.481,-1045.820,-505.622,-1046.952C-506.763,-1048.084,-507.333,-1049.445,-507.333,-1051.035L-507.333,-1094.965C-507.333,-1096.555,-506.763,-1097.916,-505.622,-1099.048C-504.481,-1100.180,-503.110,-1100.746,-501.507,-1100.746L-443.247,-1100.746C-441.644,-1100.746,-440.273,-1100.180,-439.132,-1099.048C-437.991,-1097.916,-437.421,-1096.555,-437.421,-1094.965ZZ" style="fill-rule:nonzero;clip-rule:evenodd;stroke-linejoin:round;stroke-miterlimit:1.5;fill:#666666">
          </path>
        </g>
      </g>
      <g>
        <g>
          <path d="M-406.667,-1084.561C-406.667,-1082.634,-407.346,-1080.996,-408.706,-1079.648C-410.065,-1078.298,-411.716,-1077.625,-413.658,-1077.625C-415.600,-1077.625,-417.251,-1078.298,-418.611,-1079.648C-419.970,-1080.996,-420.650,-1082.634,-420.650,-1084.561C-420.650,-1086.488,-419.970,-1088.126,-418.611,-1089.474C-417.251,-1090.823,-415.600,-1091.497,-413.658,-1091.497C-411.716,-1091.497,-410.065,-1090.823,-408.706,-1089.474C-407.346,-1088.126,-406.667,-1086.488,-406.667,-1084.561ZZM-369.379,-1070.688L-369.379,-1054.503L-420.650,-1054.503L-420.650,-1061.439L-408.998,-1073.000L-403.171,-1067.220L-384.527,-1085.717L-369.379,-1070.688ZZM-365.884,-1096.122L-424.145,-1096.122C-424.461,-1096.122,-424.734,-1096.007,-424.965,-1095.778C-425.195,-1095.550,-425.311,-1095.278,-425.311,-1094.965L-425.311,-1051.035C-425.311,-1050.722,-425.195,-1050.451,-424.965,-1050.222C-424.734,-1049.993,-424.461,-1049.879,-424.145,-1049.879L-365.884,-1049.879C-365.568,-1049.879,-365.295,-1049.993,-365.065,-1050.222C-364.834,-1050.451,-364.718,-1050.722,-364.718,-1051.035L-364.718,-1094.965C-364.718,-1095.278,-364.834,-1095.550,-365.065,-1095.778C-365.295,-1096.007,-365.568,-1096.122,-365.884,-1096.122ZZM-360.058,-1094.965L-360.058,-1051.035C-360.058,-1049.445,-360.629,-1048.084,-361.769,-1046.952C-362.910,-1045.820,-364.281,-1045.254,-365.884,-1045.254L-424.145,-1045.254C-425.748,-1045.254,-427.119,-1045.820,-428.260,-1046.952C-429.400,-1048.084,-429.971,-1049.445,-429.971,-1051.035L-429.971,-1094.965C-429.971,-1096.555,-429.400,-1097.916,-428.260,-1099.048C-427.119,-1100.180,-425.748,-1100.746,-424.145,-1100.746L-365.884,-1100.746C-364.281,-1100.746,-362.910,-1100.180,-361.769,-1099.048C-360.629,-1097.916,-360.058,-1096.555,-360.058,-1094.965ZZ" style="fill-rule:nonzero;clip-rule:evenodd;stroke-linejoin:round;stroke-miterlimit:1.5;fill:#666666">
          </path>
        </g>
      </g>
      <g>
        <g>
          <path d="M-329.304,-1084.561C-329.304,-1082.634,-329.984,-1080.996,-331.343,-1079.648C-332.703,-1078.298,-334.354,-1077.625,-336.295,-1077.625C-338.238,-1077.625,-339.889,-1078.298,-341.248,-1079.648C-342.608,-1080.996,-343.287,-1082.634,-343.287,-1084.561C-343.287,-1086.488,-342.608,-1088.126,-341.248,-1089.474C-339.889,-1090.823,-338.238,-1091.497,-336.295,-1091.497C-334.354,-1091.497,-332.703,-1090.823,-331.343,-1089.474C-329.984,-1088.126,-329.304,-1086.488,-329.304,-1084.561ZZM-292.017,-1070.688L-292.017,-1054.503L-343.287,-1054.503L-343.287,-1061.439L-331.635,-1073.000L-325.809,-1067.220L-307.165,-1085.717L-292.017,-1070.688ZZM-288.522,-1096.122L-346.782,-1096.122C-347.098,-1096.122,-347.371,-1096.007,-347.602,-1095.778C-347.832,-1095.550,-347.948,-1095.278,-347.948,-1094.965L-347.948,-1051.035C-347.948,-1050.722,-347.832,-1050.451,-347.602,-1050.222C-347.371,-1049.993,-347.098,-1049.879,-346.782,-1049.879L-288.522,-1049.879C-288.206,-1049.879,-287.933,-1049.993,-287.702,-1050.222C-287.472,-1050.451,-287.356,-1050.722,-287.356,-1051.035L-287.356,-1094.965C-287.356,-1095.278,-287.472,-1095.550,-287.702,-1095.778C-287.933,-1096.007,-288.206,-1096.122,-288.522,-1096.122ZZM-282.696,-1094.965L-282.696,-1051.035C-282.696,-1049.445,-283.266,-1048.084,-284.407,-1046.952C-285.548,-1045.820,-286.919,-1045.254,-288.522,-1045.254L-346.782,-1045.254C-348.385,-1045.254,-349.756,-1045.820,-350.897,-1046.952C-352.038,-1048.084,-352.608,-1049.445,-352.608,-1051.035L-352.608,-1094.965C-352.608,-1096.555,-352.038,-1097.916,-350.897,-1099.048C-349.756,-1100.180,-348.385,-1100.746,-346.782,-1100.746L-288.522,-1100.746C-286.919,-1100.746,-285.548,-1100.180,-284.407,-1099.048C-283.266,-1097.916,-282.696,-1096.555,-282.696,-1094.965ZZ" style="fill-rule:nonzero;clip-rule:evenodd;stroke-linejoin:round;stroke-miterlimit:1.5;fill:#666666">
          </path>
        </g>
      </g>
      <g>
        <g>
          <path d="M-251.942,-1084.561C-251.942,-1082.634,-252.621,-1080.996,-253.981,-1079.648C-255.340,-1078.298,-256.991,-1077.625,-258.933,-1077.625C-260.875,-1077.625,-262.526,-1078.298,-263.886,-1079.648C-265.245,-1080.996,-265.925,-1082.634,-265.925,-1084.561C-265.925,-1086.488,-265.245,-1088.126,-263.886,-1089.474C-262.526,-1090.823,-260.875,-1091.497,-258.933,-1091.497C-256.991,-1091.497,-255.340,-1090.823,-253.981,-1089.474C-252.621,-1088.126,-251.942,-1086.488,-251.942,-1084.561ZZM-214.655,-1070.688L-214.655,-1054.503L-265.925,-1054.503L-265.925,-1061.439L-254.273,-1073.000L-248.447,-1067.220L-229.803,-1085.717L-214.655,-1070.688ZZM-211.159,-1096.122L-269.420,-1096.122C-269.736,-1096.122,-270.009,-1096.007,-270.240,-1095.778C-270.470,-1095.550,-270.586,-1095.278,-270.586,-1094.965L-270.586,-1051.035C-270.586,-1050.722,-270.470,-1050.451,-270.240,-1050.222C-270.009,-1049.993,-269.736,-1049.879,-269.420,-1049.879L-211.159,-1049.879C-210.843,-1049.879,-210.571,-1049.993,-210.340,-1050.222C-210.109,-1050.451,-209.994,-1050.722,-209.994,-1051.035L-209.994,-1094.965C-209.994,-1095.278,-210.109,-1095.550,-210.340,-1095.778C-210.571,-1096.007,-210.843,-1096.122,-211.159,-1096.122ZZM-205.333,-1094.965L-205.333,-1051.035C-205.333,-1049.445,-205.904,-1048.084,-207.045,-1046.952C-208.186,-1045.820,-209.557,-1045.254,-211.159,-1045.254L-269.420,-1045.254C-271.023,-1045.254,-272.394,-1045.820,-273.535,-1046.952C-274.676,-1048.084,-275.246,-1049.445,-275.246,-1051.035L-275.246,-1094.965C-275.246,-1096.555,-274.676,-1097.916,-273.535,-1099.048C-272.394,-1100.180,-271.023,-1100.746,-269.420,-1100.746L-211.159,-1100.746C-209.557,-1100.746,-208.186,-1100.180,-207.045,-1099.048C-205.904,-1097.916,-205.333,-1096.555,-205.333,-1094.965ZZ" style="fill-rule:nonzero;clip-rule:evenodd;stroke-linejoin:round;stroke-miterlimit:1.5;fill:#666666">
          </path>
        </g>
      </g>
    </g>
    <g rx="0" ry="0">
      <g>
        <g>
          <path d="M-506.333,-1173.000L-206.333,-1173.000" style="fill-rule:evenodd;clip-rule:evenodd;stroke-linejoin:round;stroke-miterlimit:1.5;fill:none">
          </path>
        </g>
        <g style="fill-rule:evenodd;clip-rule:evenodd;stroke-linejoin:round;stroke-miterlimit:1.5;fill:none">
          <g>
            <path d="M-506.333,-1173.000L-206.333,-1173.000" style="fill:none;fill-opacity:none;stroke-width:2.5;stroke:#bfbfbf;stroke-opacity:1">
            </path>
          </g>
        </g>
      </g>
      <g>
        <g>
          <path d="M-506.333,-1152.622L-307.972,-1152.622" style="fill-rule:evenodd;clip-rule:evenodd;stroke-linejoin:round;stroke-miterlimit:1.5;fill:none">
          </path>
        </g>
        <g style="fill-rule:evenodd;clip-rule:evenodd;stroke-linejoin:round;stroke-miterlimit:1.5;fill:none">
          <g>
            <path d="M-506.333,-1152.622L-307.972,-1152.622" style="fill:none;fill-opacity:none;stroke-width:2.5;stroke:#bfbfbf;stroke-opacity:1">
            </path>
          </g>
        </g>
      </g>
    </g>
    <g>
      <defs>
        <linearGradient id="fill-color-gradient-render-733-0" x1="0.5002297809630628" y1="0.34965432080746456" x2="0.5" y2="1" gradientTransform="">
          <stop offset="0" stop-color="#f2f2f2" stop-opacity="1">
          </stop>
          <stop offset="1" stop-color="#ffffff" stop-opacity="0">
          </stop>
        </linearGradient>
        <pattern patternUnits="userSpaceOnUse" x="-257.8333333333335" y="-1097.5" width="57.999999999999886" height="49" id="fill-0-render-733">
          <g>
            <rect width="57.999999999999886" height="49" style="fill:url(#fill-color-gradient-render-733-0)">
            </rect>
          </g>
        </pattern>
      </defs>
      <g>
        <rect rx="0" ry="0" x="-257.8333333333335" y="-1097.5" transform="matrix(0.000000, 1.000000, -1.000000, 0.000000, -1301.833333, -844.166667)" width="57.999999999999886" height="49" fill="url(#fill-0-render-733)">
        </rect>
      </g>
    </g>
    <g>
      <defs>
        <linearGradient id="fill-color-gradient-render-734-0" x1="0.5002297809630628" y1="0.34965432080746456" x2="0.5" y2="1" gradientTransform="">
          <stop offset="0" stop-color="#f2f2f2" stop-opacity="1">
          </stop>
          <stop offset="1" stop-color="#ffffff" stop-opacity="0">
          </stop>
        </linearGradient>
        <pattern patternUnits="userSpaceOnUse" x="-513.8333333333333" y="-1097.5" width="59.99999999999983" height="49" id="fill-0-render-734">
          <g>
            <rect width="59.99999999999983" height="49" style="fill:url(#fill-color-gradient-render-734-0)">
            </rect>
          </g>
        </pattern>
      </defs>
      <g>
        <rect rx="0" ry="0" x="-513.8333333333333" y="-1097.5" transform="matrix(-0.000000, -1.000000, 1.000000, 0.000000, 589.166667, -1556.833333)" width="59.99999999999983" height="49" fill="url(#fill-0-render-734)">
        </rect>
      </g>
    </g>
  </g>
</svg>