<svg width="400" xmlns="http://www.w3.org/2000/svg" height="300" viewBox="-557 -491 400 300" style="-webkit-print-color-adjust::exact" xmlns:xlink="http://www.w3.org/1999/xlink" fill="none" version="1.1">
  <g style="fill:#000000" xml:space="preserve" rx="0" ry="0">
    <g style="display:none">
      <g>
        <rect rx="0" ry="0" x="-557" y="-491" transform="matrix(1.000000, 0.000000, 0.000000, 1.000000, 0.000000, 0.000000)" width="400" height="300" style="fill-rule:evenodd;clip-rule:evenodd;stroke-linejoin:round;stroke-miterlimit:1.5;fill:none" fill="none">
        </rect>
      </g>
    </g>
    <g>
      <g>
        <rect rx="0" ry="0" x="-557" y="-491" transform="matrix(1.000000, 0.000000, 0.000000, 1.000000, 0.000000, 0.000000)" width="400" height="300" style="fill-rule:evenodd;clip-rule:evenodd;stroke-linejoin:round;stroke-miterlimit:1.5;fill:#f2f2f2">
        </rect>
      </g>
    </g>
    <g style="fill:#000000" rx="0" ry="0">
      <g>
        <g>
          <path d="M-507.000,-440.593L-207.000,-440.593" style="fill-rule:evenodd;clip-rule:evenodd;stroke-linejoin:round;stroke-miterlimit:1.5;fill:none">
          </path>
        </g>
        <g style="fill-rule:evenodd;clip-rule:evenodd;stroke-linejoin:round;stroke-miterlimit:1.5;fill:none">
          <g>
            <path d="M-507.000,-440.593L-207.000,-440.593" style="fill:none;fill-opacity:none;stroke-width:2.5;stroke:#bfbfbf;stroke-opacity:1">
            </path>
          </g>
        </g>
      </g>
      <g>
        <g>
          <path d="M-507.000,-420.215L-308.639,-420.215" style="fill-rule:evenodd;clip-rule:evenodd;stroke-linejoin:round;stroke-miterlimit:1.5;fill:none">
          </path>
        </g>
        <g style="fill-rule:evenodd;clip-rule:evenodd;stroke-linejoin:round;stroke-miterlimit:1.5;fill:none">
          <g>
            <path d="M-507.000,-420.215L-308.639,-420.215" style="fill:none;fill-opacity:none;stroke-width:2.5;stroke:#bfbfbf;stroke-opacity:1">
            </path>
          </g>
        </g>
      </g>
    </g>
    <g style="fill:#000000" rx="0" ry="0">
      <g>
        <g>
          <path d="M-507.000,-260.944L-207.000,-260.944" style="fill-rule:evenodd;clip-rule:evenodd;stroke-linejoin:round;stroke-miterlimit:1.5;fill:none">
          </path>
        </g>
        <g style="fill-rule:evenodd;clip-rule:evenodd;stroke-linejoin:round;stroke-miterlimit:1.5;fill:none">
          <g>
            <path d="M-507.000,-260.944L-207.000,-260.944" style="fill:none;fill-opacity:none;stroke-width:2.5;stroke:#bfbfbf;stroke-opacity:1">
            </path>
          </g>
        </g>
      </g>
      <g>
        <g>
          <path d="M-507.000,-240.566L-308.639,-240.566" style="fill-rule:evenodd;clip-rule:evenodd;stroke-linejoin:round;stroke-miterlimit:1.5;fill:none">
          </path>
        </g>
        <g style="fill-rule:evenodd;clip-rule:evenodd;stroke-linejoin:round;stroke-miterlimit:1.5;fill:none">
          <g>
            <path d="M-507.000,-240.566L-308.639,-240.566" style="fill:none;fill-opacity:none;stroke-width:2.5;stroke:#bfbfbf;stroke-opacity:1">
            </path>
          </g>
        </g>
      </g>
    </g>
    <g style="fill:#000000" rx="0" ry="0">
      <g>
        <g>
          <path d="M-377.252,-360.792C-377.252,-357.493,-378.433,-354.689,-380.796,-352.381C-383.159,-350.071,-386.028,-348.917,-389.403,-348.917C-392.779,-348.917,-395.648,-350.071,-398.011,-352.381C-400.374,-354.689,-401.555,-357.493,-401.555,-360.792C-401.555,-364.091,-400.374,-366.895,-398.011,-369.203C-395.648,-371.512,-392.779,-372.667,-389.403,-372.667C-386.028,-372.667,-383.159,-371.512,-380.796,-369.203C-378.433,-366.895,-377.252,-364.091,-377.252,-360.792ZZM-312.445,-337.041L-312.445,-309.333L-401.555,-309.333L-401.555,-321.208L-381.303,-341.000L-371.177,-331.104L-338.773,-362.771L-312.445,-337.041ZZM-306.370,-380.584L-407.630,-380.584C-408.179,-380.584,-408.653,-380.388,-409.055,-379.996C-409.455,-379.605,-409.656,-379.140,-409.656,-378.604L-409.656,-303.396C-409.656,-302.860,-409.455,-302.396,-409.055,-302.004C-408.653,-301.612,-408.179,-301.417,-407.630,-301.417L-306.370,-301.417C-305.821,-301.417,-305.347,-301.612,-304.945,-302.004C-304.545,-302.396,-304.344,-302.860,-304.344,-303.396L-304.344,-378.604C-304.344,-379.140,-304.545,-379.605,-304.945,-379.996C-305.347,-380.388,-305.821,-380.584,-306.370,-380.584ZZM-296.244,-378.604L-296.244,-303.396C-296.244,-300.675,-297.236,-298.345,-299.219,-296.407C-301.201,-294.469,-303.584,-293.500,-306.370,-293.500L-407.630,-293.500C-410.416,-293.500,-412.799,-294.469,-414.781,-296.407C-416.764,-298.345,-417.756,-300.675,-417.756,-303.396L-417.756,-378.604C-417.756,-381.326,-416.764,-383.655,-414.781,-385.593C-412.799,-387.531,-410.416,-388.500,-407.630,-388.500L-306.370,-388.500C-303.584,-388.500,-301.201,-387.531,-299.219,-385.593C-297.236,-383.655,-296.244,-381.326,-296.244,-378.604ZZ" style="fill-rule:nonzero;clip-rule:evenodd;stroke-linejoin:round;stroke-miterlimit:1.5;fill:#666666">
          </path>
        </g>
      </g>
    </g>
    <g rx="0" ry="0">
      <g>
        <g>
          <path d="M-454.300,-325.733L-469.567,-341.000L-454.300,-356.300L-459.000,-361.000L-479.000,-341.000L-459.000,-321.000L-454.300,-325.733ZZ" style="fill:#666666;fill-opacity:1">
          </path>
        </g>
      </g>
      <g>
        <g>
          <path d="M-264.763,-356.267L-249.497,-341.000L-264.763,-325.700L-260.063,-321.000L-240.063,-341.000L-260.063,-361.000L-264.763,-356.267ZZ" style="fill:#666666;fill-opacity:1">
          </path>
        </g>
      </g>
    </g>
  </g>
</svg>