<svg width="400" xmlns="http://www.w3.org/2000/svg" height="300" id="screenshot-a0937884-587a-805c-8005-b56a120bb794" viewBox="-71 234 400 300" style="-webkit-print-color-adjust::exact" xmlns:xlink="http://www.w3.org/1999/xlink" fill="none" version="1.1">
  <g id="shape-a0937884-587a-805c-8005-b56a120bb794" style="fill:#000000" xml:space="preserve" rx="0" ry="0">
    <g id="shape-a0937884-587a-805c-8005-b56a120bb795" style="display:none">
      <g class="fills" id="fills-a0937884-587a-805c-8005-b56a120bb795">
        <rect rx="0" ry="0" x="-71" y="234" transform="matrix(1.000000, 0.000000, 0.000000, 1.000000, 0.000000, 0.000000)" width="400" height="300" style="fill-rule:evenodd;clip-rule:evenodd;stroke-linejoin:round;stroke-miterlimit:1.5;fill:none" fill="none">
        </rect>
      </g>
    </g>
    <g id="shape-a0937884-587a-805c-8005-b56a120bb796">
      <g class="fills" id="fills-a0937884-587a-805c-8005-b56a120bb796">
        <rect rx="0" ry="0" x="-71" y="234" transform="matrix(1.000000, 0.000000, 0.000000, 1.000000, 0.000000, 0.000000)" width="400" height="300" style="fill-rule:evenodd;clip-rule:evenodd;stroke-linejoin:round;stroke-miterlimit:1.5;fill:#f2f2f2">
        </rect>
      </g>
    </g>
    <g id="shape-a0937884-587a-805c-8005-b56a120bb797" rx="0" ry="0">
      <g id="shape-a0937884-587a-805c-8005-b56a120bb79a">
        <g class="fills" id="fills-a0937884-587a-805c-8005-b56a120bb79a">
          <path d="M-21.000,463.622L279.000,463.622" style="fill-rule:evenodd;clip-rule:evenodd;stroke-linejoin:round;stroke-miterlimit:1.5;fill:none">
          </path>
        </g>
        <g style="fill-rule:evenodd;clip-rule:evenodd;stroke-linejoin:round;stroke-miterlimit:1.5;fill:none" id="strokes-a0937884-587a-805c-8005-b56a120bb79a" class="strokes">
          <g class="stroke-shape">
            <path d="M-21.000,463.622L279.000,463.622" style="fill:none;fill-opacity:none;stroke-width:2.5;stroke:#bfbfbf;stroke-opacity:1">
            </path>
          </g>
        </g>
      </g>
      <g id="shape-a0937884-587a-805c-8005-b56a120bb79b">
        <g class="fills" id="fills-a0937884-587a-805c-8005-b56a120bb79b">
          <path d="M-21.000,484.000L125.820,484.000" style="fill-rule:evenodd;clip-rule:evenodd;stroke-linejoin:round;stroke-miterlimit:1.5;fill:none">
          </path>
        </g>
        <g style="fill-rule:evenodd;clip-rule:evenodd;stroke-linejoin:round;stroke-miterlimit:1.5;fill:none" id="strokes-a0937884-587a-805c-8005-b56a120bb79b" class="strokes">
          <g class="stroke-shape">
            <path d="M-21.000,484.000L125.820,484.000" style="fill:none;fill-opacity:none;stroke-width:2.5;stroke:#bfbfbf;stroke-opacity:1">
            </path>
          </g>
        </g>
      </g>
    </g>
    <g id="shape-a0937884-587a-805c-8005-b624f3ff32b9" style="opacity:0.3" rx="0" ry="0">
      <g id="shape-a0937884-587a-805c-8005-b624ef706dfb">
        <g class="fills" id="fills-a0937884-587a-805c-8005-b624ef706dfb">
          <path d="M208.000,369.833C208.000,372.195,207.154,374.201,205.462,375.854C203.771,377.507,201.717,378.333,199.300,378.333C196.883,378.333,194.829,377.507,193.138,375.854C191.446,374.201,190.600,372.195,190.600,369.833C190.600,367.472,191.446,365.465,193.138,363.812C194.829,362.159,196.883,361.333,199.300,361.333C201.717,361.333,203.771,362.159,205.462,363.812C207.154,365.465,208.000,367.472,208.000,369.833ZZM254.400,386.834L254.400,406.667L190.600,406.667L190.600,398.167L205.100,384.000L212.350,391.083L235.550,368.417L254.400,386.834ZZM258.750,355.666L186.250,355.666C185.858,355.666,185.517,355.807,185.231,356.087C184.943,356.367,184.800,356.700,184.800,357.083L184.800,410.917C184.800,411.300,184.943,411.632,185.231,411.913C185.517,412.193,185.858,412.333,186.250,412.333L258.750,412.333C259.142,412.333,259.483,412.193,259.769,411.913C260.057,411.632,260.200,411.300,260.200,410.917L260.200,357.083C260.200,356.700,260.057,356.367,259.769,356.087C259.483,355.807,259.142,355.666,258.750,355.666ZZM266.000,357.083L266.000,410.917C266.000,412.864,265.290,414.532,263.870,415.919C262.451,417.306,260.744,418.000,258.750,418.000L186.250,418.000C184.256,418.000,182.549,417.306,181.130,415.919C179.710,414.532,179.000,412.864,179.000,410.917L179.000,357.083C179.000,355.135,179.710,353.468,181.130,352.081C182.549,350.694,184.256,350.000,186.250,350.000L258.750,350.000C260.744,350.000,262.451,350.694,263.870,352.081C265.290,353.468,266.000,355.135,266.000,357.083ZZ" style="fill-rule:nonzero;clip-rule:evenodd;stroke-linejoin:round;stroke-miterlimit:1.5;fill:#666666">
          </path>
        </g>
      </g>
      <g id="shape-a0937884-587a-805c-8005-b624ef708342">
        <g class="fills" id="fills-a0937884-587a-805c-8005-b624ef708342">
          <path d="M115.000,369.833C115.000,372.195,114.154,374.201,112.463,375.854C110.771,377.507,108.716,378.333,106.300,378.333C103.883,378.333,101.828,377.507,100.137,375.854C98.445,374.201,97.599,372.195,97.599,369.833C97.599,367.472,98.445,365.465,100.137,363.812C101.828,362.159,103.883,361.333,106.300,361.333C108.716,361.333,110.771,362.159,112.463,363.812C114.154,365.465,115.000,367.472,115.000,369.833ZZM161.401,386.834L161.401,406.667L97.599,406.667L97.599,398.167L112.099,384.000L119.349,391.083L142.550,368.417L161.401,386.834ZZM165.750,355.666L93.250,355.666C92.857,355.666,92.517,355.807,92.230,356.087C91.943,356.367,91.799,356.700,91.799,357.083L91.799,410.917C91.799,411.300,91.943,411.632,92.230,411.913C92.517,412.193,92.857,412.333,93.250,412.333L165.750,412.333C166.143,412.333,166.483,412.193,166.770,411.913C167.057,411.632,167.201,411.300,167.201,410.917L167.201,357.083C167.201,356.700,167.057,356.367,166.770,356.087C166.483,355.807,166.143,355.666,165.750,355.666ZZM173.000,357.083L173.000,410.917C173.000,412.864,172.290,414.532,170.870,415.919C169.451,417.306,167.745,418.000,165.750,418.000L93.250,418.000C91.255,418.000,89.549,417.306,88.130,415.919C86.710,414.532,86.000,412.864,86.000,410.917L86.000,357.083C86.000,355.135,86.710,353.468,88.130,352.081C89.549,350.694,91.255,350.000,93.250,350.000L165.750,350.000C167.745,350.000,169.451,350.694,170.870,352.081C172.290,353.468,173.000,355.135,173.000,357.083ZZ" style="fill-rule:nonzero;clip-rule:evenodd;stroke-linejoin:round;stroke-miterlimit:1.5;fill:#666666">
          </path>
        </g>
      </g>
      <g id="shape-a0937884-587a-805c-8005-b624ef708343">
        <g class="fills" id="fills-a0937884-587a-805c-8005-b624ef708343">
          <path d="M21.000,369.833C21.000,372.195,20.154,374.201,18.462,375.854C16.771,377.507,14.717,378.333,12.300,378.333C9.883,378.333,7.829,377.507,6.138,375.854C4.446,374.201,3.600,372.195,3.600,369.833C3.600,367.472,4.446,365.465,6.138,363.812C7.829,362.159,9.883,361.333,12.300,361.333C14.717,361.333,16.771,362.159,18.462,363.812C20.154,365.465,21.000,367.472,21.000,369.833ZZM67.400,386.834L67.400,406.667L3.600,406.667L3.600,398.167L18.100,384.000L25.350,391.083L48.550,368.417L67.400,386.834ZZM71.750,355.666L-0.750,355.666C-1.142,355.666,-1.483,355.807,-1.769,356.087C-2.057,356.367,-2.200,356.700,-2.200,357.083L-2.200,410.917C-2.200,411.300,-2.057,411.632,-1.769,411.913C-1.483,412.193,-1.142,412.333,-0.750,412.333L71.750,412.333C72.142,412.333,72.483,412.193,72.769,411.913C73.057,411.632,73.200,411.300,73.200,410.917L73.200,357.083C73.200,356.700,73.057,356.367,72.769,356.087C72.483,355.807,72.142,355.666,71.750,355.666ZZM79.000,357.083L79.000,410.917C79.000,412.864,78.290,414.532,76.870,415.919C75.451,417.306,73.744,418.000,71.750,418.000L-0.750,418.000C-2.744,418.000,-4.451,417.306,-5.870,415.919C-7.290,414.532,-8.000,412.864,-8.000,410.917L-8.000,357.083C-8.000,355.135,-7.290,353.468,-5.870,352.081C-4.451,350.694,-2.744,350.000,-0.750,350.000L71.750,350.000C73.744,350.000,75.451,350.694,76.870,352.081C78.290,353.468,79.000,355.135,79.000,357.083ZZ" style="fill-rule:nonzero;clip-rule:evenodd;stroke-linejoin:round;stroke-miterlimit:1.5;fill:#666666">
          </path>
        </g>
      </g>
    </g>
    <g id="shape-a0937884-587a-805c-8005-b624e3cb5c39" rx="0" ry="0">
      <g id="shape-a0937884-587a-805c-8005-b56aec5d8a7e">
        <defs>
          <filter id="filter-render-1227" x="-0.28662420382165604" y="-0.36585365853658536" width="1.5732484076433122" height="1.829268292682927" filterUnits="objectBoundingBox" color-interpolation-filters="sRGB">
            <feFlood flood-opacity="0" result="BackgroundImageFix">
            </feFlood>
            <feColorMatrix in="SourceAlpha" type="matrix" values="0 0 0 0 0 0 0 0 0 0 0 0 0 0 0 0 0 0 127 0">
            </feColorMatrix>
            <feOffset dx="0" dy="4">
            </feOffset>
            <feGaussianBlur stdDeviation="5">
            </feGaussianBlur>
            <feColorMatrix type="matrix" values="0 0 0 0 0 0 0 0 0 0 0 0 0 0 0 0 0 0 0.4 0">
            </feColorMatrix>
            <feBlend mode="normal" in2="BackgroundImageFix" result="filter_a0937884-587a-805c-8005-b56bc7deac10">
            </feBlend>
            <feBlend mode="normal" in="SourceGraphic" in2="filter_a0937884-587a-805c-8005-b56bc7deac10" result="shape">
            </feBlend>
          </filter>
          <filter id="filter-shadow-render-1227" x="-0.28662420382165604" y="-0.36585365853658536" width="1.5732484076433122" height="1.829268292682927" filterUnits="objectBoundingBox" color-interpolation-filters="sRGB">
            <feFlood flood-opacity="0" result="BackgroundImageFix">
            </feFlood>
            <feColorMatrix in="SourceAlpha" type="matrix" values="0 0 0 0 0 0 0 0 0 0 0 0 0 0 0 0 0 0 127 0">
            </feColorMatrix>
            <feOffset dx="0" dy="4">
            </feOffset>
            <feGaussianBlur stdDeviation="5">
            </feGaussianBlur>
            <feColorMatrix type="matrix" values="0 0 0 0 0 0 0 0 0 0 0 0 0 0 0 0 0 0 0.4 0">
            </feColorMatrix>
            <feBlend mode="normal" in2="BackgroundImageFix" result="filter_a0937884-587a-805c-8005-b56bc7deac10">
            </feBlend>
            <feBlend mode="normal" in="SourceGraphic" in2="filter_a0937884-587a-805c-8005-b56bc7deac10" result="shape">
            </feBlend>
          </filter>
        </defs>
        <g class="fills" id="fills-a0937884-587a-805c-8005-b56aec5d8a7e">
          <rect rx="0" ry="0" x="52" y="320" transform="matrix(1.000000, 0.000000, 0.000000, 1.000000, 0.000000, 0.000000)" width="157" height="123" filter="url(#filter-render-1227)" style="fill:#ffffff;fill-opacity:1">
          </rect>
        </g>
      </g>
      <g id="shape-a0937884-587a-805c-8005-b56ae0453c7e">
        <g class="fills" id="fills-a0937884-587a-805c-8005-b56ae0453c7e">
          <path d="M113.666,368.041C113.666,370.785,112.684,373.116,110.721,375.036C108.757,376.957,106.373,377.916,103.567,377.916C100.761,377.916,98.376,376.957,96.413,375.036C94.449,373.116,93.467,370.785,93.467,368.041C93.467,365.298,94.449,362.966,96.413,361.047C98.376,359.126,100.761,358.167,103.567,358.167C106.373,358.167,108.757,359.126,110.721,361.047C112.684,362.966,113.666,365.298,113.666,368.041ZZM167.533,387.792L167.533,410.833L93.467,410.833L93.467,400.959L110.300,384.500L118.717,392.729L145.650,366.396L167.533,387.792ZZM172.583,351.583L88.417,351.583C87.961,351.583,87.566,351.746,87.233,352.072C86.900,352.397,86.733,352.784,86.733,353.229L86.733,415.771C86.733,416.216,86.900,416.602,87.233,416.928C87.566,417.254,87.961,417.416,88.417,417.416L172.583,417.416C173.039,417.416,173.434,417.254,173.767,416.928C174.100,416.602,174.267,416.216,174.267,415.771L174.267,353.229C174.267,352.784,174.100,352.397,173.767,352.072C173.434,351.746,173.039,351.583,172.583,351.583ZZM181.000,353.229L181.000,415.771C181.000,418.033,180.176,419.971,178.528,421.583C176.880,423.194,174.898,424.000,172.583,424.000L88.417,424.000C86.102,424.000,84.120,423.194,82.472,421.583C80.824,419.971,80.000,418.033,80.000,415.771L80.000,353.229C80.000,350.966,80.824,349.029,82.472,347.417C84.120,345.806,86.102,345.000,88.417,345.000L172.583,345.000C174.898,345.000,176.880,345.806,178.528,347.417C180.176,349.029,181.000,350.966,181.000,353.229ZZ" style="fill-rule:nonzero;clip-rule:evenodd;stroke-linejoin:round;stroke-miterlimit:1.5;fill:#666666">
          </path>
        </g>
      </g>
      <g id="shape-a0937884-587a-805c-8005-b56bf538ce2c">
        <g class="fills" id="fills-a0937884-587a-805c-8005-b56bf538ce2c">
          <path d="M202.000,331.410L200.590,330.000L195.000,335.590L189.410,330.000L188.000,331.410L193.590,337.000L188.000,342.590L189.410,344.000L195.000,338.410L200.590,344.000L202.000,342.590L196.410,337.000L202.000,331.410ZZ" style="fill:#666666;fill-opacity:1">
          </path>
        </g>
      </g>
    </g>
    <g id="shape-a0937884-587a-805c-8005-b56a120bb799" rx="0" ry="0">
      <g id="shape-a0937884-587a-805c-8005-b56a120bb7b4">
        <g class="fills" id="fills-a0937884-587a-805c-8005-b56a120bb7b4">
          <path d="M-21.000,284.000L279.000,284.000" style="fill-rule:evenodd;clip-rule:evenodd;stroke-linejoin:round;stroke-miterlimit:1.5;fill:none">
          </path>
        </g>
        <g style="fill-rule:evenodd;clip-rule:evenodd;stroke-linejoin:round;stroke-miterlimit:1.5;fill:none" id="strokes-a0937884-587a-805c-8005-b56a120bb7b4" class="strokes">
          <g class="stroke-shape">
            <path d="M-21.000,284.000L279.000,284.000" style="fill:none;fill-opacity:none;stroke-width:2.5;stroke:#bfbfbf;stroke-opacity:1">
            </path>
          </g>
        </g>
      </g>
      <g id="shape-a0937884-587a-805c-8005-b56a120bb7b5">
        <g class="fills" id="fills-a0937884-587a-805c-8005-b56a120bb7b5">
          <path d="M-21.000,304.378L177.361,304.378" style="fill-rule:evenodd;clip-rule:evenodd;stroke-linejoin:round;stroke-miterlimit:1.5;fill:none">
          </path>
        </g>
        <g style="fill-rule:evenodd;clip-rule:evenodd;stroke-linejoin:round;stroke-miterlimit:1.5;fill:none" id="strokes-a0937884-587a-805c-8005-b56a120bb7b5" class="strokes">
          <g class="stroke-shape">
            <path d="M-21.000,304.378L177.361,304.378" style="fill:none;fill-opacity:none;stroke-width:2.5;stroke:#bfbfbf;stroke-opacity:1">
            </path>
          </g>
        </g>
      </g>
    </g>
  </g>
</svg>
