<svg width="400" xmlns="http://www.w3.org/2000/svg" height="300" id="screenshot-08eb0eea-4245-807b-8005-d18391cfc50c" viewBox="-1034 595 400 300" style="-webkit-print-color-adjust::exact" xmlns:xlink="http://www.w3.org/1999/xlink" fill="none" version="1.1">
  <g id="shape-08eb0eea-4245-807b-8005-d18391cfc50c" style="fill:#000000" xml:space="preserve" rx="0" ry="0">
    <g id="shape-08eb0eea-4245-807b-8005-d18391cfc50d">
      <g class="fills" id="fills-08eb0eea-4245-807b-8005-d18391cfc50d">
        <rect rx="0" ry="0" x="-1034" y="595" transform="matrix(1.000000, 0.000000, 0.000000, 1.000000, 0.000000, 0.000000)" width="400" height="300" style="fill-rule:evenodd;clip-rule:evenodd;stroke-linejoin:round;stroke-miterlimit:1.5;fill:#f2f2f2">
        </rect>
      </g>
    </g>
    <g id="shape-08eb0eea-4245-807b-8005-d18391cfc50e" rx="0" ry="0">
      <g id="shape-08eb0eea-4245-807b-8005-d18391cfc511">
        <g class="fills" id="fills-08eb0eea-4245-807b-8005-d18391cfc511">
          <path d="M-984.000,824.622L-684.000,824.622" style="fill-rule:evenodd;clip-rule:evenodd;stroke-linejoin:round;stroke-miterlimit:1.5;fill:none">
          </path>
        </g>
        <g style="fill-rule:evenodd;clip-rule:evenodd;stroke-linejoin:round;stroke-miterlimit:1.5;fill:none" id="strokes-08eb0eea-4245-807b-8005-d1870fc6cbf8-08eb0eea-4245-807b-8005-d18391cfc511" class="strokes">
          <g class="stroke-shape">
            <path d="M-984.000,824.622L-684.000,824.622" style="fill:none;fill-opacity:none;stroke-width:2.5;stroke:#bfbfbf;stroke-opacity:1">
            </path>
          </g>
        </g>
      </g>
      <g id="shape-08eb0eea-4245-807b-8005-d18391cfc512">
        <g class="fills" id="fills-08eb0eea-4245-807b-8005-d18391cfc512">
          <path d="M-984.000,845.000L-837.180,845.000" style="fill-rule:evenodd;clip-rule:evenodd;stroke-linejoin:round;stroke-miterlimit:1.5;fill:none">
          </path>
        </g>
        <g style="fill-rule:evenodd;clip-rule:evenodd;stroke-linejoin:round;stroke-miterlimit:1.5;fill:none" id="strokes-08eb0eea-4245-807b-8005-d1870fc71c09-08eb0eea-4245-807b-8005-d18391cfc512" class="strokes">
          <g class="stroke-shape">
            <path d="M-984.000,845.000L-837.180,845.000" style="fill:none;fill-opacity:none;stroke-width:2.5;stroke:#bfbfbf;stroke-opacity:1">
            </path>
          </g>
        </g>
      </g>
    </g>
    <g id="shape-08eb0eea-4245-807b-8005-d18391cfc510" rx="0" ry="0">
      <g id="shape-08eb0eea-4245-807b-8005-d18391cfc518">
        <g class="fills" id="fills-08eb0eea-4245-807b-8005-d18391cfc518">
          <path d="M-984.000,645.000L-684.000,645.000" style="fill-rule:evenodd;clip-rule:evenodd;stroke-linejoin:round;stroke-miterlimit:1.5;fill:none">
          </path>
        </g>
        <g style="fill-rule:evenodd;clip-rule:evenodd;stroke-linejoin:round;stroke-miterlimit:1.5;fill:none" id="strokes-08eb0eea-4245-807b-8005-d1870fc766c6-08eb0eea-4245-807b-8005-d18391cfc518" class="strokes">
          <g class="stroke-shape">
            <path d="M-984.000,645.000L-684.000,645.000" style="fill:none;fill-opacity:none;stroke-width:2.5;stroke:#bfbfbf;stroke-opacity:1">
            </path>
          </g>
        </g>
      </g>
      <g id="shape-08eb0eea-4245-807b-8005-d18391cfc519">
        <g class="fills" id="fills-08eb0eea-4245-807b-8005-d18391cfc519">
          <path d="M-984.000,665.378L-785.639,665.378" style="fill-rule:evenodd;clip-rule:evenodd;stroke-linejoin:round;stroke-miterlimit:1.5;fill:none">
          </path>
        </g>
        <g style="fill-rule:evenodd;clip-rule:evenodd;stroke-linejoin:round;stroke-miterlimit:1.5;fill:none" id="strokes-08eb0eea-4245-807b-8005-d1870fc766c7-08eb0eea-4245-807b-8005-d18391cfc519" class="strokes">
          <g class="stroke-shape">
            <path d="M-984.000,665.378L-785.639,665.378" style="fill:none;fill-opacity:none;stroke-width:2.5;stroke:#bfbfbf;stroke-opacity:1">
            </path>
          </g>
        </g>
      </g>
    </g>
    <g id="shape-08eb0eea-4245-807b-8005-d186a469e678">
      <g class="fills" id="fills-08eb0eea-4245-807b-8005-d186a469e678">
        <path d="M-811.392,720.099C-811.392,730.382,-825.164,748.706,-831.212,756.258C-832.662,758.066,-835.356,758.066,-836.788,756.258C-842.836,748.706,-856.608,730.382,-856.608,720.099C-856.608,707.613,-846.491,697.500,-834.000,697.500C-821.509,697.500,-811.392,707.613,-811.392,720.099ZZM-809.885,735.241C-809.226,733.942,-808.623,732.642,-808.076,731.361C-807.982,731.135,-807.888,730.891,-807.794,730.665L-785.939,721.926C-782.963,720.740,-779.741,722.924,-779.741,726.126L-779.741,777.125C-779.741,778.971,-780.871,780.628,-782.586,781.325L-809.885,792.229L-809.885,735.241ZZM-862.335,723.546C-861.883,726.201,-860.979,728.875,-859.924,731.361C-859.377,732.642,-858.774,733.942,-858.115,735.241L-858.115,782.587L-882.061,792.173C-885.037,793.359,-888.259,791.174,-888.259,787.973L-888.259,736.974C-888.259,735.128,-887.129,733.471,-885.414,732.774L-862.335,723.546ZZM-826.502,760.025C-823.883,756.748,-819.776,751.418,-815.914,745.524L-815.914,792.474L-852.086,782.135L-852.086,745.524C-848.224,751.418,-844.117,756.748,-841.498,760.025C-837.636,764.846,-830.364,764.846,-826.502,760.025ZZM-834.000,726.126C-829.838,726.126,-826.464,722.753,-826.464,718.593C-826.464,714.432,-829.838,711.060,-834.000,711.060C-838.162,711.060,-841.536,714.432,-841.536,718.593C-841.536,722.753,-838.162,726.126,-834.000,726.126ZZ" style="fill:#666666;fill-opacity:1">
        </path>
      </g>
    </g>
  </g>
</svg>