<svg width="400" xmlns="http://www.w3.org/2000/svg" height="300" viewBox="401 -491 400 300" style="-webkit-print-color-adjust::exact" xmlns:xlink="http://www.w3.org/1999/xlink" fill="none" version="1.1">
  <g style="fill:#000000" xml:space="preserve" rx="0" ry="0">
    <g>
      <g>
        <rect rx="0" ry="0" x="401" y="-491" transform="matrix(1.000000, 0.000000, 0.000000, 1.000000, 0.000000, 0.000000)" width="400" height="300" style="fill-rule:evenodd;clip-rule:evenodd;stroke-linejoin:round;stroke-miterlimit:1.5;fill:#f2f2f2">
        </rect>
      </g>
    </g>
    <g rx="0" ry="0">
      <g>
        <g>
          <path d="M451.000,-261.378L751.000,-261.378" style="fill-rule:evenodd;clip-rule:evenodd;stroke-linejoin:round;stroke-miterlimit:1.5;fill:none">
          </path>
        </g>
        <g style="fill-rule:evenodd;clip-rule:evenodd;stroke-linejoin:round;stroke-miterlimit:1.5;fill:none">
          <g>
            <path d="M451.000,-261.378L751.000,-261.378" style="fill:none;fill-opacity:none;stroke-width:2.5;stroke:#bfbfbf;stroke-opacity:1">
            </path>
          </g>
        </g>
      </g>
      <g>
        <g>
          <path d="M451.000,-241.000L597.820,-241.000" style="fill-rule:evenodd;clip-rule:evenodd;stroke-linejoin:round;stroke-miterlimit:1.5;fill:none">
          </path>
        </g>
        <g style="fill-rule:evenodd;clip-rule:evenodd;stroke-linejoin:round;stroke-miterlimit:1.5;fill:none">
          <g>
            <path d="M451.000,-241.000L597.820,-241.000" style="fill:none;fill-opacity:none;stroke-width:2.5;stroke:#bfbfbf;stroke-opacity:1">
            </path>
          </g>
        </g>
      </g>
    </g>
    <g rx="0" ry="0">
      <g>
        <g>
          <path d="M494.556,-365.500C497.562,-365.500,500.000,-363.062,500.000,-360.056L500.000,-321.944C500.000,-318.923,497.550,-316.500,494.556,-316.500L456.444,-316.500C453.438,-316.500,451.000,-318.938,451.000,-321.944L451.000,-360.056C451.000,-363.062,453.438,-365.500,456.444,-365.500L494.556,-365.500ZM485.246,-327.389L482.659,-338.496L491.262,-345.927L479.910,-346.907L475.500,-357.333L471.090,-346.880L459.738,-345.900L468.341,-338.468L465.754,-327.389L475.500,-333.269L485.246,-327.389ZZ" style="fill:#666666;fill-opacity:1">
          </path>
        </g>
      </g>
      <g>
        <g>
          <path d="M557.306,-365.500C560.312,-365.500,562.750,-363.062,562.750,-360.056L562.750,-321.944C562.750,-318.923,560.300,-316.500,557.306,-316.500L519.194,-316.500C516.188,-316.500,513.750,-318.938,513.750,-321.944L513.750,-360.056C513.750,-363.062,516.188,-365.500,519.194,-365.500L557.306,-365.500ZM547.996,-327.389L545.409,-338.496L554.012,-345.927L542.660,-346.907L538.250,-357.333L533.840,-346.880L522.488,-345.900L531.091,-338.468L528.504,-327.389L538.250,-333.269L547.996,-327.389ZZ" style="fill:#666666;fill-opacity:1">
          </path>
        </g>
      </g>
      <g>
        <g>
          <path d="M620.056,-365.500C623.062,-365.500,625.500,-363.062,625.500,-360.056L625.500,-321.944C625.500,-318.923,623.050,-316.500,620.056,-316.500L581.944,-316.500C578.938,-316.500,576.500,-318.938,576.500,-321.944L576.500,-360.056C576.500,-363.062,578.938,-365.500,581.944,-365.500L620.056,-365.500ZM610.746,-327.389L608.159,-338.496L616.762,-345.927L605.410,-346.907L601.000,-357.333L596.590,-346.880L585.238,-345.900L593.841,-338.468L591.254,-327.389L601.000,-333.269L610.746,-327.389ZZ" style="fill:#666666;fill-opacity:1">
          </path>
        </g>
      </g>
      <g>
        <g>
          <path d="M682.806,-365.500C685.812,-365.500,688.250,-363.062,688.250,-360.056L688.250,-321.944C688.250,-318.923,685.800,-316.500,682.806,-316.500L644.694,-316.500C641.688,-316.500,639.250,-318.938,639.250,-321.944L639.250,-360.056C639.250,-363.062,641.688,-365.500,644.694,-365.500L682.806,-365.500ZM673.496,-327.389L670.909,-338.496L679.512,-345.927L668.160,-346.907L663.750,-357.333L659.340,-346.880L647.988,-345.900L656.591,-338.468L654.004,-327.389L663.750,-333.269L673.496,-327.389ZZ" style="fill:#666666;fill-opacity:1">
          </path>
        </g>
      </g>
      <g>
        <g>
          <path d="M745.556,-365.500C748.562,-365.500,751.000,-363.062,751.000,-360.056L751.000,-321.944C751.000,-318.923,748.550,-316.500,745.556,-316.500L707.444,-316.500C704.438,-316.500,702.000,-318.938,702.000,-321.944L702.000,-360.056C702.000,-363.062,704.438,-365.500,707.444,-365.500L745.556,-365.500ZM736.246,-327.389L733.659,-338.496L742.262,-345.927L730.910,-346.907L726.500,-357.333L722.090,-346.880L710.738,-345.900L719.341,-338.468L716.754,-327.389L726.500,-333.269L736.246,-327.389ZZ" style="fill:#666666;fill-opacity:1">
          </path>
        </g>
      </g>
    </g>
    <g rx="0" ry="0">
      <g>
        <g>
          <path d="M451.000,-441.000L751.000,-441.000" style="fill-rule:evenodd;clip-rule:evenodd;stroke-linejoin:round;stroke-miterlimit:1.5;fill:none">
          </path>
        </g>
        <g style="fill-rule:evenodd;clip-rule:evenodd;stroke-linejoin:round;stroke-miterlimit:1.5;fill:none">
          <g>
            <path d="M451.000,-441.000L751.000,-441.000" style="fill:none;fill-opacity:none;stroke-width:2.5;stroke:#bfbfbf;stroke-opacity:1">
            </path>
          </g>
        </g>
      </g>
      <g>
        <g>
          <path d="M451.000,-420.622L649.361,-420.622" style="fill-rule:evenodd;clip-rule:evenodd;stroke-linejoin:round;stroke-miterlimit:1.5;fill:none">
          </path>
        </g>
        <g style="fill-rule:evenodd;clip-rule:evenodd;stroke-linejoin:round;stroke-miterlimit:1.5;fill:none">
          <g>
            <path d="M451.000,-420.622L649.361,-420.622" style="fill:none;fill-opacity:none;stroke-width:2.5;stroke:#bfbfbf;stroke-opacity:1">
            </path>
          </g>
        </g>
      </g>
    </g>
  </g>
</svg>