<svg width="400" xmlns="http://www.w3.org/2000/svg" height="300" viewBox="401 -1223 400 300" style="-webkit-print-color-adjust::exact" xmlns:xlink="http://www.w3.org/1999/xlink" fill="none" version="1.1">
  <g style="fill:#000000" xml:space="preserve" rx="0" ry="0">
    <g style="display:none">
      <g>
        <rect rx="0" ry="0" x="401" y="-1223" transform="matrix(1.000000, 0.000000, 0.000000, 1.000000, 0.000000, 0.000000)" width="400" height="300.0000000000001" style="fill-rule:evenodd;clip-rule:evenodd;stroke-linejoin:round;stroke-miterlimit:1.5;fill:none" fill="none">
        </rect>
      </g>
    </g>
    <g>
      <g>
        <rect rx="0" ry="0" x="401" y="-1223" transform="matrix(1.000000, 0.000000, 0.000000, 1.000000, 0.000000, 0.000000)" width="400" height="300.0000000000001" style="fill-rule:evenodd;clip-rule:evenodd;stroke-linejoin:round;stroke-miterlimit:1.5;fill:#f2f2f2">
        </rect>
      </g>
    </g>
    <g>
      <g>
        <path d="M451.000,-993.378L751.000,-993.378" style="fill-rule:evenodd;clip-rule:evenodd;stroke-linejoin:round;stroke-miterlimit:1.5;fill:none">
        </path>
      </g>
      <g style="fill-rule:evenodd;clip-rule:evenodd;stroke-linejoin:round;stroke-miterlimit:1.5;fill:none">
        <g>
          <path d="M451.000,-993.378L751.000,-993.378" style="fill:none;fill-opacity:none;stroke-width:2.5;stroke:#bfbfbf;stroke-opacity:1">
          </path>
        </g>
      </g>
    </g>
    <g>
      <g>
        <path d="M451.000,-973.000L597.820,-973.000" style="fill-rule:evenodd;clip-rule:evenodd;stroke-linejoin:round;stroke-miterlimit:1.5;fill:none">
        </path>
      </g>
      <g style="fill-rule:evenodd;clip-rule:evenodd;stroke-linejoin:round;stroke-miterlimit:1.5;fill:none">
        <g>
          <path d="M451.000,-973.000L597.820,-973.000" style="fill:none;fill-opacity:none;stroke-width:2.5;stroke:#bfbfbf;stroke-opacity:1">
          </path>
        </g>
      </g>
    </g>
    <g style="fill:#000000" width="128" height="26" rx="0" ry="0">
      <g>
        <g>
          <path d="M740.508,-1115.000L460.492,-1115.000C457.870,-1115.000,456.558,-1115.000,455.557,-1114.173C454.676,-1113.446,453.959,-1112.286,453.510,-1110.859C453.000,-1109.237,453.000,-1107.114,453.000,-1102.867L453.000,-1036.133C453.000,-1031.886,453.000,-1029.763,453.510,-1028.140C453.959,-1026.714,454.676,-1025.553,455.557,-1024.827C456.558,-1024.000,457.870,-1024.000,460.492,-1024.000L565.381,-1024.000L635.619,-1024.000L740.508,-1024.000C743.130,-1024.000,744.441,-1024.000,745.443,-1024.827C746.324,-1025.553,747.040,-1026.714,747.490,-1028.140C748.000,-1029.763,748.000,-1031.886,748.000,-1036.133L748.000,-1102.867C748.000,-1107.114,748.000,-1109.237,747.490,-1110.859C747.040,-1112.286,746.324,-1113.446,745.443,-1114.173C744.441,-1115.000,743.130,-1115.000,740.508,-1115.000ZZ" style="fill:#9a9a9a;fill-opacity:0.25">
          </path>
        </g>
        <g>
          <g>
            <path d="M740.508,-1115.000L460.492,-1115.000C457.870,-1115.000,456.558,-1115.000,455.557,-1114.173C454.676,-1113.446,453.959,-1112.286,453.510,-1110.859C453.000,-1109.237,453.000,-1107.114,453.000,-1102.867L453.000,-1036.133C453.000,-1031.886,453.000,-1029.763,453.510,-1028.140C453.959,-1026.714,454.676,-1025.553,455.557,-1024.827C456.558,-1024.000,457.870,-1024.000,460.492,-1024.000L565.381,-1024.000L635.619,-1024.000L740.508,-1024.000C743.130,-1024.000,744.441,-1024.000,745.443,-1024.827C746.324,-1025.553,747.040,-1026.714,747.490,-1028.140C748.000,-1029.763,748.000,-1031.886,748.000,-1036.133L748.000,-1102.867C748.000,-1107.114,748.000,-1109.237,747.490,-1110.859C747.040,-1112.286,746.324,-1113.446,745.443,-1114.173C744.441,-1115.000,743.130,-1115.000,740.508,-1115.000ZZ" style="fill:none;fill-opacity:none;stroke-width:8;stroke:#656565;stroke-opacity:1;stroke-linecap:round">
            </path>
          </g>
        </g>
      </g>
      <g>
        <g>
          <path d="M610.675,-1067.375L597.426,-1058.849C596.290,-1058.119,595.723,-1057.753,595.257,-1057.810C594.851,-1057.860,594.483,-1058.100,594.243,-1058.473C593.969,-1058.900,593.969,-1059.636,593.969,-1061.108L593.969,-1078.160C593.969,-1079.632,593.969,-1080.368,594.243,-1080.795C594.483,-1081.168,594.851,-1081.409,595.257,-1081.458C595.723,-1081.515,596.290,-1081.150,597.426,-1080.419L610.675,-1071.893C611.825,-1071.153,612.400,-1070.783,612.593,-1070.298C612.761,-1069.876,612.761,-1069.393,612.593,-1068.970C612.400,-1068.485,611.825,-1068.115,610.675,-1067.375ZZ" style="fill:#666666;fill-opacity:1">
          </path>
        </g>
      </g>
    </g>
    <g>
      <g>
        <path d="M451.000,-1173.000L751.000,-1173.000" style="fill-rule:evenodd;clip-rule:evenodd;stroke-linejoin:round;stroke-miterlimit:1.5;fill:none">
        </path>
      </g>
      <g style="fill-rule:evenodd;clip-rule:evenodd;stroke-linejoin:round;stroke-miterlimit:1.5;fill:none">
        <g>
          <path d="M451.000,-1173.000L751.000,-1173.000" style="fill:none;fill-opacity:none;stroke-width:2.5;stroke:#bfbfbf;stroke-opacity:1">
          </path>
        </g>
      </g>
    </g>
    <g>
      <g>
        <path d="M451.000,-1152.622L649.361,-1152.622" style="fill-rule:evenodd;clip-rule:evenodd;stroke-linejoin:round;stroke-miterlimit:1.5;fill:none">
        </path>
      </g>
      <g style="fill-rule:evenodd;clip-rule:evenodd;stroke-linejoin:round;stroke-miterlimit:1.5;fill:none">
        <g>
          <path d="M451.000,-1152.622L649.361,-1152.622" style="fill:none;fill-opacity:none;stroke-width:2.5;stroke:#bfbfbf;stroke-opacity:1">
          </path>
        </g>
      </g>
    </g>
  </g>
</svg>