<svg width="400" xmlns="http://www.w3.org/2000/svg" height="300" viewBox="-1035 -491 400 300" style="-webkit-print-color-adjust::exact" xmlns:xlink="http://www.w3.org/1999/xlink" fill="none" version="1.1">
  <g style="fill:#000000" xml:space="preserve" rx="0" ry="0">
    <g style="display:none">
      <g>
        <rect rx="0" ry="0" x="-1035" y="-491" transform="matrix(1.000000, 0.000000, 0.000000, 1.000000, 0.000000, 0.000000)" width="400" height="300" style="fill-rule:evenodd;clip-rule:evenodd;stroke-linejoin:round;stroke-miterlimit:1.5;fill:none" fill="none">
        </rect>
      </g>
    </g>
    <g>
      <g>
        <rect rx="0" ry="0" x="-1035" y="-491" transform="matrix(1.000000, 0.000000, 0.000000, 1.000000, 0.000000, 0.000000)" width="400" height="300" style="fill-rule:evenodd;clip-rule:evenodd;stroke-linejoin:round;stroke-miterlimit:1.5;fill:#f2f2f2">
        </rect>
      </g>
    </g>
    <g rx="0" ry="0">
      <g>
        <g>
          <path d="M-985.000,-261.378L-685.000,-261.378" style="fill-rule:evenodd;clip-rule:evenodd;stroke-linejoin:round;stroke-miterlimit:1.5;fill:none">
          </path>
        </g>
        <g style="fill-rule:evenodd;clip-rule:evenodd;stroke-linejoin:round;stroke-miterlimit:1.5;fill:none">
          <g>
            <path d="M-985.000,-261.378L-685.000,-261.378" style="fill:none;fill-opacity:none;stroke-width:2.5;stroke:#bfbfbf;stroke-opacity:1">
            </path>
          </g>
        </g>
      </g>
      <g>
        <g>
          <path d="M-985.000,-241.000L-838.180,-241.000" style="fill-rule:evenodd;clip-rule:evenodd;stroke-linejoin:round;stroke-miterlimit:1.5;fill:none">
          </path>
        </g>
        <g style="fill-rule:evenodd;clip-rule:evenodd;stroke-linejoin:round;stroke-miterlimit:1.5;fill:none">
          <g>
            <path d="M-985.000,-241.000L-838.180,-241.000" style="fill:none;fill-opacity:none;stroke-width:2.5;stroke:#bfbfbf;stroke-opacity:1">
            </path>
          </g>
        </g>
      </g>
    </g>
    <g style="fill:#000000" width="512" height="512" xml:space="preserve" rx="0" ry="0">
      <g>
        <g>
          <path d="M-843.906,-376.625C-842.267,-376.625,-840.938,-377.955,-840.938,-379.594L-840.938,-385.531C-840.938,-387.170,-842.267,-388.500,-843.906,-388.500C-845.545,-388.500,-846.875,-387.170,-846.875,-385.531L-846.875,-379.594C-846.875,-377.955,-845.545,-376.625,-843.906,-376.625ZZM-820.817,-368.801L-816.619,-372.999C-815.460,-374.159,-815.460,-376.037,-816.619,-377.197C-817.779,-378.357,-819.657,-378.357,-820.817,-377.197L-825.015,-372.999C-826.175,-371.839,-826.175,-369.961,-825.015,-368.801C-823.856,-367.641,-821.977,-367.641,-820.817,-368.801ZZM-879.531,-346.938L-873.594,-346.938C-871.955,-346.938,-870.625,-348.267,-870.625,-349.906C-870.625,-351.545,-871.955,-352.875,-873.594,-352.875L-879.531,-352.875C-881.170,-352.875,-882.500,-351.545,-882.500,-349.906C-882.500,-348.267,-881.170,-346.938,-879.531,-346.938ZZM-817.188,-349.906C-817.188,-348.267,-815.858,-346.938,-814.219,-346.938L-808.281,-346.938C-806.642,-346.938,-805.312,-348.267,-805.312,-349.906C-805.312,-351.545,-806.642,-352.875,-808.281,-352.875L-814.219,-352.875C-815.858,-352.875,-817.188,-351.545,-817.188,-349.906ZZM-866.999,-368.801C-865.839,-367.641,-863.961,-367.641,-862.801,-368.801C-861.641,-369.961,-861.641,-371.839,-862.801,-372.999L-866.999,-377.197C-868.159,-378.357,-870.037,-378.357,-871.197,-377.197C-872.357,-376.037,-872.357,-374.159,-871.197,-372.999L-866.999,-368.801ZZM-808.281,-341.000C-809.267,-341.000,-810.241,-340.930,-811.211,-340.791C-814.323,-345.036,-818.471,-348.275,-823.171,-350.347C-823.411,-361.596,-832.599,-370.688,-843.906,-370.688C-855.364,-370.688,-864.688,-361.364,-864.688,-349.906C-864.688,-346.671,-863.883,-343.644,-862.554,-340.919C-873.617,-340.467,-882.500,-331.386,-882.500,-320.219C-882.500,-308.761,-873.176,-299.438,-861.719,-299.438C-859.179,-299.438,-856.693,-299.901,-854.351,-300.798C-848.978,-296.113,-842.144,-293.500,-835.000,-293.500C-827.849,-293.500,-821.022,-296.113,-815.649,-300.798C-813.307,-299.901,-810.821,-299.438,-808.281,-299.438C-796.824,-299.438,-787.500,-308.761,-787.500,-320.219C-787.500,-331.676,-796.824,-341.000,-808.281,-341.000ZZM-843.906,-364.750C-836.519,-364.750,-830.443,-359.338,-829.302,-352.272C-831.162,-352.643,-833.059,-352.875,-835.000,-352.875C-843.524,-352.875,-851.421,-349.199,-856.964,-342.995C-858.066,-345.067,-858.750,-347.394,-858.750,-349.906C-858.750,-358.105,-852.105,-364.750,-843.906,-364.750ZZM-808.281,-305.375C-811.459,-305.375,-814.389,-306.396,-816.805,-308.096C-821.161,-302.847,-827.648,-299.438,-835.000,-299.438C-842.352,-299.438,-848.839,-302.847,-853.195,-308.096C-855.607,-306.396,-858.541,-305.375,-861.719,-305.375C-869.918,-305.375,-876.563,-312.020,-876.563,-320.219C-876.563,-328.418,-869.918,-335.063,-861.719,-335.063C-860.281,-335.063,-858.924,-334.792,-857.614,-334.405C-857.092,-334.259,-856.562,-334.143,-856.071,-333.938C-855.259,-335.526,-854.239,-336.980,-853.106,-338.344C-848.769,-343.563,-842.318,-346.938,-835.000,-346.938C-833.121,-346.938,-831.320,-346.667,-829.573,-346.249C-827.613,-345.786,-825.761,-345.082,-824.037,-344.154C-819.716,-341.858,-816.167,-338.302,-813.933,-333.938C-812.189,-334.657,-810.283,-335.063,-808.281,-335.063C-800.082,-335.063,-793.437,-328.418,-793.437,-320.219C-793.437,-312.020,-800.082,-305.375,-808.281,-305.375ZZ" style="fill:#666666;fill-opacity:1">
          </path>
        </g>
      </g>
    </g>
    <g rx="0" ry="0">
      <g>
        <g>
          <path d="M-985.000,-441.000L-685.000,-441.000" style="fill-rule:evenodd;clip-rule:evenodd;stroke-linejoin:round;stroke-miterlimit:1.5;fill:none">
          </path>
        </g>
        <g style="fill-rule:evenodd;clip-rule:evenodd;stroke-linejoin:round;stroke-miterlimit:1.5;fill:none">
          <g>
            <path d="M-985.000,-441.000L-685.000,-441.000" style="fill:none;fill-opacity:none;stroke-width:2.5;stroke:#bfbfbf;stroke-opacity:1">
            </path>
          </g>
        </g>
      </g>
      <g>
        <g>
          <path d="M-985.000,-420.622L-786.639,-420.622" style="fill-rule:evenodd;clip-rule:evenodd;stroke-linejoin:round;stroke-miterlimit:1.5;fill:none">
          </path>
        </g>
        <g style="fill-rule:evenodd;clip-rule:evenodd;stroke-linejoin:round;stroke-miterlimit:1.5;fill:none">
          <g>
            <path d="M-985.000,-420.622L-786.639,-420.622" style="fill:none;fill-opacity:none;stroke-width:2.5;stroke:#bfbfbf;stroke-opacity:1">
            </path>
          </g>
        </g>
      </g>
    </g>
  </g>
</svg>